<!-- Generator: Adobe Illustrator 23.0.6, SVG Export Plug-In  -->
<svg version="1.1" xmlns="http://www.w3.org/2000/svg" xmlns:xlink="http://www.w3.org/1999/xlink" x="0px" y="0px"
	 width="308.976px" height="152.397px" viewBox="0 0 308.976 152.397" style="enable-background:new 0 0 308.976 152.397;"
	 xml:space="preserve">
<style type="text/css">
	.st0{fill:#878787;}
	.st1{fill:#C20D0E;}
	.st2{fill:#B2B2B2;}
	.st3{fill:url(#SVGID_1_);}
	.st4{fill:url(#SVGID_2_);}
	.st5{opacity:0.3;}
	.st6{fill:#FFFFFF;}
	.st7{fill:url(#SVGID_3_);}
	.st8{fill:url(#SVGID_4_);}
</style>
<defs>
</defs>
<g>
	<g>
		<path class="st0" d="M308.293,21.848c0,3.142-2.466,5.608-5.677,5.608c-3.176,0-5.71-2.466-5.71-5.608
			c0-3.074,2.534-5.541,5.71-5.541C305.827,16.308,308.293,18.774,308.293,21.848z M298.326,21.848c0,2.466,1.824,4.426,4.325,4.426
			c2.432,0,4.223-1.96,4.223-4.393c0-2.466-1.791-4.459-4.257-4.459S298.326,19.415,298.326,21.848z M301.739,24.753h-1.285v-5.541
			c0.508-0.102,1.216-0.169,2.129-0.169c1.047,0,1.52,0.169,1.926,0.406c0.304,0.237,0.541,0.675,0.541,1.216
			c0,0.608-0.473,1.081-1.149,1.285v0.067c0.539,0.202,0.845,0.608,1.012,1.351c0.169,0.845,0.271,1.183,0.406,1.385h-1.385
			c-0.169-0.202-0.27-0.71-0.439-1.351c-0.102-0.608-0.44-0.879-1.149-0.879h-0.608V24.753z M301.772,21.612h0.608
			c0.71,0,1.285-0.237,1.285-0.812c0-0.506-0.373-0.845-1.183-0.845c-0.338,0-0.575,0.034-0.71,0.069V21.612z"/>
		<path class="st1" d="M9.427,118.71H0l0.813-5.756h26.695l-0.813,5.756h-9.427l-3.453,24.429H5.973L9.427,118.71z"/>
		<path class="st1" d="M24.288,134.366c0-7.244,3.088-13.522,13.734-13.522c6.786,0,9.995,4.025,9.995,9.255
			c0,7.285-3.373,13.483-13.449,13.483C28.23,143.582,24.288,140.564,24.288,134.366z M40.298,130.904
			c0-3.018-1.056-4.83-3.455-4.83c-3.575,0-4.834,3.342-4.834,7.526c0,3.101,1.218,4.791,3.494,4.791
			C39.16,138.391,40.298,134.929,40.298,130.904z"/>
		<path class="st1" d="M58.002,142.617l-1.34,9.78h-7.477l4.388-31.071h6.298l0.488,2.618l0.243,0.039
			c1.789-1.812,3.942-3.138,7.031-3.138c4.998,0,7.435,4.184,7.435,9.095c0,7.364-4.103,13.643-12.514,13.643
			C60.563,143.582,59.222,143.179,58.002,142.617z M60.033,128.449l-1.259,9.016c0.772,0.523,1.91,0.926,3.089,0.926
			c4.144,0,5.444-4.187,5.444-7.727c0-2.858-1.015-4.548-2.884-4.548C63.04,126.116,61.13,127.042,60.033,128.449z"/>
		<path class="st1" d="M100.163,118.71h-9.427l0.813-5.756h26.695l-0.813,5.756h-9.427l-3.453,24.429h-7.842L100.163,118.71z"/>
		<path class="st1" d="M135.3,141.892c-2.763,1.127-6.38,1.689-9.305,1.689c-5.322,0-10.971-2.293-10.971-9.458
			c0-8.049,4.835-13.279,13.327-13.279c5.445,0,9.021,2.293,9.021,7.727c0,1.166-0.123,2.534-0.528,3.983h-14.06
			c-0.121,0.646-0.121,1.007-0.121,1.53c0,2.696,1.422,4.187,4.794,4.187c2.072,0,4.429-0.403,7.395-1.37L135.3,141.892z
			 M130.628,129.455c0.041-0.403,0.082-0.764,0.082-1.085c0-2.173-1.016-2.978-2.763-2.978c-2.033,0-3.82,1.287-4.551,4.064H130.628
			z"/>
		<path class="st1" d="M142.686,121.286h6.501l0.284,2.897l0.285,0.039c2.641-2.534,5.322-3.339,7.801-3.339
			c4.063,0,6.298,2.092,6.298,6.318c0,0.685-0.082,1.571-0.162,2.254l-1.91,13.684h-7.557l1.787-12.678
			c0.041-0.363,0.082-0.764,0.082-1.088c0-1.972-0.854-2.777-2.438-2.777c-1.869,0-3.535,1.007-4.551,2.536l-1.991,14.006h-7.516
			L142.686,121.286z"/>
		<path class="st1" d="M213.532,143.14h-7.436l1.707-18.193h-0.243c-3.292,5.596-8.939,14.249-10.118,15.938
			c-0.447,0.081-3.048,0.403-3.616,0.403c-1.423-4.145-3.251-10.183-5.73-16.542l-0.284,0.042l-3.21,18.352h-7.233l5.526-30.185
			h7.965c2.884,7.406,5.485,15.575,6.216,17.868h0.284c3.292-4.827,8.331-13.279,10.728-17.868h8.248L213.532,143.14z"/>
		<path class="st1" d="M239.521,141.892c-2.763,1.127-6.38,1.689-9.305,1.689c-5.322,0-10.971-2.293-10.971-9.458
			c0-8.049,4.835-13.279,13.327-13.279c5.445,0,9.021,2.293,9.021,7.727c0,1.166-0.123,2.534-0.528,3.983h-14.06
			c-0.121,0.646-0.121,1.007-0.121,1.53c0,2.696,1.422,4.187,4.794,4.187c2.072,0,4.429-0.403,7.395-1.37L239.521,141.892z
			 M234.848,129.455c0.041-0.403,0.082-0.764,0.082-1.085c0-2.173-1.016-2.978-2.763-2.978c-2.033,0-3.82,1.287-4.551,4.064H234.848
			z"/>
		<path class="st1" d="M244.467,134.526c0-8.894,5.201-13.643,12.353-13.643c2.315,0,3.697,0.484,4.632,0.926l1.381-9.66h7.477
			l-4.388,30.99h-6.258l-0.528-2.576l-0.244-0.039c-1.828,1.77-3.94,3.057-7.029,3.057
			C246.864,143.582,244.467,139.476,244.467,134.526z M259.46,135.975l1.261-9.014c-0.772-0.523-1.789-0.886-2.966-0.886
			c-4.145,0-5.567,4.147-5.567,7.688c0,2.897,1.015,4.589,2.884,4.589C256.454,138.351,258.363,137.384,259.46,135.975z"/>
		<path class="st1" d="M274.158,121.286h7.518l-3.048,21.854h-7.516L274.158,121.286z M279.482,109.492
			c2.235,0,3.657,1.208,3.657,3.381c0,2.696-1.544,4.268-4.47,4.268c-2.317,0-3.82-1.247-3.82-3.583
			C274.849,111.103,276.597,109.492,279.482,109.492z"/>
		<path class="st1" d="M299.142,140.483l-0.203-0.081c-1.787,1.65-4.388,3.18-7.598,3.18c-4.713,0-6.988-3.983-6.988-9.056
			c0-7.646,4.105-13.682,12.921-13.682c2.886,0,5.486,0.643,7.559,1.81l1.748-1.368h2.315l-2.194,15.455
			c-0.042,0.282-0.082,0.562-0.082,0.805c0,0.523,0.203,0.845,0.935,0.845c0.65,0,1.423-0.081,1.423-0.081l-0.57,4.187
			c-1.909,0.805-3.738,1.085-5.119,1.085C300.647,143.582,299.509,142.496,299.142,140.483z M299.345,135.975l1.259-9.014
			c-0.771-0.523-1.787-0.886-2.965-0.886c-4.185,0-5.568,4.187-5.568,7.769c0,2.657,0.853,4.508,2.886,4.508
			C296.42,138.351,298.168,137.426,299.345,135.975z"/>
		<g>
			<path class="st2" d="M165.043,27.906c-2.155-2.262-5.262-3.645-8.881-3.645h-37.729c-3.838,0-7.515,1.557-10.348,4.066
				l3.169-23.791L107.894,0H32.942l-3.351,24.261l3.36,4.536h21.026l-9.116,69.112l3.36,4.536h24.865l7.035-52.421l-3.36-4.536
				c-2.814,0.904-6.736,1.318-11.005,1.305l1.387-10.085c7.069-0.589,13.168-2.357,19.226-7.91h21.221
				c-2.517,2.417-4.29,5.604-4.758,9.11l-6.196,46.357c-0.466,3.49,0.437,6.666,2.294,9.076c0.216,0.28,3.158,4.432,4.138,5.46
				c2.155,2.262,5.262,3.645,8.881,3.645h37.728c7.608,0,14.593-6.109,15.6-13.645l6.196-46.357
				c0.526-3.933-0.689-7.467-3.046-9.955C168.092,32.132,166.022,28.934,165.043,27.906z M142.818,41.175l-5.322,39.819
				c-0.569,4.257-4.514,7.708-8.812,7.708c-1.235,0-2.36-0.293-3.329-0.8c-0.144-0.748-0.173-1.544-0.062-2.373l5.322-39.819
				c0.569-4.257,4.514-7.708,8.812-7.708c1.235,0,2.36,0.293,3.329,0.8C142.9,39.551,142.929,40.347,142.818,41.175z"/>
			<path class="st2" d="M239.539,27.826c-2.152-2.214-5.227-3.565-8.804-3.565h-51.537l-9.844,73.648l3.36,4.536h24.859
				l3.061-22.904h26.679c7.608,0,14.593-6.109,15.6-13.645l3.135-23.452c0.518-3.873-0.652-7.359-2.939-9.841
				C242.742,32.203,240.555,28.871,239.539,27.826z M217.393,41.175l-2.261,16.915c-0.569,4.257-4.514,7.708-8.812,7.708h-3.848
				l3.715-27.795h7.814c1.235,0,2.36,0.293,3.329,0.8C217.474,39.551,217.503,40.347,217.393,41.175z"/>
			<polygon class="st2" points="306.215,65.601 302.855,61.065 262.828,20.612 252.083,100.999 255.443,105.534 			"/>
		</g>
		
			<radialGradient id="SVGID_1_" cx="-3516.8677" cy="-1029.5524" r="1460.4457" gradientTransform="matrix(0.1153 0 0 0.1138 468.6478 149.4309)" gradientUnits="userSpaceOnUse">
			<stop  offset="0" style="stop-color:#0F265C"/>
			<stop  offset="1" style="stop-color:#070D33"/>
		</radialGradient>
		<path class="st3" d="M156.161,24.261h-37.729c-7.608,0-14.593,6.109-15.6,13.645l-6.196,46.357
			c-1.007,7.536,4.344,13.646,11.953,13.646h37.729c7.608,0,14.593-6.109,15.6-13.646l6.196-46.357
			C169.121,30.37,163.77,24.261,156.161,24.261z M142.818,41.175l-5.322,39.819c-0.569,4.257-4.514,7.708-8.812,7.708
			c-4.298,0-7.321-3.451-6.752-7.708l5.322-39.819c0.569-4.257,4.514-7.708,8.812-7.708
			C140.364,33.467,143.387,36.918,142.818,41.175z M230.736,24.261h-51.537l-9.844,73.648h24.859l3.061-22.904h26.679
			c7.608,0,14.593-6.109,15.6-13.645l3.135-23.452C243.695,30.37,238.344,24.261,230.736,24.261z M217.393,41.175l-2.261,16.915
			c-0.569,4.257-4.514,7.708-8.812,7.708h-7.814l4.321-32.331h7.814C214.939,33.467,217.962,36.918,217.393,41.175z M83.009,24.261
			h21.653L107.894,0H32.942l-3.351,24.261h24.984l-9.714,73.648h24.865l7.035-52.421c-3.669,1.178-9.22,1.532-14.972,1.178
			l1.994-14.494C70.853,31.582,76.951,29.815,83.009,24.261z"/>
		
			<radialGradient id="SVGID_2_" cx="-1829.2634" cy="-780.6586" r="377.7156" gradientTransform="matrix(0.1153 0 0 0.1138 468.6478 149.4309)" gradientUnits="userSpaceOnUse">
			<stop  offset="0" style="stop-color:#C20D0E"/>
			<stop  offset="1" style="stop-color:#770F00"/>
		</radialGradient>
		<polygon class="st4" points="262.828,20.612 252.083,100.999 302.855,61.065 		"/>
		<g class="st5">
			<path class="st6" d="M117.065,24.396c0.593,3.2,0.947,6.483,0.947,9.85c0,17.041-7.941,32.269-20.34,42.279l-0.519,3.885
				c14.325-10.452,23.677-27.225,23.677-46.163c0-3.411-0.358-6.736-0.937-9.985h-1.458
				C117.97,24.261,117.521,24.352,117.065,24.396z"/>
			<path class="st6" d="M62.932,97.27c-6.127,0-12.048-0.879-17.659-2.487l-0.372,2.822c0.36,0.101,0.717,0.21,1.08,0.305h23.745
				l0.137-1.019C67.585,97.135,65.275,97.27,62.932,97.27z"/>
			<path class="st6" d="M100.724,95.143c0.792,0.655,1.647,1.241,2.615,1.675c7.174-4.562,13.511-10.297,18.742-16.935l0.774-5.786
				C117.084,82.577,109.526,89.766,100.724,95.143z"/>
			<path class="st6" d="M123.798,86.734c-3.622,4.114-7.653,7.864-12.043,11.174h4.557c3.567-2.94,6.871-6.179,9.901-9.659
				C125.28,87.915,124.466,87.401,123.798,86.734z"/>
			<path class="st6" d="M126.575,34.246c0,22.488-11.964,42.25-29.911,53.407c0.127,1.01,0.383,1.962,0.737,2.868
				c12.548-7.572,22.366-19.15,27.658-32.922l2.195-16.423c0.224-1.678,0.987-3.22,2.075-4.486c0.03-0.812,0.063-1.624,0.063-2.443
				c0-3.394-0.261-6.728-0.764-9.985h-2.861C126.293,27.515,126.575,30.848,126.575,34.246z"/>
			<path class="st6" d="M62.932,27.773c-3.596,0-6.523,2.904-6.523,6.473c0,3.46,2.758,6.272,6.202,6.442l0.385-2.797
				c-0.023,0-0.041,0.013-0.064,0.013c-2.044,0-3.706-1.641-3.706-3.658c0-2.017,1.662-3.656,3.706-3.656
				c1.151,0,2.14,0.553,2.82,1.369c1.035-0.125,2.056-0.274,3.054-0.472C67.759,29.299,65.53,27.773,62.932,27.773z"/>
			<path class="st6" d="M62.932,49.201c3.194,0,6.148-1.004,8.59-2.691c-2.936,0.319-6.294,0.367-9.733,0.156l0.054-0.391
				c-4.003-0.356-7.436-2.586-9.403-5.831l-0.521,3.951C54.676,47.333,58.575,49.201,62.932,49.201z"/>
			<path class="st6" d="M109.45,34.246c0,10.685-3.726,20.507-9.915,28.329l-0.677,5.064c8.289-8.748,13.409-20.477,13.409-33.394
				c0-2.801-0.293-5.531-0.752-8.204c-0.914,0.471-1.78,1.019-2.592,1.652C109.234,29.84,109.45,32.016,109.45,34.246z"/>
			<path class="st6" d="M99.483,24.261h2.908C99.762,14.071,93.234,5.436,84.456,0H78.48C88.672,4.555,96.46,13.428,99.483,24.261z"
				/>
			<path class="st6" d="M107.571,2.421L107.894,0h-2.152C106.382,0.783,106.975,1.603,107.571,2.421z"/>
			<path class="st6" d="M186.512,34.246c0,22.471-6.174,43.53-16.889,61.649l-0.269,2.014h2.355
				c11.177-18.668,17.62-40.429,17.62-63.663c0-3.364-0.174-6.687-0.438-9.985h-2.825C186.337,27.558,186.512,30.881,186.512,34.246
				z"/>
			<path class="st6" d="M62.932,19.291c-4.434,0-8.387,1.941-11.15,4.97h2.792l-0.17,1.288c2.21-2.121,5.212-3.441,8.527-3.441
				c5.188,0,9.608,3.214,11.399,7.726c0.861-0.351,1.713-0.758,2.559-1.211C74.642,23.16,69.241,19.291,62.932,19.291z"/>
			<path class="st6" d="M228.99,24.261c0.201,3.306,0.334,6.63,0.334,9.985c0,14.056-1.795,27.703-5.154,40.737
				c1.011-0.015,2.004-0.149,2.979-0.369c3.242-12.937,4.992-26.452,4.992-40.368c0-3.317-0.125-6.605-0.318-9.875
				c-0.366-0.03-0.71-0.11-1.088-0.11H228.99z"/>
			<path class="st6" d="M195.074,34.246c0,23.099-6.098,44.805-16.747,63.663h3.256c10.397-18.939,16.308-40.63,16.308-63.663
				c0-3.362-0.169-6.684-0.416-9.985h-2.824C194.903,27.561,195.074,30.883,195.074,34.246z"/>
			<path class="st6" d="M263.575,34.246c0,23.077-4.035,45.229-11.372,65.852l-0.12,0.9l3.817-3.002
				c6.769-20.051,10.492-41.472,10.492-63.751c0-3.454-0.09-6.887-0.264-10.299l-3.06-3.092
				C263.368,25.286,263.575,29.741,263.575,34.246z"/>
			<path class="st6" d="M272.136,34.246c0,19.94-2.916,39.207-8.249,57.468l3.786-2.978c4.721-17.389,7.28-35.645,7.28-54.49
				c0-0.475-0.033-0.942-0.036-1.416l-2.892-2.923C272.055,31.355,272.136,32.791,272.136,34.246z"/>
			<path class="st6" d="M160.823,34.246c0,24.351-9.132,46.616-24.157,63.663h3.74c14.5-17.287,23.235-39.482,23.235-63.663
				c0-2.627-0.135-5.222-0.337-7.799c-0.881-0.614-1.877-1.075-2.935-1.438C160.659,28.051,160.823,31.13,160.823,34.246z"/>
			<path class="st6" d="M143.698,34.246c0,7.069-0.941,13.922-2.687,20.454l-1.775,13.279c4.663-10.312,7.279-21.722,7.279-33.733
				c0-3.381-0.23-6.709-0.629-9.985h-2.84C143.46,27.535,143.698,30.863,143.698,34.246z"/>
			<path class="st6" d="M152.262,34.246c0,24.981-10.526,47.56-27.395,63.663h4.016c16.193-16.458,26.196-38.919,26.196-63.663
				c0-3.375-0.2-6.704-0.562-9.985h-2.84C152.051,27.541,152.262,30.869,152.262,34.246z"/>
			<path class="st6" d="M147.835,97.759c1.473-0.158,2.91-0.493,4.266-1.062c4.117-5.752,7.68-11.914,10.616-18.417l1.587-11.874
				C160.603,77.824,154.992,88.399,147.835,97.759z"/>
			<path class="st6" d="M177.935,33.715c0.001,0.178,0.014,0.353,0.014,0.531c0,10.424-1.449,20.514-4.109,30.112l-1.888,14.128
				c5.667-13.653,8.815-28.587,8.815-44.241c0-3.366-0.177-6.69-0.461-9.985h-1.106L177.935,33.715z"/>
			<path class="st6" d="M135.119,33.56c0.315-0.037,0.627-0.093,0.948-0.093c0.662,0,1.28,0.107,1.874,0.261
				c-0.022-3.209-0.261-6.366-0.683-9.467h-2.84C134.849,27.305,135.089,30.408,135.119,33.56z"/>
			<path class="st6" d="M188.033,97.909h3.171c1.502-2.958,2.922-5.962,4.217-9.033l1.697-12.7
				C194.709,83.721,191.644,90.975,188.033,97.909z"/>
			<path class="st6" d="M212.183,33.623c1.075,0.223,2.019,0.694,2.815,1.328c0.001-0.236,0.018-0.469,0.018-0.705
				c0-3.358-0.151-6.681-0.371-9.985h-2.825C212.03,27.359,212.17,30.476,212.183,33.623z"/>
			<path class="st6" d="M203.618,33.467h2.817c-0.017-3.095-0.159-6.16-0.373-9.206h-2.825
				C203.456,27.306,203.6,30.371,203.618,33.467z"/>
			<path class="st6" d="M75.62,53.99l0.511-3.807c-3.596,2.923-8.193,4.682-13.198,4.682c-4.426,0-8.525-1.383-11.903-3.722
				l-0.406,3.076c3.591,2.182,7.797,3.463,12.309,3.463C67.603,57.682,71.949,56.315,75.62,53.99z"/>
			<path class="st6" d="M220.76,34.246c0,14.099-1.927,27.755-5.477,40.758h2.93c3.485-13.016,5.364-26.672,5.364-40.758
				c0-3.356-0.141-6.679-0.349-9.985h-2.825C220.616,27.566,220.76,30.889,220.76,34.246z"/>
			<path class="st6" d="M208.843,65.366c-0.707,3.256-1.538,6.465-2.459,9.638h2.931c1.069-3.763,2.015-7.574,2.79-11.449
				C211.157,64.379,210.037,64.985,208.843,65.366z"/>
			<path class="st6" d="M240.572,29.158c-0.791-1.102-1.749-2.061-2.889-2.823c0.12,2.624,0.203,5.258,0.203,7.912
				c0,12.724-1.431,25.117-4.072,37.068c1.501-1.233,2.789-2.712,3.77-4.383c2.017-10.599,3.119-21.514,3.119-32.684
				C240.703,32.54,240.621,30.853,240.572,29.158z"/>
			<path class="st6" d="M288.876,46.938c-0.534,9.431-1.7,18.694-3.381,27.781l3.337-2.624c1.258-7.39,2.149-14.897,2.665-22.508
				L288.876,46.938z"/>
			<path class="st6" d="M296.84,54.986c-0.358,3.993-0.814,7.957-1.374,11.891l3.159-2.485c0.292-2.249,0.609-4.489,0.836-6.757
				L296.84,54.986z"/>
			<path class="st6" d="M280.59,38.563c-0.305,15.233-2.208,30.076-5.557,44.385l3.544-2.787
				c2.726-12.576,4.329-25.553,4.759-38.823L280.59,38.563z"/>
			<path class="st6" d="M199.956,65.798c-0.729,3.106-1.536,6.183-2.472,9.206h2.931c0.916-3.026,1.72-6.099,2.433-9.206H199.956z"
				/>
			<path class="st6" d="M74.265,64.085l0.428-3.187c-3.605,1.566-7.578,2.449-11.76,2.449c-4.712,0-9.154-1.131-13.105-3.09
				L49.44,63.19c4.111,1.889,8.671,2.974,13.492,2.974C66.925,66.164,70.734,65.407,74.265,64.085z"/>
			<path class="st6" d="M31.808,8.208l-0.799,5.786C34.97,7.895,40.652,3.009,47.383,0h-5.975
				C37.794,2.238,34.548,4.998,31.808,8.208z"/>
			<path class="st6" d="M62.932,2.33c-14.24,0-26.332,9.213-30.575,21.931h3C39.486,13.127,50.271,5.147,62.932,5.147
				c12.659,0,23.444,7.98,27.572,19.114h3C89.262,11.542,77.172,2.33,62.932,2.33z"/>
			<path class="st6" d="M62.932,10.81c-9.433,0-17.57,5.515-21.363,13.451h3.151c3.559-6.334,10.385-10.634,18.212-10.634
				c8.269,0,15.406,4.806,18.767,11.734c0.437-0.361,0.874-0.7,1.31-1.1h1.283C80.5,16.325,72.364,10.81,62.932,10.81z"/>
			<path class="st6" d="M103.679,34.711c-0.388,1.03-0.699,2.09-0.847,3.196l-1.199,8.97
				C102.913,43.039,103.63,38.956,103.679,34.711z"/>
			<path class="st6" d="M73.023,73.341l0.404-3.007c-3.338,0.953-6.851,1.493-10.494,1.493c-5.046,0-9.856-1-14.265-2.778
				l-0.377,2.856c4.552,1.744,9.477,2.739,14.642,2.739C66.421,74.644,69.789,74.161,73.023,73.341z"/>
			<path class="st6" d="M62.932,80.308c-5.403,0-10.572-0.964-15.401-2.649l-0.377,2.857c4.961,1.666,10.255,2.609,15.777,2.609
				c3.039,0,6.001-0.313,8.89-0.837l0.39-2.905C69.212,79.987,66.11,80.308,62.932,80.308z"/>
			<path class="st6" d="M70.648,91.036l0.39-2.905c-2.653,0.39-5.345,0.658-8.106,0.658c-5.76,0-11.313-0.888-16.536-2.52
				l-0.373,2.828c5.353,1.623,11.027,2.509,16.909,2.509C65.555,91.607,68.117,91.373,70.648,91.036z"/>
			<path class="st6" d="M93.933,0c5.032,4.471,9.109,9.976,11.801,16.219l0.672-5.044C104.172,7.061,101.357,3.304,98.077,0H93.933z
				"/>
		</g>
	</g>
</g>
</svg>