<!-- Generator: Adobe Illustrator 23.0.6, SVG Export Plug-In  -->
<svg version="1.1" xmlns="http://www.w3.org/2000/svg" xmlns:xlink="http://www.w3.org/1999/xlink" x="0px" y="0px"
	 width="308.976px" height="152.397px" viewBox="0 0 308.976 152.397" style="enable-background:new 0 0 308.976 152.397;"
	 xml:space="preserve">
<style type="text/css">
	.st0{fill:#878787;}
	.st1{fill:#C20D0E;}
	.st2{fill:#B2B2B2;}
	.st3{fill:url(#SVGID_1_);}
	.st4{fill:url(#SVGID_2_);}
	.st5{opacity:0.3;}
	.st6{fill:#FFFFFF;}
	.st7{fill:url(#SVGID_3_);}
	.st8{fill:url(#SVGID_4_);}
	.st9{fill:#e4e4e4;}
</style>
<defs>
</defs>
<g>
	<g>
		<path class="st0" d="M308.293,21.848c0,3.142-2.466,5.608-5.677,5.608c-3.176,0-5.71-2.466-5.71-5.608
			c0-3.074,2.534-5.541,5.71-5.541C305.827,16.308,308.293,18.774,308.293,21.848z M298.326,21.848c0,2.466,1.824,4.426,4.325,4.426
			c2.432,0,4.223-1.96,4.223-4.393c0-2.466-1.791-4.459-4.257-4.459S298.326,19.415,298.326,21.848z M301.739,24.753h-1.285v-5.541
			c0.508-0.102,1.216-0.169,2.129-0.169c1.047,0,1.52,0.169,1.926,0.406c0.304,0.237,0.541,0.675,0.541,1.216
			c0,0.608-0.473,1.081-1.149,1.285v0.067c0.539,0.202,0.845,0.608,1.012,1.351c0.169,0.845,0.271,1.183,0.406,1.385h-1.385
			c-0.169-0.202-0.27-0.71-0.439-1.351c-0.102-0.608-0.44-0.879-1.149-0.879h-0.608V24.753z M301.772,21.612h0.608
			c0.71,0,1.285-0.237,1.285-0.812c0-0.506-0.373-0.845-1.183-0.845c-0.338,0-0.575,0.034-0.71,0.069V21.612z"/>
		<path class="st9" d="M9.427,118.71H0l0.813-5.756h26.695l-0.813,5.756h-9.427l-3.453,24.429H5.973L9.427,118.71z"/>
		<path class="st9" d="M24.288,134.366c0-7.244,3.088-13.522,13.734-13.522c6.786,0,9.995,4.025,9.995,9.255
			c0,7.285-3.373,13.483-13.449,13.483C28.23,143.582,24.288,140.564,24.288,134.366z M40.298,130.904
			c0-3.018-1.056-4.83-3.455-4.83c-3.575,0-4.834,3.342-4.834,7.526c0,3.101,1.218,4.791,3.494,4.791
			C39.16,138.391,40.298,134.929,40.298,130.904z"/>
		<path class="st9" d="M58.002,142.617l-1.34,9.78h-7.477l4.388-31.071h6.298l0.488,2.618l0.243,0.039
			c1.789-1.812,3.942-3.138,7.031-3.138c4.998,0,7.435,4.184,7.435,9.095c0,7.364-4.103,13.643-12.514,13.643
			C60.563,143.582,59.222,143.179,58.002,142.617z M60.033,128.449l-1.259,9.016c0.772,0.523,1.91,0.926,3.089,0.926
			c4.144,0,5.444-4.187,5.444-7.727c0-2.858-1.015-4.548-2.884-4.548C63.04,126.116,61.13,127.042,60.033,128.449z"/>
		<path class="st9" d="M100.163,118.71h-9.427l0.813-5.756h26.695l-0.813,5.756h-9.427l-3.453,24.429h-7.842L100.163,118.71z"/>
		<path class="st9" d="M135.3,141.892c-2.763,1.127-6.38,1.689-9.305,1.689c-5.322,0-10.971-2.293-10.971-9.458
			c0-8.049,4.835-13.279,13.327-13.279c5.445,0,9.021,2.293,9.021,7.727c0,1.166-0.123,2.534-0.528,3.983h-14.06
			c-0.121,0.646-0.121,1.007-0.121,1.53c0,2.696,1.422,4.187,4.794,4.187c2.072,0,4.429-0.403,7.395-1.37L135.3,141.892z
			 M130.628,129.455c0.041-0.403,0.082-0.764,0.082-1.085c0-2.173-1.016-2.978-2.763-2.978c-2.033,0-3.82,1.287-4.551,4.064H130.628
			z"/>
		<path class="st9" d="M142.686,121.286h6.501l0.284,2.897l0.285,0.039c2.641-2.534,5.322-3.339,7.801-3.339
			c4.063,0,6.298,2.092,6.298,6.318c0,0.685-0.082,1.571-0.162,2.254l-1.91,13.684h-7.557l1.787-12.678
			c0.041-0.363,0.082-0.764,0.082-1.088c0-1.972-0.854-2.777-2.438-2.777c-1.869,0-3.535,1.007-4.551,2.536l-1.991,14.006h-7.516
			L142.686,121.286z"/>
		<path class="st9" d="M213.532,143.14h-7.436l1.707-18.193h-0.243c-3.292,5.596-8.939,14.249-10.118,15.938
			c-0.447,0.081-3.048,0.403-3.616,0.403c-1.423-4.145-3.251-10.183-5.73-16.542l-0.284,0.042l-3.21,18.352h-7.233l5.526-30.185
			h7.965c2.884,7.406,5.485,15.575,6.216,17.868h0.284c3.292-4.827,8.331-13.279,10.728-17.868h8.248L213.532,143.14z"/>
		<path class="st9" d="M239.521,141.892c-2.763,1.127-6.38,1.689-9.305,1.689c-5.322,0-10.971-2.293-10.971-9.458
			c0-8.049,4.835-13.279,13.327-13.279c5.445,0,9.021,2.293,9.021,7.727c0,1.166-0.123,2.534-0.528,3.983h-14.06
			c-0.121,0.646-0.121,1.007-0.121,1.53c0,2.696,1.422,4.187,4.794,4.187c2.072,0,4.429-0.403,7.395-1.37L239.521,141.892z
			 M234.848,129.455c0.041-0.403,0.082-0.764,0.082-1.085c0-2.173-1.016-2.978-2.763-2.978c-2.033,0-3.82,1.287-4.551,4.064H234.848
			z"/>
		<path class="st9" d="M244.467,134.526c0-8.894,5.201-13.643,12.353-13.643c2.315,0,3.697,0.484,4.632,0.926l1.381-9.66h7.477
			l-4.388,30.99h-6.258l-0.528-2.576l-0.244-0.039c-1.828,1.77-3.94,3.057-7.029,3.057
			C246.864,143.582,244.467,139.476,244.467,134.526z M259.46,135.975l1.261-9.014c-0.772-0.523-1.789-0.886-2.966-0.886
			c-4.145,0-5.567,4.147-5.567,7.688c0,2.897,1.015,4.589,2.884,4.589C256.454,138.351,258.363,137.384,259.46,135.975z"/>
		<path class="st9" d="M274.158,121.286h7.518l-3.048,21.854h-7.516L274.158,121.286z M279.482,109.492
			c2.235,0,3.657,1.208,3.657,3.381c0,2.696-1.544,4.268-4.47,4.268c-2.317,0-3.82-1.247-3.82-3.583
			C274.849,111.103,276.597,109.492,279.482,109.492z"/>
		<path class="st9" d="M299.142,140.483l-0.203-0.081c-1.787,1.65-4.388,3.18-7.598,3.18c-4.713,0-6.988-3.983-6.988-9.056
			c0-7.646,4.105-13.682,12.921-13.682c2.886,0,5.486,0.643,7.559,1.81l1.748-1.368h2.315l-2.194,15.455
			c-0.042,0.282-0.082,0.562-0.082,0.805c0,0.523,0.203,0.845,0.935,0.845c0.65,0,1.423-0.081,1.423-0.081l-0.57,4.187
			c-1.909,0.805-3.738,1.085-5.119,1.085C300.647,143.582,299.509,142.496,299.142,140.483z M299.345,135.975l1.259-9.014
			c-0.771-0.523-1.787-0.886-2.965-0.886c-4.185,0-5.568,4.187-5.568,7.769c0,2.657,0.853,4.508,2.886,4.508
			C296.42,138.351,298.168,137.426,299.345,135.975z"/>
		<g>
			<path class="st2" d="M165.043,27.906c-2.155-2.262-5.262-3.645-8.881-3.645h-37.729c-3.838,0-7.515,1.557-10.348,4.066
				l3.169-23.791L107.894,0H32.942l-3.351,24.261l3.36,4.536h21.026l-9.116,69.112l3.36,4.536h24.865l7.035-52.421l-3.36-4.536
				c-2.814,0.904-6.736,1.318-11.005,1.305l1.387-10.085c7.069-0.589,13.168-2.357,19.226-7.91h21.221
				c-2.517,2.417-4.29,5.604-4.758,9.11l-6.196,46.357c-0.466,3.49,0.437,6.666,2.294,9.076c0.216,0.28,3.158,4.432,4.138,5.46
				c2.155,2.262,5.262,3.645,8.881,3.645h37.728c7.608,0,14.593-6.109,15.6-13.645l6.196-46.357
				c0.526-3.933-0.689-7.467-3.046-9.955C168.092,32.132,166.022,28.934,165.043,27.906z M142.818,41.175l-5.322,39.819
				c-0.569,4.257-4.514,7.708-8.812,7.708c-1.235,0-2.36-0.293-3.329-0.8c-0.144-0.748-0.173-1.544-0.062-2.373l5.322-39.819
				c0.569-4.257,4.514-7.708,8.812-7.708c1.235,0,2.36,0.293,3.329,0.8C142.9,39.551,142.929,40.347,142.818,41.175z"/>
			<path class="st2" d="M239.539,27.826c-2.152-2.214-5.227-3.565-8.804-3.565h-51.537l-9.844,73.648l3.36,4.536h24.859
				l3.061-22.904h26.679c7.608,0,14.593-6.109,15.6-13.645l3.135-23.452c0.518-3.873-0.652-7.359-2.939-9.841
				C242.742,32.203,240.555,28.871,239.539,27.826z M217.393,41.175l-2.261,16.915c-0.569,4.257-4.514,7.708-8.812,7.708h-3.848
				l3.715-27.795h7.814c1.235,0,2.36,0.293,3.329,0.8C217.474,39.551,217.503,40.347,217.393,41.175z"/>
			<polygon class="st2" points="306.215,65.601 302.855,61.065 262.828,20.612 252.083,100.999 255.443,105.534 			"/>
		</g>
		
			<radialGradient id="SVGID_1_" cx="-3516.8677" cy="-1029.5524" r="1460.4457" gradientTransform="matrix(0.1153 0 0 0.1138 468.6478 149.4309)" gradientUnits="userSpaceOnUse">
			<stop  offset="0" style="stop-color:#f5f5f5"/>
			<stop  offset="1" style="stop-color:#e4e4e4"/>
		</radialGradient>
		<path class="st3" d="M156.161,24.261h-37.729c-7.608,0-14.593,6.109-15.6,13.645l-6.196,46.357
			c-1.007,7.536,4.344,13.646,11.953,13.646h37.729c7.608,0,14.593-6.109,15.6-13.646l6.196-46.357
			C169.121,30.37,163.77,24.261,156.161,24.261z M142.818,41.175l-5.322,39.819c-0.569,4.257-4.514,7.708-8.812,7.708
			c-4.298,0-7.321-3.451-6.752-7.708l5.322-39.819c0.569-4.257,4.514-7.708,8.812-7.708
			C140.364,33.467,143.387,36.918,142.818,41.175z M230.736,24.261h-51.537l-9.844,73.648h24.859l3.061-22.904h26.679
			c7.608,0,14.593-6.109,15.6-13.645l3.135-23.452C243.695,30.37,238.344,24.261,230.736,24.261z M217.393,41.175l-2.261,16.915
			c-0.569,4.257-4.514,7.708-8.812,7.708h-7.814l4.321-32.331h7.814C214.939,33.467,217.962,36.918,217.393,41.175z M83.009,24.261
			h21.653L107.894,0H32.942l-3.351,24.261h24.984l-9.714,73.648h24.865l7.035-52.421c-3.669,1.178-9.22,1.532-14.972,1.178
			l1.994-14.494C70.853,31.582,76.951,29.815,83.009,24.261z"/>
		
			<radialGradient id="SVGID_2_" cx="-1829.2634" cy="-780.6586" r="377.7156" gradientTransform="matrix(0.1153 0 0 0.1138 468.6478 149.4309)" gradientUnits="userSpaceOnUse">
			<stop  offset="0" style="stop-color:#f5f5f5"/>
			<stop  offset="1" style="stop-color:#e4e4e4"/>
		</radialGradient>
		<polygon class="st4" points="262.828,20.612 252.083,100.999 302.855,61.065 		"/>
		
	</g>
</g>
</svg>