<!-- Generator: Adobe Illustrator 24.0.0, SVG Export Plug-In  -->
<svg version="1.1" xmlns="http://www.w3.org/2000/svg" xmlns:xlink="http://www.w3.org/1999/xlink" x="0px" y="0px"
	 width="443.363px" height="306.114px" viewBox="0 0 443.363 306.114" style="enable-background:new 0 0 443.363 306.114;"
	 xml:space="preserve">
<style type="text/css">
	.st0{fill:#f5f5f5;}
	.st1{fill:#57A6E6;}
	.st2{fill:#974589;}
	.st3{fill:#F14D7F;}
	.st4{fill:#FFCC6E;}
	.st5{fill:#94CA68;}
</style>
<defs>
</defs>
<g>
	<path class="st0" d="M441.153,200.335c-0.141,0-0.758,0.038-0.939,0.049l1.092-3.586l-0.132-2.495l0.776-3.414l-4.153-5.75
		l-4.264-1.938l-1.544,0.964l-2.64,0.294l-1.938,2.323l-0.831-0.09l0.239-1.353l-3.586-2.01l-3.027-0.717l-3.51,0.38l-2.281,2.768
		h-1.518l-4.259,1.753l0.32,0.959l-4.569,1.018l-7.624,1.421l-0.104,0.03c-1.568,0.472-3.921,1.17-4.245,1.251
		c-0.168,0.042-0.68,0.17-4.536,1.898l-0.28,0.126l-5.58,4.961l0.584,5.852c-0.857,1.374-1.104,2.396-0.779,3.254
		c0.049,0.661-0.005,2.626-0.093,4.214l-0.003,3.105l-0.655,0.655l-2.032,2.659l-0.806,4.566l-0.895,1.986l-2.001,2.002
		c-1.364,0.851-2.928,1.808-3.21,1.952c-0.305,0.152-0.871,0.436-3.427,3.418l-0.171,0.2l-2.723,0.276l-2.58,0.704l-0.019,0.268
		c-0.34-0.006-0.761-0.011-1.233-0.011c-1.599,0-2.93,0.058-3.954,0.171c-0.505,0.056-1.099,0.173-1.761,0.339l-0.02-0.066
		l-1.512,0.498l-1.457,0.438l0.016,0.053c-1.155,0.414-2.018,0.773-2.063,0.792l-0.106,0.045l-3.813,2.146l-4.596,0.461
		c-0.481,0.028-4.771,0.289-6.982,0.979c-1.848,0.578-5.24,2.132-6.305,2.627l-0.271,0.026c-1.112,0.104-3.428,0.325-4.445,0.434
		c-0.286-0.144-0.815-0.587-1.199-1.008l-2.79-4.11l-2.967-0.675l-1.789-1.933l-0.991,0.1c-0.005,0-0.521,0.051-1.312,0.051
		c-1.265,0-3.131-0.124-4.839-0.716c-2.303-0.797-4.963-3.366-5.792-4.287l-0.092-0.103l-1.805-1.527l-2.321-1.856l-1.693-2.435
		l-1.748-5.742l-2.63-4.983l-6.815-7.459l-1.6-2.457c-0.224-0.324-0.524-0.841-0.647-1.131c0.046-0.658-0.21-1.785-2.434-4.285
		l-0.054-0.061l-2.099-2.004l2.799-2.801l0.468-3.274l-0.51-0.667c0,0-1.665-2.178-3.587-4.611
		c-1.372-1.738-3.092-4.868-3.767-6.134l-0.205-0.383l-0.499-3.499l-0.608-1.391l0.374-0.686l1.19-3.422l-0.006-0.356
		c-0.044-2.506-0.127-7.402-0.127-7.993v-3.898l1.36-4.335h-0.627l0.252-1.961l0.291-0.522l0.237-1.272l0.344-1.319l0.329-1.085
		l-0.269-3.915l-0.766-0.069l1.447-2.081l-0.034-1.084l0.227-0.397l0.04-1.88l0.185-1.596l-0.396-0.468l4.554-6.623l1.003-6.735
		l-0.851-5.95l-4.22,0.844l-1.056,0.493l-1.161-0.851l-2.504-1.002h-5.017l-2.978-0.638l-3.007-2.044l-5.336-2.399l-3.033-1.213
		c-0.558-1.375-1.088-2.7-1.164-2.917c-0.087-0.259-0.205-0.611-2.7-4.31v-2.535l-1.752-3.505c-0.183-0.791-0.762-2.798-2.214-4.383
		c-0.244-0.266-0.52-0.544-0.817-0.831l0.035-0.047l-1.048-0.892l-1.288-1.163l-0.031,0.041l-0.756-3.024l-0.539-0.423
		c0,0-1.803-1.417-3.349-2.576c-0.695-0.521-2.467-3.237-3.719-5.496l-2.51-6.401c-0.155-0.381-1.554-3.766-2.854-5.354
		c-1.324-1.62-4.255-3.427-4.585-3.628l-0.38-0.228l-0.433-0.051c-0.657-0.077-1.513-0.341-1.686-0.487
		c-0.469-0.625-1.374-2.39-1.833-3.355l-0.575-1.208l-5.651,0.297l-2.494-1.247l-3.048,0.795l-4.052-1.5l-1.806,1.805l-2.826,0.771
		l-3.742,3.912v1.63l-0.878,1.098l-0.458,2.175l-1.455,1.143l-1.151,1.688l-0.312-0.136l-3.44-2.548l-3.475-1.529l-2.792-0.931
		l-2.776-2.293l-2.345-1.34l-2.913-5.178v-2.694l-1.879-4.337l-3.625-5.854l-3.139-2.047l-6.036-5.91
		c-0.87-0.936-3.884-4.038-6.139-4.638c-0.703-0.283-2.657-2.56-4.099-4.776l-0.542-0.832l-13.157-0.969l-13.68-0.147l-0.841,6.221
		l-0.151,0.378l-5.444-0.184l0-0.001L84.91,28.407l-1.576-1.05l-0.151-0.068c-0.94-0.423-23.058-10.372-26.417-11.535
		c-2.114-0.732-12.071-5.542-20.488-9.699l0.68-1.298V0.841l-2.021,0.021c-0.003,0-5.257,0.057-9.814,0.057
		c-2.628,0-4.483-0.019-5.512-0.055C16.094,0.738,2.312,0.106,2.174,0.1L0,0l0.159,4.151l1.024,2.757l0.937,1.381l-0.265,2.587
		l2.062,2.52L2.71,14.925l0.61,3.867l1.893,2.12l2.354,3.505l0.26,4.994l2.762,3.469l0.444,5.199L12.491,40l0.538,3.117l0.195,2.736
		l1.162,4.938l1.742,2.13l2.523,1.113l1.386,0.765l1.745,2.367l2.079,1.329l1.563,3.735l1.966,0.715l0.211,0.739l1.701,2.145
		l1.587,2.04l0.871,2.438l1.488,0.441l0.162,1.001l0.542,1.182l-0.458,2.243l-0.238,1.951l-1.153,1.043l-0.408,1.123l-2.142,0.182
		l0.654,0.747l-1.02,0.611l-0.316,0.374h-0.945l-1.893-0.315l-1.651-0.708l-1.446-0.459l-0.905-0.314l-0.385-0.769l0.338-1.351
		l0.966-1.08l0.078-2.253l-0.463-4.247l-3.635-0.68l-1.402,2.503l-0.726,1.517l-0.026,0.485l-0.17,0.155l-0.222,0.411l-1.619,0.911
		l0.836,3.063l0.467,0.156l-0.411,2.257l1.9,1.755l1.455,0.182l0.304,0.798l1.475,2.655l1.736,0.347l0.534,0.4l0.483,0.966
		l2.271,1.916l0.716,0.752l0.179,2.029l2.695,3.657l2.811,0.081l0.403,0.179l1.108,1.214l1.408,1.32l1.567,0.495l0.105,1.366
		l2.075,1.186l2.462,2.203l1.517-1.516h0.01l1.114,0.594l0.67-0.112c0.127-0.021,0.547-0.103,1.05-0.322l0.569,0.285l0.175-0.07
		l0.426,1.987l2.523,2.906l2.614,2.338l3.446,2.344l1.557,0.687l0.255,0.692l2.142,2.837l0.054,3.425l0.098,1.442l-0.857,0.743
		l-0.431,1.721l0.131,1.224l-0.913,0.963l-1.74,3.535l-1.116,3.834l1.702,1.986l0.487,0.372l0.068,0.631l0.456,1.734l2.487,1.841
		l0.869-0.097l-0.064,1.03l1.34,1.489l1.393,1.991l2.085,0.417l4.751-0.712c0.378,0.255,1.023,0.724,1.634,1.193l1.751,1.57
		l1.966,1.965l2.42,2.542l1.621,2.499l2.284,1.714l2.271,0.896l1.623,1.67l0.608,1.731l0.316,2.724l1.12,3.358l2.07,2.834
		l3.124-0.313l1.601-1.602l1.22-0.585l2.053-0.808l1.88-1.691l1.025-2.478l0.431-2.586l-0.65-2.229l-1.275-2.061l-1.879-0.917
		l-0.112-1.675l-1.045-1.308l-0.427-0.335l-0.017-0.138l-0.059-1.001l0.529,0.098l1.076-2.956l-0.996-1.867l-0.555-0.443
		l-0.326-1.07l-1.127-0.954l-3.051-2.22l-0.665,2.99c-0.483-0.373-0.951-0.643-1.418-0.816c0.179-0.475,0.296-1.046,0.349-1.709
		l0.173-2.16h-0.789l0.132-0.331l-2.971-3.269l-0.302,0.207l-0.1-0.967l0.544-0.966l-0.771-2.443l-1.762-1.09l-0.749-0.32
		l-2.392-1.116l-0.013-0.058l-0.867-0.636l-0.129-0.998v-1.558l-0.118-0.744l3.265,1.089l1.719-3.246l-1.128-2.13l-3.519-2.72
		l-0.383,0.996l-0.126-0.363l-0.554,0.208l0.218-2.065l-1.425-5.554l-3.323,3.229l-0.153-0.427c-0.012-0.095-0.024-0.21-0.031-0.312
		c0.052-0.251,0.128-0.693,0.249-1.538l0.074-0.519l-0.481-1.237l0.043-0.868l0.134-3.33l-1.763-0.32l-0.063-1.074l-1.964-2.747
		c-1.707-2.246-2.494-2.359-2.964-2.426l-0.712-0.103l0.135-0.165l-0.386-2.187l0.612-0.408l-0.513-2.91l-1.727-1.22l-0.342-0.114
		c-0.036-0.186-0.085-0.375-0.155-0.568c-0.435-1.198-1.363-1.775-1.917-2.12c-0.122-0.076-0.247-0.148-0.36-0.238
		c-0.153-0.123-0.297-0.309-0.481-0.544c-0.194-0.25-0.414-0.532-0.708-0.826c-0.888-0.891-1.97-1.364-2.943-1.771l-0.289-1.096
		l-1.502-0.826l-0.042-0.079l0.037-0.966l0.124-0.843l0.151-2.193L56,77.869l-0.65-0.799l0.122-0.293l0.473-1.315v-0.41l1.878-1.878
		l0.837,0.418l3.525-1.762l1.337-0.222l0.714-1.985l0.501,0.451l0.947,1.127l0.481,1.986l2.582,3.912l3.633,1.877l1.457,3.555
		l2.798,2.937l2.23,2.379l3.595,1.348l0.465-2.016l0.137,0.104l1.087,0.747l-1.162,1.453l-0.422,3.797l-1.898,0.584l2.606,6.083
		l3.189-1.305l0.61,0.534l3.342,1.162l2.296,0.738l-0.744,1.986l3.803,5.325l4.931-0.247l0.865,1.597l0.026,0.255l-2.043,8.171
		l0.91,4.001l1.046,0.761c-0.032,0.456-0.037,0.98,0.028,1.498l0.17,1.36l2.646,0.662l2.2,1.1l1.214,0.441l-0.439,0.195l4.378,2.433
		l2.16,2.304l1.064,0.177l0.152,2.891l1.182,0.833l0.6,1.246l2.918,2.27l1.983,3.257l-0.685,0.342l1.502,1.001l0.873,1.434
		l0.284-0.663l4.266,2.844l2.28,2.185l1.463,1.921c0.736,0.967,1.627,2.21,1.866,2.636c0.243,0.792,0.856,1.493,4.299,2.89
		c0.157,0.217,0.315,0.433,0.474,0.648c0.531,0.723,1.033,1.405,1.452,2.102c0.282,0.469,0.532,0.969,0.797,1.497
		c0.343,0.686,0.698,1.394,1.156,2.104c0.205,0.318,0.426,0.631,0.67,0.935c0.632,0.789,1.373,1.297,2.027,1.745
		c0.478,0.326,0.891,0.609,1.149,0.927c0.307,0.375,0.606,0.759,0.906,1.143c0.508,0.648,1.018,1.3,1.557,1.92
		c0.077,0.092,0.247,0.314,0.473,0.609c1.612,2.094,2.542,3.225,3.25,3.825l0.334,3.123l1.46,3.044l-0.125,2.758l2.701,6.303
		l1.791,1.239l0.728,1.163l-0.191,4.497l-2.216,1.883l-1.93,4.137l3.911,1.778l0.112,0.281l-1.092,0.064l-2.725,0.511l-3.062,2.809
		l2.019,4.036l0.13,2.348l2.548,4.497l4.045,3.784l3.637,4.849l4.014,1.864l1.039,0.519c1.15,0.573,2.337,1.164,3.332,1.823
		c0.017,0.026,0.032,0.053,0.048,0.078c0.185,0.299,0.494,0.799,1.083,1.185c0.852,0.557,1.728,0.621,2.313,0.621
		c0.163,0,0.327-0.005,0.491-0.012c0.114-0.004,0.229-0.009,0.343-0.009c0.065,0,0.112,0.002,0.14,0.002
		c0.021,0,0.031-0.001,0.03-0.005c0.705,0.405,1.529,0.938,2.06,1.331l2.354,1.739l0.679,2.713l1.934,1.031l0.729,2.672l2.415,1.68
		v0.001l1.369,0.953l0.003,0.001l1.62,1.127l0.005-0.631l5.897,1.799l2.146,1.475l4.008,0.69l3.958,1.188l0.331,0.01l3.218,0.103
		l4.688,3.727l1.555,0.605l0.347,1.737l2.716,1.528c3.629,2.778,4.437,3.187,5.016,3.246c0.643,0.224,2.73,1.113,4.45,1.877
		l0.169,0.075l5.21,1.24c0.201,0.128,0.401,0.257,0.603,0.387c0.638,0.411,1.277,0.823,1.937,1.196
		c1.142,0.646,1.613,1.202,2.657,2.429c0.583,0.688,1.618,1.124,3.13,1.711c0.236,0.091,0.441,0.17,0.579,0.229l0.576,0.253
		l1.791-0.358l1.977-0.188l1.768,0.937l2.63,0.928h2.431l2.879,0.596l1.82,1.926l1.6,1.319l-0.219,0.721l1.317,0.183l1.512,1.246
		l0.302-0.994l3.01,0.418l1.857,0.929l4.643,3.336l1.885-0.353l0.723,2.166l4.273-1.114l2.739,0.608l5.284,2.578l1.647,0.253
		l1.9,0.95l5.839,0.153l4.612-2.593l3.752-2.421l5.272-1.507l3.291-1.763l6.402,0.159l0.106-0.955l1.983,0.248l2.141,0.45
		l6.533,2.841l0.514-0.258l-0.045,0.045l7.342,3.479l4.684,2.641l8.156,7.905l8.095,8.674l3.094-1.328l0.725-2.895l-0.46-2.76
		l0.015,0.002l1.856-2.783l-0.259-3.119l-1.754-1.315l1.851-3.812l3.894-7.23h19.096l1.969-2.301l-0.502-3.017l1.458-1.591
		l-1.083-4.599l-2.855-0.26l-0.59-2.161l-3.06-2.143l-3.026-2.593l-1.992-0.332c-0.389-0.528-0.939-1.172-1.601-1.677l3.267-0.467
		l0.411-3.911l0.546-3.272l-0.056-0.5l21.313-1.499l7.013,0.719v-2.362c0.725,0.201,1.514,0.377,2.058,0.377
		c0.228,0,0.436-0.024,0.633-0.074c0.324-0.081,1.312-0.327,2.504-2.312l0.173-0.288l0.457-2.169l1.039-1.038l0.531-0.917
		l2.29,0.819l2.05-3.039l0.111,0.613l2.291-0.654l0.147,3.41l3.654,1.218l3.128-5.705l0.576-3.318l0.484-3.389l0.781-2.342
		l0.946-1.759l0.625-2.966l-0.161-2.727l0.382-0.191l0.541-4.326l-2.31-1.54l0.24-2.296l0.454-3.178l2.085-3.545l0.339,3.401
		l3.895-0.835l1.153-2.853l3.084-3.085l0.387-3.865H441.153z M83.901,142.615c-0.71-0.244-1.023-0.351-1.324-0.555
		c-0.002-0.251-0.041-0.542-0.127-1.131c-0.026-0.178-0.052-0.348-0.064-0.457c-0.003-0.244-0.041-0.543-0.429-1.522l0.895-0.656
		l0.175-0.7l0.188,1.313l0.642,1.284l-0.417,0.974l0.872,1.495l0.092,0.139C84.251,142.741,84.014,142.654,83.901,142.615z
		 M46.03,63.138l0.646,0.604l0.105,0.19l-0.633,0.091l-0.03-0.635L46.03,63.138z M33.052,44.463l0.122-0.471l0.016-0.153
		c0.163-1.627,0.357-3.473,0.414-3.864c0.089-0.374,0.136-0.828-0.46-2.928l-0.359-1.746l0.16-1.07v-2.567l-0.939-1.331L31.49,28.58
		l-0.369-1.948l0.183-1.418l0.827-2.125l0.571-1.795l-0.034-0.892l4.476,4.152l0.2,0.114c0.422,0.241,1.906,1.028,3.286,1.028
		c1.235,0,2.187-0.521,2.748-1.083l0.495-0.371l0.364,0.334v0.466l0.392,2.878l3.35,0.837l2.087,1.167l2.462,0.856l0.205,0.308
		l-0.119,0.696l-1.146,0.917l0.034,1.003c0,0,0.123,3.59,0.127,3.882c0,0.132,0,0.313,0.333,3.046l0.086,0.708l1.47,1.409
		l0.042,0.832l1.828,4.347v2.05l0.615,2.107l0.787,1.154v0.934l0.865,2.473l2.195,0.836c-0.168,0.299-0.36,0.622-0.363,0.626
		l-0.351,0.597l0.372,2.73l-1.045,0.653l-0.564,2.821l-2.146,1.227l0.758,1.626l-1.275,1.02l-1.396-0.644l-1.73,2.473l-0.147-0.515
		l0.148-1.406l-0.631-1.263l0.068,0.013l0.719-0.576c0.521-0.417,1.604-1.285,1.118-2.67l-0.479-1.342h-0.241l0.098-0.562v-2.938
		l-2.444-1.222l-0.777-0.086l0.216-1.118l-1.356-2.087l-2.35-2.583l-3.376,1.477l-0.19,1.523l-1.414-2.138l-2.393-2.659
		l-1.693-1.697l-0.813,0.076l-0.18-1.803l-1.66-1.763L33.052,44.463z M371.412,236.747c-0.401,0.356-0.698,0.666-0.886,0.924
		c-0.204,0.229-0.936,0.909-1.657,1.558l-0.287,0.028c-1.488-0.357-1.909-0.357-2.054-0.357c-0.188,0-0.372,0.022-0.549,0.067
		v-0.044l2.454-0.429l2.264-2.192l-0.008-0.036L371.412,236.747z M272.229,143.092l1.223-0.386l0.378,0.162l-1.545,0.817
		C272.269,143.488,272.263,143.292,272.229,143.092z M273.975,131.183v-0.421h0.357l0.511-0.511l0.31,2.792l-0.24-0.284
		l-1.029,1.718l-0.387-0.773l0.13-1.94l-0.204-0.382L273.975,131.183z"/>
	<path class="st1" d="M176.881,187.302l-0.328-1.393l-2.076-1.625c-0.085-0.067-0.143-0.164-0.162-0.271l-0.382-2.198
		c-0.016-0.089-0.003-0.181,0.035-0.262l0.694-1.476l-0.635-2.223l-0.937-0.072c-0.049-0.004-0.097-0.016-0.143-0.035l-1.529-0.669
		c-0.12-0.053-0.21-0.156-0.246-0.282l-0.686-2.4l-2.329-0.321l-1.68,1.061c-0.083,0.052-0.181,0.075-0.278,0.066l-0.956-0.096
		c-0.186-0.019-0.34-0.153-0.384-0.335l-0.574-2.389c-0.028-0.118-0.007-0.242,0.059-0.343l1.355-2.077l-0.079-1.43l-1.345-1.598
		l-2.678-0.714h-1.818l-0.381,1.22c-0.021,0.068-0.059,0.13-0.109,0.18l-0.36,0.36l-0.085,1.363
		c-0.006,0.09-0.039,0.177-0.095,0.247l-1.007,1.259l0.498,1.828l0.542,0.904c0.057,0.096,0.076,0.209,0.053,0.318l-0.287,1.338
		c-0.047,0.221-0.251,0.371-0.478,0.345l-2.58-0.287l-1.719-0.211l0.334,3.119l1.529,3.186l-0.127,2.803l2.294,5.352l1.657,1.147
		l1.274,2.039l-0.255,5.989l-2.549,2.166l-0.892,1.911l2.253,1.024l0.384-0.157c0.057-0.023,0.116-0.034,0.179-0.033l0.901,0.025
		l1.681-2.566c0.056-0.086,0.14-0.149,0.239-0.18l1.242-0.382c0.042-0.013,0.085-0.019,0.129-0.019h1.705l0.824-0.989
		c0.098-0.118,0.25-0.177,0.405-0.153l1.242,0.191c0.042,0.006,0.083,0.019,0.121,0.037l1.816,0.86
		c0.089,0.042,0.161,0.113,0.205,0.201l1.16,2.319l1.926,0.613c0.067,0.021,0.128,0.058,0.178,0.108l1.507,1.507l0.313-0.139
		l-0.085-2.475c-0.001-0.033,0.001-0.065,0.007-0.096l0.287-1.529c0.013-0.068,0.041-0.132,0.083-0.186l1.243-1.625l1.74-2.017
		l0.178-1.868l0.083-1.848l-2.49-1.868c-0.129-0.097-0.194-0.256-0.171-0.415L176.881,187.302z"/>
	<path class="st2" d="M210.437,183.413l-0.261-2.343l-0.933-0.467c-0.073-0.041-1.193-0.697-1.716-1.207
		c-0.137-0.065-0.631-0.148-1.083-0.182c-0.154-0.011-0.291-0.103-0.361-0.242l-0.632-1.265l-0.339,0.467
		c-0.087,0.12-0.238,0.189-0.375,0.18l-1.808-0.082l-0.449,0.974c-0.052,0.113-0.149,0.198-0.268,0.235l-1.3,0.406l-0.701,2.54
		c-0.025,0.092-0.079,0.172-0.154,0.23l-1.58,1.229l-0.166,1.162c-0.003,0.023-0.009,0.046-0.015,0.068l-0.759,2.446l0.846,0.52
		h0.893l1.516-0.981c0.129-0.083,0.292-0.093,0.429-0.027l2.389,1.147c0.026,0.013,0.05,0.028,0.074,0.045l1.777,1.333l1.818-0.158
		l1.89-2.88c0.024-0.037,0.054-0.07,0.088-0.098l2.167-1.79l0.501-0.602c-0.333-0.084-0.756-0.188-1.152-0.282
		C210.591,183.749,210.457,183.598,210.437,183.413z"/>
	<path class="st2" d="M263.502,223.435c-0.016,0-0.031-0.001-0.047-0.003l-1.784-0.191c-0.091-0.01-0.176-0.047-0.244-0.107
		l-1.083-0.956l-0.051-0.051l-1.447,1.52l0.121,0.667l1.11,0.872l0.929,0.113c0.138,0.017,0.261,0.099,0.33,0.22l0.753,1.333
		l1.26,0.516c0.027,0.011,0.053,0.025,0.077,0.041l2.102,1.402c0.034,0.022,0.064,0.049,0.09,0.08l1.41,1.645l0.539,0.038
		l1.713-1.359c0.083-0.066,0.187-0.096,0.292-0.095l2.653,0.113l0.284-0.947c0.052-0.171,0.201-0.294,0.379-0.311l1.647-0.159
		l0.158-0.826l-0.633-0.859l-1.284,0.108c-0.078,0.005-0.155-0.007-0.225-0.041l-1.21-0.574c-0.106-0.05-0.188-0.141-0.227-0.252
		l-0.897-2.572l-1.667-0.833l-2.926-0.117l-1.846,1.489C263.699,223.4,263.602,223.435,263.502,223.435z"/>
	<path class="st3" d="M175.854,177.31l0.94-4.888l0.095-3.786c0-0.023,0.003-0.046,0.007-0.069l0.669-3.632l0.379-2.939
		c0.006-0.043,0.018-0.085,0.036-0.126l0.956-2.102c0.034-0.075,0.088-0.139,0.156-0.184l1.364-0.909l0.812-1.173
		c0.095-0.137,0.258-0.209,0.424-0.185l1.392,0.199l-0.352-1.758l-0.758-2.464c-0.036-0.118-0.021-0.245,0.041-0.352l1.625-2.772
		c0.027-0.046,0.063-0.087,0.105-0.121l0.912-0.73l1.4-1.867c0.054-0.071,0.128-0.125,0.213-0.153l1.542-0.514l0.684-1.454
		c0.035-0.074,0.09-0.137,0.159-0.182l1.625-1.051c0.085-0.054,0.185-0.078,0.285-0.068l3.632,0.382l3.555,0.092l2.654-0.442
		l1.061-1.388l0.366-3.561l-0.175-1.924l-1.568-1.895l-0.438,3.212c-0.007,0.048-0.021,0.094-0.043,0.137l-1.147,2.294
		c-0.057,0.115-0.162,0.199-0.287,0.23c-0.124,0.031-0.257,0.006-0.361-0.069l-2.614-1.867l-2.603-0.744
		c-0.08-0.023-0.152-0.068-0.208-0.131l-1.529-1.72c-0.049-0.055-0.083-0.121-0.1-0.193l-0.543-2.35l-1.808-1.628
		c-0.052-0.047-0.092-0.106-0.117-0.171l-0.669-1.768c-0.019-0.05-0.029-0.103-0.029-0.156v-4.349c0-0.135,0.062-0.263,0.169-0.346
		l2.115-1.655l1.03-2.232l-1.285-3.946c-0.043-0.131-0.022-0.273,0.056-0.386l1.188-1.718l-1.559-3.009l-4.804-4.065l-7.083-0.908
		l-2.331,2.869l-2.312,2.506c-0.102,0.111-0.252,0.159-0.402,0.134l-2.103-0.382c-0.126-0.023-0.235-0.1-0.3-0.21l-1.649-2.803
		l-1.896,1.58c-0.13,0.108-0.31,0.133-0.463,0.062l-2.007-0.912l-4.291,0.186c-0.105,0.005-0.211-0.029-0.294-0.095l-3.674-2.94
		l-1.15,0.164c-0.089,0.013-0.178-0.002-0.259-0.042l-2.555-1.278l-2.461,0.328l-0.678,2.033c-0.014,0.042-0.034,0.081-0.059,0.117
		l-0.874,1.223v1.771c0,0.207-0.145,0.386-0.346,0.43l-3.97,0.863l0.867,4.161c0.028,0.135-0.009,0.275-0.1,0.379l-1.245,1.424
		l-0.368,3.683c-0.013,0.128-0.081,0.243-0.186,0.317l-1.911,1.338c-0.074,0.051-0.162,0.079-0.252,0.079c-0.005,0-0.01,0-0.015,0
		l-5.02-0.173l0.027,0.769l0.095,8.419l1.068,2.225l2.231,2.045c0.01,0.009,0.02,0.019,0.029,0.029l1.816,2.007
		c0.01,0.011,0.019,0.022,0.028,0.034l1.338,1.816c0.037,0.051,0.064,0.109,0.076,0.171l0.478,2.294l0.407,1.38l1.101,0.413
		l1.204-0.883l0.734-0.825c0.126-0.142,0.329-0.187,0.504-0.111l2.198,0.956c0.029,0.013,0.056,0.028,0.081,0.046l2.389,1.72
		c0.062,0.045,0.112,0.105,0.143,0.175l1.434,3.154c0.04,0.087,0.05,0.186,0.028,0.279l-0.469,2.064l-0.088,2.022l0.884,1.413
		c0.055,0.088,0.077,0.193,0.062,0.295l-0.168,1.178l1.061,1.679l1.346,2.307c0.023,0.04,0.04,0.083,0.05,0.128l0.454,2.09
		l0.964,1.125l2.86,0.358h2.173c0.038,0,0.076,0.005,0.113,0.015l2.867,0.765c0.087,0.023,0.165,0.073,0.223,0.141l1.529,1.816
		c0.061,0.073,0.097,0.164,0.103,0.259l0.096,1.72c0.005,0.093-0.02,0.186-0.071,0.264l-1.33,2.04l0.457,1.902l0.494,0.049
		l1.688-1.066c0.088-0.055,0.192-0.077,0.295-0.064l2.772,0.382c0.173,0.024,0.315,0.147,0.363,0.315l0.708,2.477l1.271,0.556
		l1.168,0.09c0.183,0.014,0.339,0.141,0.389,0.317l0.425,1.488L175.854,177.31z"/>
	<path class="st3" d="M260.431,204.571c0.044-0.176,0.191-0.307,0.372-0.329l1.272-0.159l0.477-1.193
		c0.049-0.122,0.149-0.215,0.273-0.255c0.125-0.04,0.261-0.022,0.371,0.047l1.01,0.643l0.893,0.319l0.389-0.974l0.091-1.648
		c0.002-0.035,0.008-0.069,0.018-0.102l0.48-1.6l-0.876-0.584c-0.097-0.065-0.164-0.165-0.187-0.28l-0.249-1.245l-0.785,0.56
		c-0.119,0.085-0.272,0.106-0.409,0.054l-1.529-0.573c-0.121-0.046-0.216-0.142-0.259-0.263l-0.756-2.098h-1.352
		c-0.14,0.605-0.258,1.246-0.274,1.545c0.102,0.072,0.098,0.17,0.094,0.323c-0.009,0.274-0.305,0.473-0.564,0.413
		c-0.398-0.036-2.518-0.181-3.933-0.275c-0.137-0.009-0.261-0.081-0.337-0.195l-0.626-0.938l-0.826,0.044l0.377,0.612
		c0.058,0.094,0.078,0.208,0.057,0.317l-0.382,1.911c-0.033,0.165-0.158,0.297-0.32,0.339l-2.198,0.573
		c-0.129,0.034-0.264,0.007-0.371-0.071l-0.968-0.71l-0.559,1.468c-0.02,0.053-0.05,0.1-0.088,0.142l-1.085,1.175l-0.812,2.346
		l-0.186,2.239c-0.014,0.166-0.121,0.31-0.275,0.371l-3.613,1.445l-1.03,4.204l1.968,1.722h2.415c0.174,0,0.332,0.103,0.402,0.263
		l1.815,4.171l0.853,0.114l0.921-2.176c0.064-0.151,0.208-0.254,0.371-0.267l2.485-0.191c0.039-0.002,0.077-0.001,0.115,0.006
		l1.529,0.287c0.208,0.039,0.359,0.22,0.359,0.432v2.538l0.28,0.4l1.254-1.328c0.108-0.114,0.267-0.161,0.42-0.126l1.625,0.382
		c0.07,0.016,0.135,0.05,0.189,0.097l1.529,1.338c0.071,0.062,0.121,0.146,0.14,0.238l0.26,1.211l0.259,0.258l0.958,0.845
		l1.464,0.157l1.637-1.321l-0.218-1.472c-0.013-0.087,0.001-0.176,0.039-0.255l0.828-1.72l0.954-1.849l-0.39-1.948l-1.435-1.435
		c-0.126-0.126-0.164-0.316-0.095-0.48l0.319-0.765c0.057-0.137,0.18-0.236,0.326-0.263l2.162-0.398l0.366-1.151
		c0.029-0.09,0.085-0.168,0.162-0.224l1.406-1.012l-0.022-1.162l-0.779-0.3l-1.198,0.639l-1.961,1.961
		c-0.024,0.024-0.051,0.045-0.079,0.063l-2.007,1.242c-0.111,0.069-0.247,0.085-0.37,0.043l-1.434-0.478
		c-0.134-0.044-0.238-0.15-0.28-0.284l-0.573-1.816c-0.045-0.143-0.015-0.299,0.081-0.414c0.677-0.812,1.066-1.118,1.299-1.235
		c0-0.047-0.003-0.105-0.008-0.165l-1.548-0.078c-0.131-0.006-0.253-0.072-0.331-0.177c-0.078-0.106-0.105-0.241-0.073-0.368
		L260.431,204.571z"/>
	<path class="st1" d="M225.869,145.537l-1.942,0.882l-0.699,1.748l-0.759,2.089c-0.01,0.029-0.024,0.056-0.04,0.082l-1.72,2.772
		c-0.019,0.031-0.042,0.059-0.069,0.085l-2.676,2.58c-0.045,0.044-0.099,0.077-0.159,0.098l-3.042,1.074l-0.412,1.319
		c-0.055,0.175-0.213,0.298-0.396,0.308l-1.524,0.08l-0.761,2.115c-0.02,0.056-0.051,0.107-0.092,0.151l-1.338,1.434
		c-0.059,0.064-0.135,0.108-0.219,0.128l-2.007,0.478c-0.092,0.022-0.188,0.014-0.275-0.024l-0.968-0.415l-0.478,0.888
		c-0.016,0.029-0.035,0.056-0.056,0.081l-0.431,0.493l0.735,0.956c0.044,0.056,0.073,0.122,0.085,0.193l0.382,2.198
		c0.007,0.04,0.009,0.081,0.004,0.121l-0.17,1.613l1.851,1.939l1.99,1.706c0.016,0.014,0.032,0.029,0.046,0.045l1.911,2.198
		c0.022,0.026,0.042,0.054,0.057,0.084l0.819,1.556l0.564-0.051l1.316-1.755c0.055-0.073,0.132-0.128,0.219-0.155l1.816-0.573
		c0.049-0.015,0.099-0.021,0.151-0.02l2.294,0.096c0.128,0.006,0.247,0.066,0.327,0.167l1.434,1.816
		c0.073,0.092,0.106,0.209,0.091,0.326c-0.014,0.116-0.074,0.222-0.167,0.294l-0.86,0.669c-0.03,0.023-0.062,0.042-0.097,0.057
		l-0.322,0.138c0.263,1.008,0.602,2.295,0.661,2.473c0.082,0.245,0.057,1.299-0.074,3.133c-0.003,0.032-0.009,0.065-0.018,0.096
		l-0.877,2.895l1.683,1.603h2.405c0.115,0,0.225,0.045,0.307,0.125l3.781,3.689l3.343-0.172c0.393-0.475,0.807-1.012,0.984-1.29
		c-0.002-0.045,0.003-0.093,0.01-0.148c0.029-0.218,0.242-0.388,0.463-0.388c0.121,0,0.231,0.043,0.316,0.118
		c0.283,0.096,0.945,0.287,1.536,0.45l1.734-0.182c0.178-0.017,0.351,0.073,0.435,0.233l0.862,1.638l3.999,0.936l0.978-1.466
		c0.088-0.132,0.238-0.205,0.399-0.195l1.242,0.096c0.133,0.01,0.253,0.08,0.329,0.189l0.947,1.378l2.071,0.37l0.298-1.489
		c0.024-0.121,0.099-0.227,0.205-0.291l2.389-1.434c0.129-0.077,0.288-0.083,0.423-0.016c0.134,0.067,0.225,0.198,0.241,0.348
		l0.187,1.772l0.548,1.735l0.614,1.151l1.537-0.081c0.165-0.01,0.303,0.066,0.389,0.195l0.644,0.967
		c0.35,0.024,1.074,0.072,1.799,0.122c0.642,0.044,1.116,0.076,1.463,0.109c0.03-0.382,0.13-0.975,0.367-1.92
		c0.049-0.196,0.225-0.333,0.426-0.333h1.444l-0.225-0.901l-1.671-2.321c-0.115-0.16-0.11-0.378,0.013-0.532l1.132-1.415
		l1.162-1.826l-0.678-0.903c-0.057-0.076-0.088-0.169-0.088-0.264v-1.72c0-0.202,0.137-0.377,0.333-0.426l1.253-0.313l0.237-1.344
		c0.026-0.146,0.124-0.269,0.26-0.327l1.131-0.485l0.055-0.248l-2.007-0.642c-0.062-0.02-0.12-0.054-0.167-0.099l-1.559-1.467
		l-1.839-0.669l-1.742,0.871c-0.089,0.045-0.19,0.058-0.289,0.037l-5.352-1.147c-0.125-0.027-0.233-0.107-0.294-0.22l-2.431-4.488
		l-2.066-1.328l-0.425,1.699c-0.029,0.117-0.105,0.216-0.21,0.276c-0.104,0.059-0.229,0.073-0.345,0.038l-4.396-1.338
		c-0.027-0.009-0.054-0.019-0.079-0.033l-2.867-1.529c-0.117-0.062-0.2-0.175-0.225-0.305c-0.025-0.131,0.01-0.265,0.096-0.367
		l1.96-2.317l-0.445-1.929h-1.371c-0.16,0-0.307-0.087-0.384-0.226l-0.83-1.494h-1.913l-1.807,1.084
		c-0.118,0.07-0.261,0.082-0.388,0.032c-0.127-0.05-0.224-0.156-0.261-0.288l-0.765-2.676c-0.014-0.049-0.019-0.1-0.016-0.15
		l0.373-5.593l-2.792-4.467c-0.05-0.081-0.073-0.176-0.065-0.271l0.37-4.251l-2.106-3.402l-1.041,1.11
		C225.969,145.479,225.921,145.513,225.869,145.537z"/>
	<path class="st4" d="M213.141,183.66c0.335,0.226,1.143,0.716,1.872,1.141l2.63,1.268l1.496-0.15l0.856-2.826
		c0.082-1.17,0.146-2.548,0.106-2.77c-0.09-0.265-0.697-2.603-0.766-2.869c-0.055-0.211,0.053-0.429,0.252-0.514l0.617-0.265
		l0.466-0.362l-1.034-1.31l-2.015-0.084l-1.607,0.508l-1.349,1.799c-0.075,0.099-0.188,0.163-0.312,0.174l-1.051,0.096
		c-0.178,0.014-0.346-0.076-0.429-0.233l-0.932-1.77l-1.857-2.135l-1.982-1.699c-0.011-0.009-0.022-0.019-0.032-0.03l-2.007-2.103
		c-0.089-0.093-0.133-0.221-0.119-0.349l0.185-1.755l-0.353-2.031l-0.89-1.157c-0.128-0.166-0.121-0.4,0.018-0.557l0.636-0.727
		l0.645-1.199c0.108-0.2,0.351-0.285,0.56-0.196l1.204,0.516l1.737-0.413l1.186-1.271l0.83-2.304c0.06-0.167,0.214-0.281,0.39-0.29
		l1.51-0.079l0.387-1.237c0.041-0.133,0.143-0.237,0.273-0.283l3.159-1.115l2.568-2.476l1.667-2.686l0.749-2.06l0.77-1.924
		c0.042-0.105,0.123-0.19,0.226-0.237l2.023-0.919l1.001-1.068l-1.424-0.854l-2.463-1.137c-0.08-0.037-0.148-0.097-0.193-0.173
		l-1.031-1.718l-1.984-0.165l-2.977,0.93c-0.112,0.035-0.234,0.023-0.337-0.031c-0.104-0.055-0.181-0.149-0.215-0.262l-0.503-1.676
		l-2.63-0.701c-0.127-0.034-0.231-0.122-0.286-0.241l-1.079-2.338l-4.697-2.168l-4.047,0.736l-2.009,0.574l1.865,2.253
		c0.057,0.068,0.091,0.152,0.099,0.24l0.191,2.103c0.003,0.028,0.002,0.057-0.001,0.085l-0.382,3.727
		c-0.008,0.081-0.038,0.158-0.088,0.222l-1.242,1.625c-0.068,0.089-0.167,0.148-0.277,0.167l-2.867,0.478
		c-0.028,0.004-0.056,0.005-0.084,0.006l-3.632-0.096l-3.511-0.368l-1.389,0.899l-0.711,1.511c-0.052,0.109-0.145,0.192-0.259,0.23
		l-1.59,0.53l-1.351,1.802c-0.022,0.03-0.048,0.056-0.077,0.079l-0.892,0.713l-1.486,2.535l0.708,2.3
		c0.004,0.014,0.008,0.028,0.011,0.043l0.478,2.389c0.028,0.14-0.014,0.285-0.112,0.388c-0.098,0.103-0.239,0.153-0.381,0.133
		l-1.738-0.248l-0.706,1.019c-0.031,0.046-0.071,0.085-0.118,0.116l-1.329,0.886l-0.877,1.928l-0.374,2.897l-0.666,3.621
		l-0.095,3.788c0,0.024-0.003,0.049-0.008,0.072l-0.956,4.97c-0.006,0.031-0.015,0.061-0.028,0.09l-0.861,2.009l1.671-0.129
		l2.059-1.074l0.896-0.896l-0.55-1.415l-0.934-1.494c-0.061-0.099-0.081-0.217-0.056-0.33l0.478-2.103
		c0.046-0.2,0.223-0.342,0.429-0.342h2.389c0.059,0,0.118,0.012,0.173,0.036l1.338,0.574c0.17,0.073,0.277,0.245,0.266,0.43
		l-0.096,1.625c-0.007,0.114-0.058,0.221-0.142,0.298l-1.033,0.947l-0.165,1.07l-0.264,4.394l0.048,0.012l1.645-3.809l0.374-2.524
		c0.03-0.203,0.197-0.358,0.401-0.374l1.242-0.096c0.178-0.01,0.347,0.081,0.427,0.242l0.382,0.764
		c0.038,0.075,0.053,0.159,0.044,0.243l-0.191,1.816c-0.006,0.055-0.022,0.109-0.048,0.158l-1.023,1.952l-0.48,2.321l1.062,0.332
		l1.393-0.146l0.232-1.391c0.035-0.212,0.219-0.367,0.434-0.367h0.73l0.07-1.329l-0.651-2.417c-0.053-0.196,0.035-0.403,0.214-0.5
		l1.051-0.573c0.136-0.074,0.301-0.071,0.434,0.007l2.103,1.243c0.149,0.088,0.233,0.255,0.213,0.427l-0.143,1.293l0.978,0.13h1.118
		c0.144,0,0.279,0.071,0.361,0.189c0.082,0.119,0.101,0.27,0.05,0.405l-0.828,2.208l0.091,1.724
		c0.006,0.112-0.031,0.222-0.103,0.307l-1.051,1.242c-0.069,0.081-0.165,0.135-0.271,0.151l-2.402,0.356l-2.766,3.658v1.954
		c0,0.057-0.012,0.114-0.033,0.167l-0.669,1.625c-0.072,0.176-0.255,0.285-0.438,0.271l-2.205-0.158v0.329l0.271,0.994
		c0.034,0.123,0.012,0.254-0.058,0.359l-1.093,1.639l-0.098,0.64h1.781c0.107,0,0.212,0.04,0.292,0.111l0.766,0.68l2.742,0.457
		c0.066,0.011,0.128,0.037,0.183,0.076l1.257,0.898l2.707,0.477l0.506-3.377c0.032-0.212,0.212-0.37,0.426-0.374l4.191-0.089
		l0.279-0.768c0.061-0.167,0.216-0.281,0.393-0.289l1.682-0.077v-2.52l-2.029-1.589c-0.083-0.065-0.14-0.157-0.16-0.26l-0.249-1.246
		l-1.079-0.664c-0.171-0.105-0.249-0.313-0.19-0.505l0.85-2.738l0.186-1.304c0.016-0.113,0.075-0.215,0.165-0.285l1.605-1.248
		l0.726-2.631c0.04-0.144,0.15-0.258,0.293-0.303l1.343-0.42l0.492-1.065c0.075-0.162,0.239-0.258,0.419-0.255l1.866,0.085
		l0.626-0.86c0.09-0.124,0.24-0.19,0.392-0.18c0.153,0.013,0.288,0.105,0.357,0.242l0.846,1.691
		c0.717,0.071,1.176,0.203,1.366,0.393c0.359,0.359,1.23,0.9,1.535,1.078l1.122,0.56c0.133,0.066,0.224,0.196,0.24,0.345
		l0.253,2.273C212.745,183.359,213.084,183.452,213.141,183.66z"/>
	<path class="st3" d="M235.102,131.938c-0.038,0.191-0.199,0.335-0.393,0.352l-2.198,0.191c-0.02,0.002-0.04,0.002-0.059,0.001
		l-3.774-0.184l-1.775,1.183l-0.553,1.343l0.281,0.773l1.24,0.974c0.182,0.144,0.222,0.405,0.09,0.596l-0.756,1.093l0.35,1.923
		l0.195,1.652c0.004,0.033,0.004,0.067,0,0.1l-0.174,1.569l2.405,3.885c0.05,0.081,0.072,0.175,0.064,0.27l-0.37,4.25l2.79,4.463
		c0.049,0.078,0.072,0.17,0.066,0.262l-0.377,5.658l0.586,2.051l1.42-0.852c0.068-0.041,0.147-0.063,0.226-0.063h1.873
		c0.054-0.721,0.266-2.081,1.094-2.554c0.097-0.056,0.211-0.072,0.319-0.046l1.475,0.347l-0.347-1.475
		c-0.018-0.076-0.015-0.155,0.008-0.23l0.51-1.656c0.006-0.019,0.013-0.037,0.021-0.055l0.764-1.657
		c0.05-0.108,0.141-0.191,0.253-0.23l2.166-0.765c0.055-0.02,0.114-0.027,0.171-0.025l2.054,0.114l1.337-1.851l-0.85-1.275
		l-1.64-2.143c-0.085-0.111-0.112-0.257-0.073-0.391l0.627-2.131l0.335-2.787l-2.074-0.655c-0.083-0.026-0.156-0.077-0.211-0.145
		l-0.51-0.637c-0.149-0.186-0.122-0.456,0.059-0.61l1.656-1.401c0.037-0.031,0.08-0.056,0.125-0.074l2.23-0.868l1.986-1.613
		c0.078-0.064,0.176-0.099,0.277-0.099h2.318l-0.207-2.065l-0.128-2.055c-0.014-0.222,0.141-0.42,0.36-0.46l1.313-0.239l1.453-0.969
		c0.061-0.041,0.131-0.065,0.204-0.072l2.645-0.24l2.436-2.436l2.237-2.112l0.128-0.299l-1.621-0.286
		c-0.201-0.035-0.351-0.204-0.363-0.407l-0.126-2.143c-0.544-3.271-0.394-4.093-0.202-4.364c-0.079-0.197-0.349-0.586-0.641-0.923
		l-1.615-0.646l-1.344,0.784c-0.134,0.079-0.301,0.08-0.437,0.003l-1.958-1.102l-2.457-0.245c-0.191-0.019-0.348-0.16-0.387-0.348
		l-0.6-2.882l-2.144-1.429c-0.109-0.072-0.18-0.19-0.193-0.32l-0.246-2.335l-0.773-1.435l-1.885-0.706
		c-0.165-0.062-0.277-0.217-0.285-0.394l-0.112-2.702l-1.942-0.323c-0.13-0.022-0.244-0.101-0.309-0.216
		c-0.066-0.115-0.076-0.252-0.029-0.376l1.426-3.684l-1.454-1.454c-0.077-0.077-0.123-0.181-0.128-0.29l-0.115-2.419l-1.554-0.777
		c-0.206-0.103-0.298-0.349-0.209-0.562l0.637-1.529c0.019-0.046,0.046-0.089,0.08-0.126l2.408-2.662
		c0.03-0.04,0.058-0.076,0.087-0.115c-0.428-0.364-0.805-0.667-1.061-0.868c-0.013,0.017-0.023,0.035-0.038,0.05l-1.03,0.999
		l-1.416,1.793c-0.135,0.171-0.376,0.218-0.565,0.108l-1.816-1.051c-0.039-0.023-0.075-0.051-0.105-0.085l-0.727-0.8l-1.569,0.822
		l-0.607,1.388l-0.945,2.648c-0.028,0.078-0.077,0.146-0.141,0.197l-1.816,1.433c-0.037,0.029-0.078,0.052-0.121,0.068l-2.735,1.003
		l-1.292,1.895l-0.098,0.884c0.354-0.202,0.75-0.488,1.016-0.71c0.161-0.133,0.393-0.136,0.556-0.006l0.876,0.701l1.621,0.36
		c0.201,0.045,0.345,0.223,0.345,0.429v2.676c0,0.018-0.001,0.037-0.004,0.054l-0.287,2.294c-0.01,0.081-0.042,0.157-0.093,0.22
		l-1.529,1.911c-0.13,0.162-0.354,0.211-0.54,0.118l-1.246-0.623l-1.4,1.401l-2.884,2.596c-0.012,0.011-0.025,0.022-0.039,0.031
		l-1.166,0.833l-0.07,1.268l0.169,0.121l0.788-0.788c0.149-0.148,0.382-0.171,0.555-0.055l1.147,0.765
		c0.041,0.028,0.078,0.062,0.108,0.102l0.515,0.687l1.347,0.719c0.191,0.102,0.28,0.328,0.208,0.532l-0.649,1.867l0.467,0.292
		c0.107,0.067,0.18,0.176,0.201,0.301l0.287,1.72c0.009,0.053,0.008,0.106-0.003,0.159l-0.342,1.708l1.589,1.942
		c0.021,0.025,0.038,0.053,0.053,0.082l0.649,1.297l2.035,0.085c0.132,0.006,0.255,0.07,0.334,0.176
		c0.079,0.106,0.106,0.242,0.074,0.37l-0.322,1.288l0.759,0.758l1.221,0.082c0.46-0.07,0.986-0.165,1.267-0.231
		c0.108-0.122,0.297-0.201,0.515-0.127c0.172,0.057,0.313,0.232,0.328,0.413c0.145,0.17,0.393,0.434,0.609,0.649
		c0.104,0.104,0.149,0.253,0.12,0.397L235.102,131.938z"/>
	<path class="st4" d="M330.113,250.617l0.866,0.63c0.045,0.033,0.083,0.074,0.113,0.121l1.031,1.633l2.843,0.267
		c0.12,0.011,0.23,0.071,0.305,0.166l1.971,2.508h1.908l1.382-1.276l-0.057-1.71c-0.001-0.051,0.006-0.102,0.021-0.15l0.701-2.166
		c0.01-0.032,0.024-0.062,0.041-0.091l0.956-1.593c0.085-0.141,0.244-0.223,0.406-0.212l2.867,0.191
		c0.087,0.006,0.17,0.037,0.239,0.09l1.656,1.275c0.094,0.072,0.155,0.179,0.168,0.297l0.128,1.083
		c0.019,0.159-0.05,0.316-0.181,0.409l-0.651,0.465l0.25,1.05l0.247,1.417l0.486,0.863l1.698,1.152
		c0.016,0.011,0.031,0.023,0.045,0.035l1.331,1.183l1.509-2.424l2.753-3.907c0.071-0.1,0.18-0.167,0.301-0.182l1.771-0.236
		l0.98-0.923c0.079-0.075,0.184-0.117,0.293-0.119l3.292-0.062l1.133-0.477c0.118-0.05,0.253-0.045,0.367,0.012l1.147,0.573
		c0.108,0.054,0.19,0.151,0.224,0.267l0.109,0.363l0.735,0.091c0.141,0.018,0.265,0.103,0.333,0.228l0.375,0.696l0.96,0.427
		l1.412,0.246c0.202,0.035,0.352,0.205,0.364,0.409l0.128,2.357c0.002,0.032,0,0.065-0.005,0.096l-0.173,1.036l3.005,0.109
		c0.138,0.005,0.265,0.074,0.344,0.187l0.446,0.637c0.045,0.065,0.072,0.14,0.078,0.218l0.047,0.613l0.237,0.155l4.693-0.67
		l0.255-2.421l0.51-3.058l-0.184-1.655l-0.356-0.304c-0.081-0.069-0.134-0.164-0.149-0.269l-0.272-1.795l-1.032-0.197l-2.583-0.314
		c-0.059-0.007-0.116-0.027-0.168-0.057l-2.246-1.31l-1.519-0.434l-1.052,0.802l-0.467,1.461c-0.031,0.098-0.096,0.182-0.183,0.237
		l-0.701,0.446c-0.091,0.058-0.201,0.079-0.308,0.063l-1.529-0.255c-0.048-0.008-0.094-0.024-0.137-0.047l-3.186-1.72l-1.958-0.947
		c-0.072-0.035-0.133-0.089-0.177-0.156l-0.828-1.274c-0.05-0.076-0.075-0.167-0.071-0.258l0.125-3.006l-0.174-0.869h-3.781
		c-0.232,0-0.424-0.18-0.439-0.411l-0.188-2.881l-0.024-0.079c-1.574,0.52-2.918,1.083-2.918,1.083l-4.078,2.294l-5.097,0.51
		c0,0-4.46,0.255-6.499,0.892c-1.736,0.542-5.132,2.1-6.104,2.551L330.113,250.617z"/>
	<path class="st3" d="M355.799,237.141c0.009,0.032,0.015,0.065,0.018,0.097l0.164,2.52h3.73c0.209,0,0.39,0.148,0.431,0.354
		l0.255,1.275c0.007,0.034,0.009,0.069,0.008,0.105l-0.122,2.918l0.685,1.054l1.865,0.902l3.138,1.694l1.291,0.215l0.424-0.27
		l0.461-1.441c0.028-0.086,0.081-0.161,0.152-0.216l1.338-1.019c0.11-0.084,0.253-0.112,0.387-0.073l1.784,0.51
		c0.035,0.01,0.069,0.024,0.101,0.043l2.216,1.292l2.522,0.308l1.367,0.259c0.183,0.035,0.325,0.182,0.352,0.366l0.294,1.94
		l0.216,0.184l22.51-1.582l0-0.001l-0.892-13.699l-0.255-3.694l0.124-13.421l-1.144-1.144l-5.236-5.618l-1.903-1.903l-1.038-0.437
		l-1.11,0.058c-0.095,0.003-0.188-0.021-0.267-0.073l-1.529-1.019c-0.02-0.014-0.039-0.029-0.057-0.045l-0.899-0.843l-1.493-0.057
		c-0.216-0.009-0.395-0.173-0.42-0.388l-0.124-1.059l-0.186-0.805c-0.005-0.022-0.009-0.043-0.01-0.065l-0.071-0.926l-0.255,0.51
		v1.657c0,0-1.147,1.657-0.892,2.039c0.255,0.382,0,4.97,0,4.97v3.823l-1.147,1.147l-1.657,2.166l-0.765,4.333l-1.147,2.549
		l-2.421,2.421c0,0-3.058,1.911-3.568,2.166c-0.51,0.255-2.804,2.931-2.804,2.931l3.058-1.02l2.803-1.529l-1.657,2.549l-1.402,1.274
		c0.765,0.51,0.51,2.166,0.51,2.166s-1.147,0.892-1.402,1.274c-0.255,0.382-2.421,2.294-2.421,2.294l-1.274,0.128
		c0,0-1.529-0.382-1.911-0.382c-0.382,0-1.02,1.274-1.02,1.274l-0.892-0.255l-0.637-1.911l-3.441-0.382l-1.147-1.529l4.587-0.51
		v-1.274c0,0-3.441-0.128-5.734,0.127c-0.723,0.08-1.611,0.3-2.488,0.563L355.799,237.141z"/>
	<polygon class="st3" points="365.126,235.579 365.062,236.471 365.476,236.98 367.483,236.63 368.503,235.642 368.375,235.069 
		366.177,235.292 	"/>
	<path class="st5" d="M259.042,196.325c0.089,0.015,0.161,0.031,0.219,0.048c-0.058-0.04-0.132-0.068-0.219-0.068V196.325z"/>
	<path class="st2" d="M281.66,202.925c0.127-0.637-1.911-2.931-1.911-2.931l-2.803-2.676c0,0-0.51-1.911-1.147-3.695
		c-0.637-1.784-2.294-5.479-2.294-5.479v-3.186l3.695,3.823l1.147,2.166l-0.51,2.549l0.51,1.019l1.656-1.656l0.255-1.784
		c0,0-1.657-2.166-3.568-4.587c-1.458-1.846-3.211-5.024-3.961-6.43c-0.692,0.105-1.355,0.208-1.96,0.302
		c-0.023,0.004-0.046,0.006-0.068,0.006c-0.124,0-0.243-0.052-0.327-0.146c-0.456-0.506-1.856-1.881-2.853-2.165
		c-0.118-0.034-0.217-0.116-0.272-0.226l-0.495-0.99l-1.57-0.571l-0.589,1.179c-0.096,0.191-0.314,0.286-0.519,0.224l-1.688-0.506
		l-1.534,1.255l1.188,1.118l2.294,0.734c0.217,0.069,0.345,0.292,0.295,0.514l-0.191,0.86c-0.031,0.138-0.126,0.253-0.256,0.309
		l-1.12,0.48l-0.245,1.391c-0.03,0.171-0.158,0.308-0.326,0.35l-1.196,0.299v1.23l0.772,1.03c0.11,0.147,0.118,0.346,0.019,0.5
		l-1.338,2.103c-0.008,0.013-0.018,0.026-0.027,0.039l-0.939,1.173l1.525,2.119c0.033,0.045,0.056,0.096,0.069,0.15l0.377,1.507
		l0.784,2.179l1.12,0.42l1.148-0.819c0.121-0.087,0.278-0.106,0.417-0.051c0.139,0.055,0.24,0.176,0.27,0.323l0.346,1.733
		l0.995,0.663c0.161,0.107,0.233,0.307,0.177,0.492l-0.559,1.862l-0.093,1.668c-0.003,0.048-0.013,0.095-0.031,0.139l-0.573,1.434
		c-0.087,0.219-0.333,0.331-0.556,0.251l-1.338-0.478c-0.031-0.011-0.06-0.025-0.088-0.043l-0.604-0.384l-0.377,0.941
		c-0.059,0.149-0.195,0.253-0.354,0.273l-1.23,0.154l-0.084,0.336l1.377,0.069c0.201,0.01,0.37,0.155,0.409,0.353
		c0.123,0.617,0.09,1.047-0.098,1.277c-0.09,0.11-0.216,0.18-0.353,0.199c-0.141,0.084-0.492,0.431-0.825,0.812l0.432,1.37
		l1.026,0.342l1.789-1.107l1.971-1.971c0.031-0.031,0.066-0.056,0.104-0.077l1.434-0.765c0.112-0.06,0.245-0.069,0.365-0.022
		l0.863,0.332l0.876-1.831c0.024-0.051,0.058-0.096,0.099-0.134l1.147-1.051c0.097-0.089,0.228-0.13,0.359-0.111l2.007,0.287
		c0.19,0.027,0.34,0.174,0.371,0.363l0.34,2.04l2.147,0.773c0.147,0.053,0.256,0.181,0.284,0.335l0.191,1.051
		c0.026,0.142-0.02,0.287-0.122,0.39l-1.625,1.625c-0.083,0.083-0.194,0.129-0.311,0.129h-1.051c-0.047,0-0.094-0.008-0.139-0.023
		l-0.505-0.168l0.203,2.1l0.989,0.76l1.018,0.085c0.181,0.015,0.334,0.14,0.385,0.314l0.346,1.178l0.79-0.282l1.071-1.249
		c0.093-0.109,0.234-0.166,0.377-0.152l1.911,0.191c0.036,0.004,0.072,0.012,0.106,0.024l2.103,0.765
		c0.121,0.044,0.216,0.139,0.262,0.259c0.045,0.12,0.035,0.255-0.027,0.367l-2.43,4.393v2.754c0,0.095-0.031,0.188-0.088,0.264
		l-1.285,1.714l0.673,1.682c0.024,0.061,0.035,0.125,0.031,0.19l-0.077,1.232l1.52,0.72l1.746,0.551l1.677,0.187
		c0.199,0.022,0.358,0.176,0.387,0.374l0.191,1.338c0.026,0.184-0.066,0.365-0.231,0.451l-1.816,0.956
		c-0.021,0.011-0.043,0.021-0.066,0.028l-1.191,0.397l-0.428,2.139c-0.003,0.013-0.006,0.027-0.01,0.04l-0.853,2.842l-0.221,1.251
		l1.192,0.491l1.511-0.178c0.196-0.022,0.382,0.087,0.457,0.268l0.478,1.147c0.018,0.044,0.03,0.09,0.033,0.138l0.063,0.891
		l1.656-0.151c0.079-0.006,0.154,0.006,0.224,0.039c0.219,0.101,0.438,0.202,0.657,0.303c0.24,0.111,0.689,0.427,0.94,0.237
		c0.11-0.083,0.183-0.364,0.218-0.5c0.055-0.212-0.075-0.42-0.117-0.637c-0.072-0.372-0.138-0.745-0.212-1.117
		c-0.028-0.139,0.013-0.282,0.109-0.386c0.096-0.103,0.234-0.158,0.377-0.137l1.529,0.191c0.043,0.005,0.085,0.017,0.124,0.034
		l2.58,1.147c0.039,0.018,0.076,0.041,0.108,0.069l3.441,2.963c0.036,0.031,0.066,0.066,0.09,0.107l2.444,4.074l3.464-0.178
		c0.078-0.005,0.158,0.013,0.228,0.05l1.625,0.86c0.108,0.057,0.187,0.157,0.219,0.275l0.382,1.434
		c0.03,0.113,0.014,0.234-0.046,0.336l-0.934,1.587l-0.799,2.308l0.599,1.968l1.485,1.65l1.045-0.224l1.626-0.723l2.345-1.876
		c0.016-0.013,0.034-0.025,0.052-0.035l1.625-0.956c0.157-0.093,0.355-0.078,0.498,0.035l0.956,0.765
		c0.141,0.113,0.199,0.302,0.145,0.475l-0.412,1.317l0.876,1.194l1.754,1.2l1.242,0.974h1.186c0.206,0,0.384,0.143,0.429,0.345
		l0.308,1.388l16.53,0.557l2.004-1.336l0.16-1.522l-0.619-2.034l-1.935-2.463l-2.871-0.269c-0.135-0.013-0.258-0.087-0.331-0.203
		l-1.102-1.744l-0.983-0.715c-0.116-0.084-0.183-0.22-0.181-0.364l0.111-6.051c-1.184,0.112-3.739,0.355-4.61,0.452
		c-1.147,0.127-2.803-1.784-2.803-1.784l-2.421-3.568l-2.804-0.637l-1.529-1.656c0,0-3.695,0.382-7.008-0.765
		c-3.313-1.147-6.626-4.842-6.626-4.842l-1.657-1.402l-2.548-2.039l-2.039-2.931l-1.784-5.862l-2.421-4.587l-6.754-7.391
		l-1.657-2.549C282.679,205.219,281.533,203.562,281.66,202.925z"/>
	<path class="st2" d="M385.387,200.249l2.421-1.274l-1.274,2.803l-0.92,0.644c0.045,0.064,0.079,0.135,0.084,0.214l0.125,1.624
		l0.184,0.796c0.004,0.016,0.007,0.032,0.009,0.048l0.083,0.709l1.281,0.049c0.106,0.004,0.207,0.046,0.284,0.119l0.992,0.931
		l1.378,0.918l1.065-0.056c0.066-0.004,0.133,0.008,0.194,0.034l1.211,0.51c0.052,0.022,0.1,0.054,0.14,0.094l1.975,1.975
		l5.236,5.618l1.018,1.018l11.619-7.145l11.619-7.365l2.315-2.193l1.407-3.854l0.25-5.392l-0.105-2.219l-8.948-0.967l-4.078-0.127
		h-1.656l-2.166,0.892l0.255,0.765h1.911l-1.02,1.402l-2.294,1.529l-2.549,0.892l0.765-1.019l1.147-1.784l-4.587,1.019l-7.518,1.402
		c0,0-3.823,1.147-4.333,1.274c-0.51,0.127-4.205,1.784-4.205,1.784l-4.587,4.078l0.127,1.274L385.387,200.249z"/>
	<polygon class="st2" points="416.83,185.977 417.722,184.894 420.079,184.639 422.5,185.212 424.603,186.391 424.507,186.933 
		422.883,186.646 421.831,186.2 419.315,186.359 417.754,186.296 	"/>
	<path class="st2" d="M236.595,215.23l0.601,0.535l0.877,0.337l1.962-2.303l0.814-1.628l1.135-4.635
		c0.034-0.138,0.132-0.251,0.264-0.304l3.571-1.428l0.168-2.023c0.003-0.036,0.011-0.072,0.023-0.107l0.86-2.485
		c0.02-0.057,0.051-0.11,0.093-0.154l1.089-1.18l0.735-1.928c0.049-0.128,0.155-0.226,0.286-0.265
		c0.131-0.04,0.273-0.014,0.384,0.067l1.265,0.928l1.73-0.451l0.294-1.472l-0.674-1.095c-0.002-0.003-0.002-0.007-0.004-0.01
		c-0.003-0.005-0.007-0.008-0.01-0.013l-0.765-1.434c-0.013-0.024-0.023-0.049-0.031-0.074l-0.573-1.816
		c-0.009-0.028-0.015-0.057-0.018-0.087l-0.119-1.13l-1.631,0.979l-0.344,1.721c-0.047,0.234-0.268,0.391-0.508,0.346l-2.676-0.478
		c-0.116-0.02-0.218-0.087-0.285-0.184l-0.933-1.356l-0.776-0.06l-0.971,1.457l-0.341,1.023v0.943l1.588,0.076
		c0.144,0.007,0.276,0.084,0.352,0.206c0.077,0.122,0.088,0.274,0.031,0.407l-0.573,1.338c-0.054,0.126-0.164,0.22-0.297,0.253
		l-1.147,0.287c-0.04,0.01-0.08,0.014-0.12,0.013l-2.843-0.086l-1.225,3.151c-0.059,0.152-0.199,0.26-0.361,0.277l-2.377,0.264
		l-0.46,0.689c-0.085,0.128-0.229,0.195-0.384,0.196l-2.069-0.086l-1.24,1.57l-0.374,1.346l1.289,0.967
		c0.094,0.071,0.156,0.177,0.172,0.293l0.368,2.761l1.89,2.7l2.4,1.385c0.17,0.098,0.255,0.297,0.207,0.488L236.595,215.23z"/>
	<path class="st1" d="M276.888,247.363c0.093,0.069,0.155,0.171,0.173,0.286l0.252,1.614l0.342-0.046l0.717-0.994l1.862-2.312
		c0.08-0.1,0.201-0.159,0.329-0.163l2.039-0.064c0.182,0.006,0.33,0.09,0.407,0.243l0.51,1.02c0.018,0.035,0.03,0.072,0.038,0.11
		l0.12,0.602h0.091l0.445-0.742c0.035-0.059,0.084-0.108,0.142-0.145l2.514-1.594l1.265-2.392l-0.971-1.046l-1.057-0.488
		l-1.985,0.181c-0.119,0.01-0.234-0.027-0.325-0.103c-0.09-0.076-0.145-0.186-0.154-0.304l-0.09-1.266l-0.323-0.775l-1.295,0.153
		c-0.075,0.007-0.15-0.002-0.219-0.03l-1.625-0.669c-0.191-0.079-0.302-0.28-0.266-0.483l0.287-1.625
		c0.003-0.017,0.007-0.033,0.012-0.05l0.854-2.847l0.474-2.369c0.031-0.155,0.143-0.281,0.292-0.331l1.4-0.467l1.51-0.794
		l-0.099-0.694l-1.382-0.154c-0.028-0.003-0.056-0.009-0.084-0.017l-1.816-0.573c-0.019-0.006-0.038-0.014-0.056-0.022l-1.816-0.86
		c-0.163-0.077-0.262-0.245-0.25-0.424l0.089-1.431l-0.728-1.82c-0.057-0.142-0.036-0.304,0.056-0.427l1.345-1.794v-2.721
		c0-0.074,0.019-0.148,0.055-0.213l2.236-4.042l-1.568-0.57l-1.628-0.163l-0.998,1.164c-0.05,0.058-0.114,0.102-0.186,0.128
		l-1.338,0.478c-0.114,0.041-0.239,0.033-0.347-0.022c-0.108-0.055-0.188-0.152-0.223-0.268l-0.393-1.336l-0.847-0.07
		c-0.084-0.007-0.165-0.038-0.232-0.09l-1.242-0.956c-0.096-0.074-0.158-0.185-0.169-0.306l-0.287-2.963
		c-0.015-0.148,0.047-0.293,0.163-0.386c0.117-0.093,0.272-0.121,0.413-0.073l1.079,0.359h0.798l1.333-1.333l-0.104-0.576
		l-2.151-0.774c-0.15-0.054-0.259-0.184-0.285-0.341l-0.329-1.976l-1.483-0.212l-0.931,0.853l-0.97,2.027l0.03,1.584
		c0.003,0.144-0.065,0.281-0.183,0.365l-1.475,1.062l-0.402,1.263c-0.049,0.155-0.18,0.27-0.339,0.299l-2.187,0.403l-0.114,0.273
		l1.321,1.321c0.061,0.062,0.103,0.14,0.12,0.225l0.446,2.23c0.019,0.098,0.005,0.199-0.041,0.288l-1.02,1.975l-0.764,1.588
		l0.181,1.226l2.822,0.113c0.062,0.003,0.123,0.018,0.179,0.046l1.911,0.956c0.102,0.051,0.181,0.14,0.218,0.248l0.895,2.566
		l0.937,0.444l1.411-0.118c0.157-0.011,0.3,0.055,0.391,0.177l0.892,1.211c0.072,0.099,0.101,0.223,0.078,0.343l-0.255,1.338
		c-0.037,0.192-0.195,0.337-0.39,0.355l-1.681,0.163l-0.298,0.991c-0.057,0.193-0.23,0.32-0.44,0.313l-2.831-0.121l-1.719,1.364
		c-0.078,0.062-0.174,0.095-0.273,0.095c-0.01,0-0.021,0-0.031-0.001l-0.892-0.063c-0.117-0.009-0.226-0.064-0.302-0.153
		l-1.49-1.738l-2.016-1.344l-1.361-0.557c-0.091-0.037-0.168-0.104-0.216-0.19l-0.719-1.272l-0.366-0.044l-0.26,4.597l0.096,3.211
		c0,0.018-0.007,0.034-0.008,0.051c-0.002,0.028-0.006,0.054-0.013,0.081c-0.009,0.031-0.022,0.058-0.037,0.086
		c-0.008,0.015-0.01,0.031-0.02,0.045l-0.791,1.143l-0.046,0.688l0.875,1.342c0.097,0.149,0.095,0.342-0.006,0.489l-0.6,0.873
		l0.353,2.119c0.01,0.062,0.007,0.125-0.009,0.186l-0.51,1.911c-0.033,0.124-0.118,0.226-0.233,0.282
		c-0.115,0.056-0.248,0.059-0.365,0.009l-0.892-0.382c-0.046-0.019-0.088-0.047-0.124-0.08l-1.265-1.164l-0.231,1.789
		c-0.023,0.181-0.156,0.329-0.333,0.371l-1.559,0.374l-0.446,0.186l0.035,0.669l1.586,0.963c0.095,0.057,0.164,0.148,0.195,0.255
		l0.436,1.527l2.861,0.584c0.108,0.022,0.204,0.084,0.268,0.174l0.728,1.008l2.636,0.539c0.092,0.019,0.175,0.066,0.238,0.136
		l1.118,1.236l0.424,0.098l0.337-0.421c0.103-0.129,0.269-0.188,0.43-0.157l0.863,0.173l0.472-1.887
		c0.043-0.171,0.184-0.3,0.358-0.327l2.039-0.319c0.044-0.008,0.09-0.007,0.135,0l1.656,0.255c0.07,0.011,0.137,0.039,0.194,0.081
		l1.289,0.952l0.641-0.192l-0.318-1.043c-0.012-0.042-0.019-0.085-0.019-0.128v-2.421c0-0.099,0.033-0.195,0.094-0.272l1.657-2.102
		c0.099-0.126,0.261-0.186,0.417-0.162l0.765,0.127c0.224,0.037,0.383,0.24,0.366,0.467l-0.173,2.307L276.888,247.363z"/>
	<path class="st4" d="M209.707,208.564l-0.804,1.535l1.571,0.673c0.086,0.037,0.158,0.1,0.205,0.18l1.108,1.876l1.771-0.077
		l1.601-1.512c0.094-0.089,0.222-0.132,0.35-0.117l1.72,0.191c0.168,0.019,0.311,0.132,0.366,0.292l0.669,1.911
		c0.006,0.015,0.01,0.031,0.013,0.046l0.517,2.239l1.08,0.337l1.829-1.306c0.085-0.061,0.189-0.09,0.293-0.08l2.198,0.191
		c0.162,0.014,0.304,0.117,0.367,0.267l0.659,1.565l4.086,0.267l3.229-0.369l3.19-1.595l0.253-1.011l-2.197-1.268
		c-0.056-0.032-0.104-0.076-0.141-0.129l-2.007-2.867c-0.04-0.057-0.066-0.124-0.075-0.194l-0.358-2.684l-1.382-1.036
		c-0.145-0.109-0.208-0.295-0.16-0.469l0.478-1.72c0.016-0.056,0.042-0.109,0.079-0.155l1.434-1.816
		c0.087-0.111,0.223-0.166,0.363-0.167l2.046,0.086l0.436-0.655c0.072-0.108,0.188-0.179,0.317-0.193l2.316-0.258l1.241-3.192
		c0.068-0.173,0.238-0.269,0.423-0.28l3.093,0.094l0.876-0.219l0.238-0.555l-1.374-0.066c-0.234-0.011-0.419-0.204-0.419-0.439
		v-1.434c0-0.047,0.008-0.094,0.023-0.139l0.23-0.69l-4.022-0.941c-0.124-0.029-0.23-0.111-0.289-0.224l-0.817-1.552l-1.52,0.16
		c-0.055,0.005-0.109,0.001-0.162-0.013c-0.657-0.179-1.121-0.306-1.445-0.408c-0.198,0.317-0.551,0.787-1.161,1.51
		c-0.078,0.093-0.192,0.149-0.314,0.156l-3.727,0.191c-0.124,0.004-0.242-0.039-0.329-0.124l-3.79-3.698h-2.402
		c-0.113,0-0.221-0.044-0.303-0.121l-1.742-1.659l-1.552,1.129l0.29,0.942c0.021,0.067,0.025,0.138,0.012,0.208l-0.191,1.051
		c-0.018,0.097-0.067,0.184-0.141,0.25l-1.612,1.433l-0.341,1.62l0.093,2.143c0.009,0.201-0.12,0.382-0.313,0.44l-1.598,0.479v1.489
		c0,0.149-0.075,0.287-0.2,0.368l-2.144,1.399l-1.508,1.773l-0.445,2.401l0.171,1.542l0.889,1.245
		c0.121,0.17,0.107,0.401-0.035,0.554L209.707,208.564z"/>
	<path class="st3" d="M170.656,227.076c0.09-0.069,0.202-0.102,0.313-0.09l2.867,0.287l2.473,0.088l2.353-2.082
		c0.096-0.085,0.225-0.123,0.354-0.106l2.523,0.361l1.492-0.878c0.062-0.036,0.131-0.057,0.202-0.06l2.007-0.096
		c0.141-0.008,0.282,0.057,0.37,0.172l1.242,1.625c0.054,0.07,0.086,0.155,0.09,0.244l0.096,1.816l0.001,2.751l0.986,1.397
		l0.925,0.33l0.472-0.539c0.065-0.075,0.154-0.125,0.252-0.143l1.051-0.191c0.165-0.027,0.33,0.036,0.43,0.168
		c0.159,0.211,0.641,0.751,1.108,0.974l0.426-1.064c0.045-0.114,0.136-0.203,0.25-0.247l1.242-0.478
		c0.012-0.005,0.025-0.009,0.037-0.012l1.191-0.34l1.344-1.882c0.092-0.129,0.245-0.202,0.403-0.182l2.402,0.248l0.666-2.413
		c0.04-0.147,0.154-0.262,0.3-0.305l1.086-0.319l-0.249-0.428l-1.259,0.078c-0.04,0.003-0.08,0-0.12-0.009l-1.338-0.287
		c-0.115-0.024-0.215-0.094-0.278-0.192c-0.063-0.098-0.085-0.218-0.059-0.333l0.345-1.553l-1.348-2.337
		c-0.087-0.15-0.077-0.338,0.025-0.478l1.18-1.623l-1.561-0.543l-2.881,0.093c-0.072-0.001-0.145-0.013-0.211-0.046l-1.529-0.765
		c-0.21-0.105-0.3-0.356-0.205-0.571l1.816-4.11c0.056-0.127,0.169-0.221,0.305-0.251l2.963-0.669
		c0.021-0.005,0.043-0.008,0.064-0.009l3.745-0.274l1.029-1.115c0.071-0.076,0.167-0.126,0.271-0.138l2.389-0.287l3.308-0.358
		l0.942-1.799c0.018-0.034,0.04-0.066,0.066-0.094l0.904-0.98l-0.748-1.047c-0.044-0.061-0.071-0.132-0.079-0.207l-0.191-1.72
		c-0.005-0.043-0.003-0.086,0.005-0.128l0.478-2.58c0.014-0.076,0.047-0.146,0.097-0.205l1.625-1.911
		c0.027-0.032,0.059-0.06,0.095-0.083l1.998-1.304v-1.578c0-0.194,0.127-0.365,0.314-0.421l1.584-0.475l-0.081-1.856
		c-0.002-0.037,0.001-0.074,0.009-0.11l0.382-1.816c0.019-0.092,0.068-0.175,0.138-0.238l1.607-1.428l0.145-0.797l-0.351-1.14
		c-0.055-0.18,0.01-0.374,0.162-0.485l0.79-0.575l-0.297,0.03c-0.081,0.009-0.162-0.006-0.235-0.042l-2.772-1.338
		c-0.929-0.541-1.5-0.881-1.852-1.118l-0.677,0.812c-0.018,0.021-0.037,0.04-0.058,0.057l-2.147,1.774l-1.97,3.003
		c-0.074,0.113-0.196,0.185-0.33,0.197l-2.198,0.191c-0.013,0.001-0.025,0.002-0.038,0.002c-0.095,0-0.187-0.031-0.264-0.088
		l-1.877-1.407l-2.128-1.022l-1.418,0.918c-0.071,0.046-0.154,0.071-0.239,0.071h-0.611l0.15,0.748l2.07,1.62
		c0.106,0.083,0.169,0.211,0.169,0.346v3.154c0,0.235-0.185,0.429-0.42,0.439l-1.81,0.083l-0.282,0.775
		c-0.062,0.171-0.223,0.285-0.404,0.289l-4.122,0.088l-0.518,3.457c-0.018,0.117-0.082,0.223-0.178,0.292
		c-0.096,0.069-0.216,0.097-0.333,0.076l-3.249-0.573c-0.065-0.012-0.126-0.037-0.179-0.075l-1.255-0.896l-2.767-0.461
		c-0.081-0.014-0.158-0.05-0.219-0.105l-0.736-0.653h-2.126c-0.128,0-0.25-0.056-0.334-0.153c-0.083-0.098-0.12-0.226-0.101-0.353
		l0.191-1.242c0.01-0.064,0.033-0.124,0.069-0.177l1.036-1.554l-0.234-0.858c-0.01-0.038-0.016-0.077-0.016-0.116v-0.86
		c0-0.122,0.051-0.239,0.14-0.322c0.089-0.083,0.208-0.124,0.331-0.117l2.359,0.169l0.515-1.251v-2.016
		c0-0.096,0.032-0.19,0.09-0.267l2.961-3.916c0.069-0.093,0.173-0.154,0.287-0.171l2.417-0.358l0.832-0.983l-0.087-1.642
		c-0.003-0.061,0.006-0.121,0.027-0.177l0.638-1.7h-0.513c-0.019,0-0.039-0.001-0.058-0.004l-1.434-0.191
		c-0.237-0.031-0.405-0.247-0.379-0.484l0.16-1.438l-1.643-0.971l-0.528,0.288l0.579,2.15c0.012,0.045,0.017,0.091,0.014,0.137
		l-0.096,1.816c-0.012,0.233-0.205,0.417-0.439,0.417h-0.774l-0.225,1.353c-0.033,0.195-0.191,0.344-0.388,0.365l-1.816,0.191
		c-0.059,0.006-0.12,0.001-0.177-0.018l-1.529-0.478c-0.216-0.068-0.345-0.287-0.299-0.509l0.573-2.772
		c0.008-0.04,0.022-0.078,0.041-0.115l1.012-1.933l0.169-1.605l-0.193-0.385l-0.598,0.046l-0.331,2.234
		c-0.006,0.038-0.016,0.075-0.031,0.11l-1.816,4.205c-0.086,0.197-0.299,0.304-0.51,0.252l-0.765-0.191
		c-0.205-0.051-0.345-0.242-0.332-0.453l0.287-4.779c0.001-0.013,0.002-0.027,0.004-0.04l0.191-1.242
		c0.015-0.099,0.064-0.19,0.137-0.257l1.015-0.931l0.067-1.138l-0.971-0.416h-1.948l-0.36,1.584l0.86,1.375
		c0.014,0.023,0.027,0.048,0.037,0.074l0.669,1.72c0.063,0.162,0.024,0.347-0.099,0.47l-1.147,1.147
		c-0.032,0.031-0.068,0.058-0.108,0.079l-2.198,1.147c-0.053,0.028-0.111,0.044-0.17,0.049l-2.23,0.171l-0.596,1.268l0.33,1.895
		l2.065,1.616c0.079,0.062,0.134,0.148,0.157,0.245l0.382,1.625c0.013,0.054,0.015,0.11,0.007,0.165l-0.535,3.66l2.467,1.85
		c0.116,0.087,0.182,0.226,0.175,0.372l-0.096,2.103l-0.193,2.029c-0.009,0.091-0.045,0.177-0.105,0.246l-1.816,2.103l-1.162,1.521
		l-0.259,1.379l0.094,2.723c0.006,0.179-0.097,0.344-0.261,0.417l-0.86,0.382c-0.165,0.074-0.361,0.038-0.49-0.091l-1.645-1.645
		l-2.001-0.637c-0.113-0.036-0.207-0.116-0.26-0.222l-1.175-2.349l-1.621-0.768l-0.933-0.144l-0.797,0.956
		c-0.084,0.1-0.208,0.158-0.338,0.158h-1.845l-1.028,0.316l-1.729,2.639c-0.084,0.128-0.228,0.204-0.38,0.199l-0.957-0.027
		l0.587,1.467l-0.892,1.784l-2.166,0.127l-2.039,0.382l-1.529,1.402l1.529,3.058l0.127,2.294l2.166,3.823l3.95,3.695l3.441,4.587
		l3.366,1.563L170.656,227.076z"/>
	<path class="st2" d="M97.908,156.095l-2.612-1.274l0.127-1.147l-0.064-0.956l-0.51-0.637l-0.892-0.701l-0.127-1.019l-0.064-1.083
		l-0.127-0.892l-2.103-0.064l-0.064-0.956l-0.382-1.465c-0.112-0.431-1.209-1.208-1.574-1.501c-1.732-1.392-2.371-0.418-4.162,0.275
		c-0.949,0.367-1.185,0.147-2.103-0.168c-1.167-0.4-1.65-0.568-2.547-1.41c0,0-0.127-0.765-0.127-1.019
		c0-0.255-0.191-1.338-0.191-1.529c0-0.191-0.51-1.402-0.51-1.402l0.255-1.338l0.956-0.701l0.382-1.529c0,0-0.127-1.083-0.127-1.274
		c0-0.191-0.255-1.147-0.255-1.147l-1.083-0.828l-1.019-0.956l0.127-1.083l-0.319-1.402l-0.956-0.701l-0.255-1.975v-1.529
		l-0.191-1.211l-1.147-0.127l-0.701-0.701l-0.892-0.892l-1.848-2.23l-0.319-3.632l-0.064-1.72l-0.319-0.892
		c0,0-0.127-0.892-0.064-1.083c0.064-0.191,0.255-1.529,0.255-1.529l-0.446-1.147l0.064-1.274l0.064-1.593l-1.402-0.255
		l-0.255-1.019l-0.064-1.083l-1.593-2.23c0,0-1.211-1.593-1.656-1.657l-0.446,1.274l0.319,1.274l0.892,0.701l0.637,1.147
		l0.446,1.784H68.09l-1.083-0.382l-1.72-1.593l-0.127-1.338l0.319-2.103l-0.637-0.382l-0.956-1.019l0.127-1.465l0.573-0.701
		l-0.191-1.083c-0.737-0.199-2.25-0.325-2.608-1.121c-0.534-1.187,1.049-2.557,0.538-3.964c-0.283-0.778-1.059-1.007-1.648-1.481
		c-0.575-0.461-0.855-1.019-1.353-1.518c-0.846-0.848-2.127-1.231-3.212-1.729L55.793,85.5l-1.274-0.701l-0.573-1.083l0.06-1.569
		l-11.658-0.891l-4.558-0.475l-4.128,0.351l0.533,0.609v1.848l0.956,0.064l1.784,0.701l0.765,1.402l-1.274,0.255l-1.02,0.064
		l-1.02,0.446l-1.465-0.828l-1.147-1.784l-0.191-1.465l-0.127-0.637l-0.956,0.573l-0.701,0.828h-2.039l-2.294-0.382l-1.784-0.765
		l-1.402-0.446l-1.657-0.573l0.51,1.338l0.956,1.72l1.274,0.255l1.274,0.956l0.51,1.019l2.039,1.72l1.274,1.338l0.191,2.166
		l1.784,2.421l2.23,0.064l1.147,0.51l1.338,1.465l1.019,0.956l2.421,0.765l0.128,1.657l1.338,0.765l1.21,1.083l0.765-0.765h1.338
		l0.956,0.51c0,0,0.765-0.127,1.274-0.637l0.765,0.382L47,100.472c0,0,0.255-1.338,0.255-1.529c0-0.191,0.892-0.573,0.892-0.573
		l0.892,0.064l0.127,0.956l-0.255,1.338l-0.573,1.402l0.382,1.784l2.103,2.421l2.421,2.166l3.186,2.166l2.166,0.956l0.446,1.211
		l2.357,3.122l0.064,4.078l0.127,1.848l0.446,0.128l0.382-0.319l-0.128-2.612l0.064-1.019l1.02,1.147l0.127,2.867l-0.828,2.421
		l-0.892,3.568l-1.211,1.848l-0.51,1.975l0.637,0.255l0.892-1.848c0,0,0.446-0.637,1.083-0.382l-0.255,1.338l-0.956,1.657
		l-0.319,0.956l0.446,0.446l0.701-0.701l0.765,0.064l0.764,1.911l0.319,1.657l1.019,0.637l1.975,0.191l1.402,1.911
		c0,0,1.975,2.294,2.166,2.23c0.191-0.064,2.421,1.657,2.421,1.657l1.848,1.656l2.039,2.039l2.549,2.676l1.529,2.357l1.784,1.338
		l2.421,0.956l2.23,2.294l0.828,2.357l0.318,2.74l0.956,2.867l1.211,1.657l1.274-0.127l1.338-1.338l1.593-0.765l1.784-0.701
		l1.274-1.147l0.765-1.848l0.319-1.911l-0.446-1.529L97.908,156.095z"/>
	<path class="st2" d="M143.468,163.452c0.168,0.26,0.348,0.516,0.548,0.766c0.884,1.104,2.277,1.567,3.165,2.657
		c0.812,0.996,1.577,2.041,2.429,3.024c0.355,0.409,3.335,4.472,3.786,4.364l0.222-0.053c0.052-0.012,0.105-0.015,0.157-0.009
		l1.816,0.223l2.18,0.242l0.167-0.78l-0.484-0.807c-0.021-0.035-0.037-0.072-0.047-0.111l-0.574-2.103
		c-0.037-0.136-0.007-0.281,0.081-0.39l1.06-1.325l0.087-1.39c0.007-0.107,0.052-0.208,0.128-0.284l0.401-0.401l0.289-0.924
		l-2.536-0.317c-0.109-0.014-0.208-0.067-0.279-0.15l-1.147-1.338c-0.047-0.055-0.08-0.121-0.096-0.193l-0.463-2.13l-1.303-2.234
		l-1.139-1.803c-0.056-0.088-0.078-0.194-0.064-0.297l0.168-1.179l-0.871-1.393c-0.047-0.075-0.07-0.163-0.066-0.252l0.096-2.198
		c0.001-0.026,0.005-0.053,0.01-0.078l0.445-1.958l-1.324-2.912l-2.256-1.624l-1.863-0.81l-0.553,0.622
		c-0.021,0.023-0.044,0.044-0.069,0.063l-1.434,1.051c-0.12,0.087-0.275,0.109-0.414,0.057l-1.529-0.573
		c-0.13-0.049-0.229-0.155-0.268-0.288l-0.478-1.625l-0.467-2.234l-1.268-1.721l-1.787-1.975l-2.279-2.089
		c-0.041-0.038-0.075-0.083-0.099-0.134l-1.147-2.389c-0.028-0.058-0.043-0.121-0.043-0.186l-0.096-8.506l-0.037-1.044
		c-0.036-0.066-0.061-0.138-0.058-0.219c0.002-0.062,0.019-0.121,0.044-0.174l-0.041-1.159l-0.572-1.552l-1.52-0.507
		c-0.18-0.06-0.301-0.228-0.301-0.417v-2.131l-0.381-1.219l-3.38-0.712c-0.016-0.003-0.032-0.008-0.048-0.013l-2.294-0.765
		c-0.151-0.05-0.263-0.178-0.293-0.335l-1.051-5.543c-0.003-0.015-0.005-0.031-0.006-0.047l-0.174-2.182l-1.071-0.741
		c-0.085-0.059-0.146-0.145-0.174-0.244l-0.886-3.19l-3.379-0.8c-0.013-0.003-0.025-0.007-0.038-0.011l-2.134-0.711l-0.551,2.125
		c-0.013,0.05-0.035,0.098-0.065,0.14l-1.529,2.198c-0.027,0.039-0.059,0.072-0.096,0.1l-5.83,4.396l-2.555,1.627l0.219,0.73
		l-0.255,1.274h-1.02c0,0-0.764,1.911-1.274,1.147l-0.892-1.274l-1.019,4.078l0.637,2.803l1.402,1.02c0,0-0.255,1.147-0.127,2.166
		l1.529,0.382l2.294,1.147l1.402,0.51l1.274-1.657c0,0,1.784,0.255,1.274,1.402l0.51,1.019l1.147,0.892l-1.147,0.51l1.147,0.637
		l1.911,2.039l0.765,0.127v-2.039l1.784,0.382l1.402,2.294l3.058,2.166l0.255,2.676l-0.765,2.421l1.784,2.931l0.382-0.892
		l-0.892-1.911h1.529l2.039,2.294l2.039,0.51l1.274,2.039l-0.382,1.147l-1.147-0.128l-2.166-1.274l-0.765,0.382l4.205,2.804
		l3.058,2.931l0.382-0.637c0,0-1.911-2.294-1.529-3.058l2.039,0.51l3.441,4.587c0,0,0.255,2.421-0.51,2.166l-1.657-2.039h-1.147
		c0,0,2.039,2.676,2.166,3.186c0.128,0.51,3.695,1.911,3.695,1.911c0.779,1.112,1.653,2.198,2.352,3.36
		C142.249,161.068,142.73,162.304,143.468,163.452z"/>
	<polygon class="st2" points="116.975,134.002 117.787,134.002 118.313,134.528 118.934,135.531 119.603,136.487 119.316,137.443 
		118.456,136.774 117.835,135.483 117.022,134.91 	"/>
	<polygon class="st2" points="119.555,134.098 119.555,135.053 120.081,135.722 120.606,136.391 121.036,136.391 120.941,135.292 
		120.32,134.432 	"/>
	<path class="st2" d="M261.934,275.495c0.039-0.128,0.134-0.231,0.258-0.28l1.365-0.547l0.149-0.842
		c0.003-0.018,0.008-0.036,0.013-0.053l0.255-0.828c0.054-0.176,0.212-0.3,0.396-0.31l2.025-0.109l0.31-1.394
		c0.023-0.103,0.082-0.193,0.165-0.257l1.238-0.929l0.758-0.859l-0.493-1.48c-0.022-0.065-0.028-0.134-0.018-0.201l0.18-1.258
		l-0.187-0.842l-2.651-1.061c-0.07-0.028-0.131-0.073-0.178-0.131l-1.656-2.039c-0.051-0.063-0.083-0.138-0.094-0.217l-0.25-1.812
		l-0.499-1.622c-0.013-0.042-0.019-0.086-0.019-0.129v-1.848c0-0.033,0.004-0.066,0.011-0.098l0.51-2.23l0.516-1.808l-0.378-0.087
		c-0.087-0.02-0.167-0.066-0.227-0.133l-1.114-1.231l-2.663-0.544c-0.108-0.022-0.204-0.084-0.268-0.174l-0.728-1.008l-2.954-0.603
		c-0.16-0.033-0.29-0.152-0.335-0.31l-0.462-1.618l-1.637-0.993c-0.124-0.075-0.203-0.208-0.211-0.353l-0.059-1.11l-0.849-1.538
		l-2.233-0.057c-0.156-0.004-0.298-0.09-0.374-0.227l-0.974-1.765l-1.199-0.899c-0.068-0.051-0.119-0.12-0.149-0.199l-0.445-1.204
		l-1.92-0.167l-1.426-0.158l-1.297,2.593c-0.068,0.135-0.2,0.226-0.35,0.241l-4.669,0.458l-1.891,2.792
		c-0.083,0.122-0.216,0.208-0.371,0.193c-0.148-0.002-0.285-0.079-0.365-0.204l-1.793-2.831l-1.882-1.976
		c-0.069-0.072-0.111-0.167-0.12-0.267l-0.16-1.923l-0.776-0.065c-0.166-0.014-0.31-0.121-0.371-0.275l-0.025-0.061l-1.1,2.136
		l0.687,2.145l1.389,1.852c0.057,0.076,0.088,0.169,0.088,0.264v0.765c0,0.13-0.058,0.254-0.158,0.338
		c-0.1,0.083-0.233,0.116-0.361,0.095l-1.051-0.191c-0.063-0.012-0.122-0.037-0.175-0.074l-1.511-1.066h-3.492
		c-0.243,0-0.44-0.197-0.44-0.44v-1.641l-2.931,1.188c-0.064,0.026-0.133,0.037-0.204,0.031l-3.249-0.287
		c-0.053-0.004-0.105-0.019-0.152-0.042l-2.648-1.278l-1.325,0.209l-0.08,1.839c-0.002,0.037-0.008,0.074-0.019,0.11l-0.382,1.242
		c-0.027,0.086-0.079,0.162-0.15,0.218l-2.58,2.007c-0.056,0.043-0.122,0.073-0.191,0.085l-1.791,0.326l-0.233,1.63l0.373,2.564
		l2.496,0.081l4.97,3.95l2.294,0.892l0.382,1.911l2.039,1.147c0,0,3.823,2.931,4.205,2.931c0.382,0,4.97,2.039,4.97,2.039
		l5.352,1.274c0.91,0.569,1.805,1.183,2.738,1.712c1.454,0.823,2.105,1.591,3.196,2.875c0.395,0.465,2.34,1.12,2.986,1.402
		l1.274-0.255l2.676-0.255l2.166,1.147l2.166,0.765h2.294l3.695,0.765l2.166,2.294l1.799,1.482L261.934,275.495z"/>
	<path class="st4" d="M236.958,221.248l-1.574,2.593l-0.276,2.484l-0.384,2.597c-0.005,0.035-0.015,0.07-0.028,0.103l-0.669,1.625
		c-0.019,0.047-0.046,0.09-0.08,0.127l-0.747,0.83v1.36c0,0.136-0.064,0.265-0.171,0.348l-3.082,2.378l0.158,0.395l0.876,0.073
		c0.214,0.018,0.384,0.188,0.402,0.402l0.178,2.139l1.805,1.895c0.02,0.021,0.038,0.044,0.053,0.068l1.457,2.3l1.631-2.407
		c0.073-0.108,0.191-0.179,0.321-0.191l4.633-0.454l1.325-2.65c0.083-0.165,0.255-0.261,0.442-0.24l1.72,0.191l1.763,0.153
		l0.332-2.826c0.007-0.06,0.026-0.117,0.057-0.169l1.614-2.779l-0.783-2.001c-0.018-0.046-0.028-0.094-0.03-0.143l-0.064-1.657
		c-0.004-0.097,0.025-0.194,0.082-0.273l1.784-2.485l1.705-2.717c0.097-0.155,0.279-0.233,0.459-0.198l0.637,0.127
		c0.111,0.022,0.209,0.087,0.274,0.18l2.357,3.377l1.033,1.678c0.045,0.073,0.068,0.158,0.065,0.245l-0.064,1.975
		c-0.001,0.02-0.003,0.04-0.006,0.06l-0.284,1.645l1.917,2.25l1.464-0.133l-0.083-2.836l0.274-4.874l-1.158-0.91
		c-0.084-0.066-0.141-0.161-0.161-0.267l-0.191-1.051c-0.025-0.138,0.018-0.28,0.114-0.382l1.751-1.839l-0.208-0.968l-1.337-1.17
		l-1.272-0.299l-1.451,1.536c-0.091,0.096-0.218,0.15-0.352,0.136c-0.132-0.009-0.252-0.078-0.328-0.186l-0.669-0.956
		c-0.052-0.074-0.08-0.162-0.08-0.252v-2.311l-1.113-0.209l-2.161,0.166l-0.947,2.238c-0.078,0.183-0.265,0.29-0.463,0.264
		l-1.434-0.191c-0.153-0.021-0.285-0.12-0.346-0.262l-0.86-2.007l-0.934-2.123h-2.294c-0.106,0-0.209-0.039-0.289-0.109
		l-1.866-1.632l-0.606,1.212c-0.016,0.032-0.035,0.061-0.059,0.089l-2.147,2.521l-1.598,4.323
		C236.985,221.199,236.973,221.224,236.958,221.248z"/>
	<path class="st1" d="M439.799,191.329l-3.313-4.587l-2.803-1.274l-1.019,0.637l-2.294,0.255l-0.637,0.765l2.421,0.127l1.529,0.382
		v1.147l-1.911,0.255l-2.912-0.112l0.101,2.13c0.001,0.014,0.001,0.028,0,0.041l-0.255,5.48c-0.002,0.045-0.011,0.089-0.026,0.13
		l-1.466,4.014c-0.023,0.064-0.061,0.122-0.111,0.168l-2.421,2.294c-0.021,0.019-0.043,0.037-0.067,0.052l-11.66,7.391
		l-11.712,7.203l-0.125,13.328l0.254,3.661l0.892,13.7l0.005,0.074l4.526,0.464v-1.657l1.402-0.764c0,0,2.294,0.764,2.803,0.637
		c0.51-0.127,1.274-1.402,1.274-1.402l0.51-2.421l1.274-1.274l1.402-2.421l0.892-1.784l1.402-0.765v-1.657l1.657-0.127l1.402-0.255
		c0,0-0.128-1.147-1.019-1.147l-1.02-0.892l1.911-2.294l0.637,1.657l2.039-1.657v1.274l-0.127,2.294l-1.274,2.549l0.255,1.402
		l1.784-0.51l0.892,1.402l0.128,2.931l0.764,0.255l2.166-3.95l0.51-2.931l0.51-3.568l0.892-2.676l0.892-1.657l0.51-2.421
		l-0.127-2.166l-1.911,2.549l-1.657,0.51l0.255-1.784l1.02-1.784l2.803-1.402l0.255-2.039l-0.765-0.51l-1.784,1.784h-2.421
		l-0.892-2.166l2.421-0.255l1.274-1.529l0.255-2.421l0.51-3.568l3.823-6.499l4.078-4.46l0.892-2.931l-0.127-2.421L439.799,191.329z"
		/>
	<path class="st1" d="M441.153,202.336c-0.143,0-0.86,0.048-0.86,0.048l-2.198,1.051l-1.625,1.625l-0.048,1.577l0.191,1.911
		l0.669-0.143l0.908-2.246l2.867-2.867L441.153,202.336z"/>
	<polygon class="st1" points="419.458,237.649 418.168,237.793 417.26,239.274 417.021,240.66 417.69,240.899 419.076,238.844 	"/>
	<path class="st4" d="M325.75,278.363c0,0-0.765-1.657,0.255-2.421l4.97,2.676l0.909,0.178l-0.412-1.184l-0.919-1.287
		c-0.038-0.053-0.064-0.114-0.075-0.178l-0.318-1.784c-0.009-0.047-0.009-0.094-0.002-0.141l0.382-2.612l1.089-4.875
		c0.006-0.025,0.013-0.05,0.024-0.075l1.02-2.421c0.027-0.065,0.07-0.123,0.125-0.168l1.745-1.444l0.085-0.282l-16.442-0.554
		c-0.2-0.007-0.371-0.148-0.414-0.344l-0.306-1.376h-0.985c-0.099,0-0.194-0.033-0.272-0.094l-1.338-1.051l-1.792-1.225
		c-0.041-0.028-0.077-0.063-0.106-0.103l-1.051-1.434c-0.082-0.112-0.107-0.258-0.065-0.391l0.388-1.242l-0.485-0.388l-1.336,0.786
		l-2.365,1.892c-0.029,0.024-0.062,0.043-0.096,0.058l-1.72,0.764c-0.028,0.012-0.057,0.022-0.086,0.028l-1.338,0.287
		c-0.153,0.034-0.313-0.018-0.419-0.136l-1.72-1.911c-0.043-0.048-0.075-0.105-0.094-0.166l-0.669-2.198
		c-0.027-0.089-0.025-0.184,0.005-0.272l0.86-2.485c0.01-0.028,0.022-0.054,0.037-0.079l0.862-1.466l-0.285-1.071l-1.348-0.713
		l-3.606,0.185c-0.163,0.01-0.316-0.073-0.4-0.213l-2.544-4.24l-3.338-2.874l-2.462-1.094l-0.859-0.108l0.158,0.788l0.745,1.676
		c0.063,0.141,0.047,0.304-0.041,0.431l-0.654,0.934l-1.452,2.746c-0.036,0.068-0.089,0.125-0.153,0.166l-2.525,1.6l-0.52,0.867
		c-0.079,0.133-0.223,0.214-0.377,0.214h-0.701c-0.209,0-0.39-0.148-0.431-0.354l-0.18-0.898l-0.357-0.715l-1.556,0.049
		l-1.721,2.136l-0.814,1.129c-0.071,0.098-0.179,0.162-0.299,0.178l-0.956,0.127c-0.235,0.034-0.455-0.132-0.492-0.368l-0.291-1.86
		l-1.32-0.976c-0.121-0.09-0.189-0.236-0.177-0.386l0.161-2.148l-0.112-0.019l-1.402,1.779v2.203l0.427,1.403
		c0.034,0.112,0.022,0.232-0.033,0.336c-0.055,0.103-0.149,0.18-0.261,0.214l-1.274,0.382c-0.133,0.039-0.276,0.015-0.387-0.068
		l-1.378-1.018l-1.482-0.228l-1.683,0.263l-0.503,2.011c-0.057,0.228-0.282,0.369-0.513,0.324l-1.012-0.203l-0.287,0.359
		l-0.613,2.145l-0.492,2.159v1.732l0.49,1.593c0.007,0.022,0.012,0.046,0.015,0.069l0.238,1.726l1.507,1.855l2.761,1.105
		c0.135,0.054,0.234,0.171,0.266,0.312l0.255,1.147c0.011,0.052,0.013,0.105,0.006,0.158l-0.177,1.235l0.541,1.622
		c0.05,0.149,0.016,0.312-0.087,0.43l-0.956,1.083c-0.02,0.022-0.042,0.043-0.066,0.061l-1.144,0.858l-0.347,1.561
		c-0.043,0.193-0.209,0.333-0.406,0.344l-2.051,0.111l-0.157,0.509l-0.186,1.056c-0.027,0.15-0.128,0.275-0.27,0.332l-1.397,0.559
		l-0.364,1.197l4.146,0.576l2.294,1.147l4.078,2.931l2.039-0.382l2.166-1.274l0.127,1.274l-1.147,1.147l0.255,0.765l2.931-0.765
		l3.44,0.765l5.225,2.548l1.657,0.255l1.784,0.892l4.842,0.127l4.078-2.294l3.95-2.548l5.352-1.529l3.568-1.911l5.097,0.127
		l0.128-1.147l-4.46-0.765h-1.402l-1.911-0.382l0.764-1.784l1.784,0.382l1.147,0.382l1.02-0.51l1.402-0.637l2.931,0.51l2.294-0.255
		l1.784,0.892l-0.382,1.147c0,0-2.931,0.382-2.931,1.274l2.039,0.255l2.421,0.51l5.862,2.549l0.765-0.382l-0.127-0.765
		L325.75,278.363z"/>
	<path class="st1" d="M387.808,271.227l-2.803-0.255l-0.765-2.803l-2.549-1.784l-2.676-2.294l-2.294-0.382
		c0,0-1.147-1.911-2.294-2.294c-1.147-0.382-2.166-1.274-2.166-1.274l0.082-0.906l-0.196-0.128
		c-0.114-0.075-0.187-0.198-0.197-0.334l-0.055-0.709l-0.252-0.359l-3.286-0.119c-0.126-0.004-0.245-0.064-0.324-0.161
		c-0.08-0.098-0.114-0.226-0.093-0.351l0.247-1.481l-0.106-1.96l-1.121-0.195c-0.035-0.006-0.07-0.017-0.103-0.031l-1.147-0.51
		c-0.089-0.04-0.162-0.107-0.209-0.193l-0.339-0.629l-0.794-0.099c-0.173-0.022-0.317-0.143-0.367-0.31l-0.137-0.455l-0.796-0.398
		l-1.024,0.431c-0.051,0.022-0.106,0.034-0.162,0.034l-3.207,0.06l-0.96,0.904c-0.067,0.063-0.152,0.103-0.243,0.115l-1.721,0.23
		l-2.629,3.729l-1.77,2.846c-0.069,0.11-0.182,0.185-0.31,0.203c-0.13,0.02-0.258-0.021-0.355-0.106l-1.699-1.51l-1.76-1.194
		c-0.056-0.038-0.103-0.089-0.136-0.148l-0.573-1.02c-0.025-0.043-0.042-0.091-0.05-0.14l-0.255-1.465l-0.313-1.311
		c-0.042-0.174,0.027-0.356,0.172-0.46l0.681-0.486l-0.075-0.641l-1.404-1.08l-2.466-0.164l-0.792,1.319l-0.662,2.046l0.061,1.835
		c0.004,0.128-0.047,0.251-0.141,0.338l-1.656,1.529c-0.081,0.075-0.188,0.117-0.298,0.117h-1.7l0.496,1.63
		c0.017,0.056,0.023,0.115,0.016,0.174l-0.191,1.816c-0.014,0.13-0.084,0.247-0.193,0.32l-2.162,1.441l-0.241,0.804
		c-0.025,0.083-0.074,0.157-0.141,0.212l-1.765,1.46l-0.962,2.285l-1.074,4.804l-0.366,2.509l0.289,1.617l0.898,1.257
		c0.024,0.034,0.044,0.071,0.057,0.111l0.601,1.728l3.953,0.773l1.657,1.784l3.313,1.402l0.382,1.147h-2.166l-3.568-1.402
		l-1.147-0.51l-0.637,0.637l4.842,2.294l4.97,2.803l8.41,8.155l7.136,7.646l0.892-0.382l0.382-1.529l-0.382-2.294l-1.911-0.892
		l-0.637-1.402l1.019-0.637l2.549,0.382l0.765-1.147l-0.128-1.529l-2.039-1.529l0.127-1.147l2.166-4.46l4.46-8.283h19.369
		l0.765-0.892l-0.51-3.058l1.402-1.529L387.808,271.227z"/>
	<path class="st3" d="M249.175,239.91c0.05,0.037,0.091,0.085,0.121,0.139l0.898,1.627l2.233,0.057
		c0.156,0.004,0.298,0.09,0.374,0.227l0.829,1.503l0.401-0.167c0.022-0.009,0.044-0.016,0.066-0.022l1.298-0.312l0.216-1.675
		c0.012-0.096,0.056-0.186,0.125-0.255l0.382-0.382c0.168-0.167,0.436-0.171,0.608-0.013l1.537,1.415l0.356,0.153l0.354-1.329
		l-0.367-2.2c-0.019-0.112,0.007-0.228,0.072-0.321l0.534-0.777l-0.795-1.219c-0.052-0.079-0.077-0.174-0.071-0.269l0.064-0.956
		c0.005-0.079,0.032-0.156,0.077-0.221l0.325-0.469l-1.166,0.106c-0.146,0.013-0.282-0.044-0.374-0.153l-1.959-2.3l-1.307,0.769
		c-0.068,0.04-0.145,0.061-0.223,0.061h-2.007c-0.047,0-0.094-0.008-0.139-0.023l-2.241-0.747l-1.495,2.575l-0.359,3.054l0.46,1.245
		L249.175,239.91z"/>
	<polygon class="st1" points="252.156,223.073 251.989,223.04 250.43,225.522 248.719,227.907 248.774,229.339 249.532,231.277 
		251.849,232.049 253.665,232.049 255.011,231.257 255.29,229.64 255.349,227.828 254.398,226.284 	"/>
	<path class="st4" d="M246.108,96.777c0,0-0.382-2.166-1.784-3.695c-0.424-0.462-0.906-0.924-1.372-1.344
		c-0.02,0.027-0.041,0.054-0.061,0.081c-0.008,0.01-0.016,0.02-0.025,0.03l-2.37,2.62l-0.45,1.08l1.417,0.709
		c0.142,0.071,0.235,0.214,0.242,0.372l0.119,2.506l1.537,1.537c0.123,0.124,0.162,0.308,0.098,0.47l-1.335,3.446l1.763,0.294
		c0.205,0.034,0.358,0.207,0.367,0.415l0.115,2.767l1.766,0.662c0.099,0.037,0.182,0.11,0.233,0.203l0.892,1.656
		c0.027,0.05,0.044,0.105,0.05,0.162l0.233,2.216l2.122,1.414c0.096,0.064,0.163,0.163,0.187,0.276l0.572,2.742l2.228,0.223
		c0.061,0.006,0.119,0.025,0.172,0.055l1.819,1.023l1.312-0.765c0.117-0.069,0.259-0.079,0.385-0.028l1.911,0.765
		c0.063,0.025,0.119,0.064,0.163,0.114c0.383,0.426,1.017,1.219,0.95,1.749c-0.018,0.142-0.079,0.267-0.174,0.363
		c-0.095,0.429,0.102,2.227,0.351,3.717c0.002,0.016,0.004,0.031,0.005,0.047l0.107,1.819l1.824,0.322
		c0.132,0.023,0.246,0.106,0.31,0.224c0.064,0.118,0.07,0.259,0.017,0.382l-0.382,0.892c-0.023,0.055-0.058,0.105-0.102,0.146
		l-2.294,2.166l-2.54,2.54c-0.073,0.072-0.169,0.118-0.271,0.127l-2.693,0.245l-1.436,0.957c-0.05,0.033-0.106,0.056-0.165,0.067
		l-1.017,0.185l0.103,1.649l0.254,2.532c0.012,0.124-0.028,0.246-0.112,0.339c-0.083,0.092-0.202,0.145-0.326,0.145h-2.647
		l-1.918,1.558c-0.035,0.029-0.075,0.052-0.118,0.068l-2.225,0.866l-1.274,1.078l0.159,0.199l2.294,0.724
		c0.202,0.064,0.329,0.262,0.304,0.472l-0.382,3.186c-0.003,0.024-0.008,0.049-0.015,0.072l-0.575,1.952l1.521,1.989l1.036,1.552
		c0.102,0.153,0.098,0.352-0.009,0.501l-1.656,2.294c-0.088,0.121-0.238,0.186-0.381,0.182l-2.206-0.123l-1.908,0.673l-0.675,1.462
		l-0.466,1.514l0.482,2.05c0.035,0.148-0.009,0.304-0.117,0.412c-0.108,0.107-0.263,0.152-0.412,0.117l-1.967-0.463
		c-0.389,0.391-0.532,1.446-0.548,2.03l0.772,1.388h1.462c0.205,0,0.382,0.142,0.428,0.341l0.573,2.485
		c0.031,0.135-0.003,0.277-0.093,0.383l-1.751,2.069l2.349,1.253l3.913,1.191l0.461-1.845c0.034-0.137,0.133-0.25,0.264-0.302
		c0.132-0.051,0.28-0.037,0.4,0.039l2.676,1.72c0.062,0.04,0.113,0.096,0.149,0.161l2.389,4.409l5.003,1.072l1.773-0.887
		c0.108-0.054,0.234-0.061,0.347-0.02l1.868,0.679l1.909-1.562c0.113-0.093,0.265-0.122,0.405-0.081l1.557,0.467l0.599-1.198
		c0.1-0.2,0.334-0.293,0.543-0.217l2.102,0.764c0.106,0.039,0.193,0.116,0.243,0.217l0.492,0.983
		c1.16,0.426,2.456,1.709,2.909,2.184c0.517-0.081,1.004-0.156,1.476-0.229l-0.492-3.442l-0.892-2.039l0.764-1.402l1.019-2.931
		c0,0-0.127-7.263-0.127-8.028c0-0.765,0-4.205,0-4.205l0.637-2.028h-0.765l-1.274,2.028l-0.51-0.765c0,0,0-5.734,0.127-6.754
		c0.128-1.02,0.764-1.402,0.764-1.402l0.51-1.784l-1.784-0.637c0,0,0-0.892,0-1.784s-0.51-2.294-0.51-2.294l2.421-0.765
		c0,0-0.765-1.784-0.637-2.931c0.128-1.147,0.51-2.676,0.51-2.676l-0.637-1.274l0.127-1.912l-1.019-1.911l1.402-0.51v-1.019h1.529
		l1.402-1.402l1.529-0.765l0.764,1.402l-0.382,1.911l0.255,2.294l2.803-4.078l0.892-5.989l-0.51-3.568l-1.911,0.382l-1.911,0.892
		l-1.911-1.402l-1.911-0.765h-4.842l-3.568-0.765l-3.186-2.166l-5.097-2.294l-3.823-1.529c0,0-1.402-3.441-1.529-3.823
		c-0.127-0.382-2.803-4.332-2.803-4.332v-2.676L246.108,96.777z"/>
	<polygon class="st4" points="275.193,136.184 274.906,136.662 274.875,137.363 274.301,138.191 274.237,140.867 274.683,141.058 
		275.193,140.326 275.161,139.338 275.416,138.892 275.448,137.427 275.544,136.598 	"/>
	<polygon class="st4" points="274.301,144.881 273.76,145.168 273.855,146.633 273.505,148.035 273.059,149.118 273.091,151.444 
		273.537,151.539 273.664,150.552 273.983,149.978 274.174,148.959 274.556,147.494 274.779,146.761 274.652,144.913 	"/>
	<path class="st1" d="M33.707,7.353l-1.621,0.46l-3.419,3.059l-0.203,4.157l0.186,0.16l0.575-0.03l1.211,0.573l2.612,2.294
		l5.288,4.906c0,0,1.338,0.765,2.294,0.765c0.956,0,1.402-0.573,1.402-0.573l1.274-0.956l1.402,0.127l1.529,1.402v1.211l0.191,1.402
		l2.294,0.573l2.166,1.211l2.931,1.019l1.019,1.529l-0.382,2.23l-0.956,0.765c0,0,0.128,3.759,0.128,3.95
		c0,0.191,0.319,2.803,0.319,2.803l1.529,1.465l0.064,1.274l1.019,2.421l0.828,1.975v2.166l0.446,1.529l0.956,1.402v1.211
		l0.446,1.274l2.676,1.019c0,0,0.064,1.529,0,1.72c-0.064,0.191-0.701,1.274-0.701,1.274l0.191,1.402l1.72,0.382l1.402,1.211
		l-0.319,1.657l0.382,1.593l0.319,2.166l1.274,1.147l1.338,1.593l0.51,2.103l2.103,3.186l3.823,1.975l1.593,3.887l2.549,2.676
		l1.911,2.039l1.019,0.382l0.191-0.828l-0.637-0.446l-0.637-1.338l0.127-0.956l1.274-0.255l1.147,0.318l0.446,1.657l1.338,1.019
		l1.211,0.828l0.765-0.255l1.147,1.529l-0.191,0.191l-1.274,1.019l-1.019,1.274l-0.255,2.294l2.294,2.039l0.128,1.911l1.019,0.892
		l2.931,1.019l3.568,1.147l0.382,1.147l-0.765,2.039l2.549,3.568l5.097-0.255l1.657,3.058l0.255,2.549h0.637l0.892-1.274
		l0.283,0.944l2.316-1.474l5.745-4.334l1.444-2.076l0.479-1.849l-1.052,0.175c-0.17,0.026-0.338-0.044-0.435-0.185l-1.051-1.529
		c-0.031-0.045-0.053-0.095-0.066-0.148l-0.382-1.625c-0.022-0.094-0.013-0.191,0.026-0.279l0.726-1.635v-3.635l-1.459-0.648
		c-0.127-0.057-0.221-0.17-0.251-0.307l-0.358-1.61l-1.264-1.445c-0.076-0.086-0.115-0.199-0.108-0.314l0.083-1.49l-1.539-1.196
		c-0.056-0.044-0.101-0.101-0.13-0.165l-0.478-1.051c-0.006-0.014-0.012-0.028-0.017-0.043l-0.478-1.434
		c-0.008-0.024-0.014-0.047-0.017-0.072l-0.191-1.242c-0.027-0.175,0.054-0.35,0.206-0.442l2.198-1.338
		c0.082-0.05,0.181-0.071,0.275-0.062l2.623,0.281l2.358-0.325l0.073-1.465l-0.739-2.215c-0.02-0.059-0.027-0.122-0.02-0.185
		l0.185-1.755l-0.467-2.712c-0.005-0.026-0.007-0.053-0.007-0.079l0.096-8.506c0.002-0.177,0.109-0.334,0.272-0.402l1.364-0.561
		l0.18-4.497l0.573-5.548v-3.626l-0.928-2.507l-1.239-3.145c-0.018-0.047-0.028-0.096-0.03-0.146l-0.191-5.543l-0.267-2.298
		l-0.943-0.943c-0.096-0.096-0.142-0.231-0.125-0.366l0.253-2.003l-28.552-0.968l-1.911-1.274c0,0-22.937-10.322-26.25-11.469
		C53.13,16.612,37.248,8.769,34.102,7.21L33.707,7.353z"/>
	<polygon class="st1" points="83.381,95.121 84.21,94.866 85.42,95.63 85.739,96.777 84.337,97.351 	"/>
	<polygon class="st1" points="60.253,63.327 59.68,66.194 58.342,66.959 58.788,67.915 59.871,68.807 61.272,69.953 62.037,69.826 
		62.61,68.233 63.248,67.469 63.056,66.003 62.356,65.047 62.228,63.391 61.272,62.69 	"/>
	<polygon class="st1" points="57.768,69.316 57.131,69.826 57.513,70.782 58.66,71.355 59.425,70.973 58.469,69.507 	"/>
	<polygon class="st1" points="54.519,70.654 54.073,71.291 54.328,72.375 55.22,72.948 56.112,72.056 55.347,71.037 	"/>
	<path class="st1" d="M190.937,70.988l-2.23,4.205l-2.871,5.168l-3.942,8.45l3.201,19.203l4.846,4.101
		c0.044,0.037,0.08,0.082,0.106,0.133l1.72,3.321c0.075,0.145,0.063,0.318-0.029,0.452l-1.215,1.756l1.271,3.902
		c0.034,0.106,0.028,0.22-0.019,0.32l-1.147,2.485c-0.029,0.063-0.073,0.119-0.128,0.162l-2.029,1.589v4.054l0.602,1.593
		l1.832,1.649c0.067,0.06,0.114,0.14,0.134,0.228l0.548,2.376l1.37,1.541l2.553,0.729c0.048,0.014,0.094,0.036,0.134,0.065
		l2.257,1.612l0.884-1.768l0.563-4.133c0.007-0.048,0.022-0.092,0.043-0.134c0.005-0.01,0.013-0.019,0.019-0.029
		c0.022-0.036,0.048-0.068,0.078-0.097c0.006-0.006,0.009-0.014,0.015-0.019c0.005-0.004,0.012-0.005,0.017-0.009
		c0.038-0.029,0.081-0.053,0.128-0.069c0.004-0.001,0.007-0.004,0.011-0.005c0.001,0,0.002-0.001,0.003-0.001l2.676-0.765
		c0.014-0.004,0.028-0.008,0.042-0.01l4.205-0.765c0.089-0.015,0.181-0.004,0.263,0.034l4.97,2.294
		c0.095,0.044,0.171,0.12,0.215,0.215l1.061,2.297l2.667,0.711c0.147,0.039,0.264,0.152,0.308,0.299l0.446,1.485l2.634-0.823
		c0.054-0.017,0.111-0.022,0.168-0.019l2.294,0.191c0.141,0.012,0.268,0.091,0.34,0.212l1.077,1.795l2.362,1.09
		c0.015,0.007,0.028,0.014,0.042,0.022l1.324,0.794l0.11-0.989l-0.186-1.575l-0.378-2.075c-0.02-0.115,0.005-0.233,0.071-0.329
		l0.624-0.902l-1.013-0.796c-0.064-0.051-0.113-0.118-0.141-0.196l-0.382-1.051c-0.037-0.103-0.035-0.216,0.007-0.317l0.669-1.625
		c0.033-0.081,0.09-0.15,0.163-0.199l2.007-1.338c0.078-0.052,0.172-0.079,0.265-0.073l3.889,0.19l1.84-0.16l0.176-0.881
		c-0.207-0.21-0.367-0.381-0.487-0.524c-0.298,0.073-0.731,0.147-1.36,0.242c-0.032,0.004-0.063,0.006-0.094,0.004l-1.434-0.096
		c-0.106-0.007-0.206-0.053-0.282-0.128l-1.051-1.051c-0.109-0.109-0.153-0.268-0.115-0.418l0.251-1.006l-1.755-0.073
		c-0.16-0.007-0.303-0.1-0.375-0.243l-0.743-1.485l-1.689-2.064c-0.084-0.102-0.117-0.236-0.091-0.365l0.367-1.832l-0.241-1.446
		l-0.597-0.373c-0.174-0.109-0.25-0.324-0.182-0.518l0.641-1.843l-1.102-0.588c-0.057-0.03-0.106-0.073-0.145-0.124l-0.528-0.704
		l-0.784-0.523l-0.796,0.797c-0.152,0.152-0.392,0.171-0.566,0.047l-0.669-0.478c-0.123-0.087-0.192-0.231-0.184-0.382l0.096-1.72
		c0.008-0.133,0.075-0.256,0.184-0.333l1.318-0.942l2.849-2.564l1.608-1.609c0.134-0.134,0.338-0.167,0.508-0.082l1.211,0.606
		l1.23-1.537l0.268-2.143v-2.296l-1.376-0.306c-0.066-0.014-0.127-0.044-0.179-0.086l-0.682-0.546
		c-0.421,0.321-1.179,0.842-1.752,0.924c-0.136,0.02-0.271-0.025-0.368-0.119c-0.097-0.095-0.146-0.229-0.131-0.364l0.191-1.72
		c0.008-0.071,0.033-0.14,0.074-0.199l1.434-2.103c0.051-0.076,0.126-0.134,0.212-0.165l2.801-1.027l1.662-1.312l0.913-2.557
		l0.68-1.558c0.04-0.091,0.11-0.167,0.199-0.213l2.007-1.051c0.176-0.093,0.394-0.054,0.529,0.094l0.91,1l1.428,0.827l1.198-1.517
		c0.012-0.015,0.025-0.029,0.039-0.043l1.004-0.974l0.197-0.356l-0.608-2.433c0,0-1.784-1.402-3.313-2.549
		c-1.529-1.147-4.333-6.244-4.333-6.244l-2.549-6.499c0,0-1.402-3.441-2.549-4.842c-1.147-1.402-4.078-3.186-4.078-3.186
		s-2.294-0.255-3.058-1.274c-0.765-1.019-2.039-3.695-2.039-3.695l-4.842,0.255l-2.294-1.147l-2.931,0.765l-3.441-1.274
		l-1.274,1.274l-2.803,0.764l-2.803,2.931v1.529l-1.019,1.274l-0.51,2.421l-1.784,1.402l-1.911,2.803l-1.641-0.718
		C190.942,70.966,190.942,70.978,190.937,70.988z"/>
	<path class="st3" d="M23.171,55.681l2.294,1.465l1.465,3.504l2.102,0.765l0.382,1.338l1.466,1.848l1.784,2.294l0.637,1.784
		l1.72,0.51l0.319,1.975l0.701,1.529l-0.573,2.804l-0.319,2.612l-1.338,1.211l-0.344,0.947l4.289-0.365
		c0.027-0.003,0.055-0.002,0.083,0.001l4.588,0.478l11.703,0.894l0.007-0.043l0.127-1.848l-0.127-0.637l-0.828-1.02v-0.956
		l0.319-0.764l0.319-0.892v-0.892h-1.72l-1.338-0.828l-0.446-1.338l-0.51-1.784l0.127-1.211l-0.446-0.892l-1.975,0.064l-0.382-0.892
		l-0.828-1.338l-0.892,0.128c0,0-0.446,1.147-1.02,1.593l-0.446-1.465l0.127-1.147l-0.064-1.338l-0.446-1.274l0.255-1.211
		l-0.255-1.657l-1.72-1.529l-2.485-3.759l-2.294-2.549l-0.956-0.956l-2.039,0.191l0.064-1.211l-0.191-1.911l-1.019-1.083
		l-1.211-0.764l-1.083-0.701l0.446-1.72c0,0,0.382-3.823,0.446-4.078c0.064-0.255-0.446-2.039-0.446-2.039l-0.446-2.166l0.191-1.274
		v-1.784l-0.765-1.083l-0.637-2.166l-0.446-2.358l0.255-1.975l0.892-2.294l0.446-1.402l-0.064-1.657L29.67,17.58l-0.629-0.896
		l-1.313-1.128c-0.103-0.088-0.159-0.219-0.153-0.355l0.223-4.555c0.006-0.117,0.058-0.228,0.146-0.306l3.632-3.25
		c0.05-0.044,0.109-0.077,0.173-0.095l1.689-0.478l0.421-0.153l1.1-2.1V2.862c0,0-11.851,0.127-15.419,0
		C15.972,2.735,2.082,2.098,2.082,2.098l0.064,1.657l0.828,2.23l1.211,1.784L3.93,10.253l2.294,2.804l0.446,1.147l-0.892,0.064
		l-0.956,1.211l0.382,2.421l1.593,1.784l2.74,4.078l0.255,4.906l2.74,3.441l0.446,5.225l1.402,1.848l0.637,3.695l0.191,2.676
		l1.019,4.333l1.147,1.402l2.166,0.956l1.848,1.019L23.171,55.681z"/>
	<path class="st3" d="M44.516,55.108l-0.191,1.529l0.382,1.72l1.593,2.294l1.975,1.848l1.402,2.549l1.338,0.255
		c0,0,0.637-0.51,0.446-0.446c-0.191,0.064-0.956-1.274-0.956-1.274l0.255-1.465v-1.529l-1.019-0.51l-1.72-0.191l-0.764-0.573
		l0.382-1.975l-0.828-1.274l-1.274-1.402L44.516,55.108z"/>
	<path class="st4" d="M113.472,33.255l0.899,0.899c0.07,0.07,0.114,0.162,0.126,0.261l0.287,2.485l0.191,5.503l1.215,3.083
		l0.959,2.589c0.018,0.049,0.028,0.1,0.028,0.153v3.727c0,0.015-0.001,0.03-0.003,0.045l-0.573,5.543l-0.189,4.751
		c-0.007,0.172-0.113,0.324-0.272,0.389l-1.356,0.558l-0.092,8.175l0.471,2.732c0.007,0.04,0.008,0.081,0.004,0.12l-0.181,1.721
		l0.734,2.203c0.017,0.051,0.025,0.106,0.022,0.161l-0.096,1.911c-0.01,0.211-0.169,0.385-0.379,0.414l-2.771,0.382
		c-0.035,0.005-0.072,0.005-0.107,0.002l-2.528-0.271l-1.82,1.108l0.141,0.916l0.459,1.377l0.423,0.932l1.635,1.271
		c0.114,0.089,0.177,0.227,0.169,0.371l-0.086,1.541l1.22,1.394c0.049,0.055,0.083,0.122,0.099,0.194l0.334,1.504l1.518,0.675
		c0.159,0.071,0.261,0.228,0.261,0.402v4.014c0,0.062-0.013,0.122-0.038,0.178l-0.704,1.585l0.33,1.4l0.846,1.23l1.444-0.241
		c0.001,0,0.003,0,0.004,0c0.006-0.001,0.012,0,0.018-0.001c0.048-0.005,0.095-0.002,0.141,0.008
		c0.007,0.001,0.013-0.001,0.02,0.001c0.004,0.001,0.006,0.004,0.01,0.005c0.006,0.002,0.012,0.002,0.018,0.004l2.562,0.854
		l3.612,0.856c0.156,0.037,0.28,0.156,0.323,0.31l0.913,3.287l1.111,0.77c0.109,0.075,0.178,0.195,0.188,0.326l0.189,2.366
		l0.999,5.266l2.025,0.675l3.607,0.759c0.156,0.033,0.281,0.147,0.329,0.299l0.478,1.529c0.014,0.042,0.02,0.087,0.02,0.131v1.881
		l1.419,0.473c0.127,0.042,0.227,0.14,0.274,0.265l0.669,1.816c0.016,0.044,0.025,0.09,0.027,0.136l0.037,1.026l4.935,0.17
		l1.626-1.138l0.362-3.622c0.009-0.091,0.046-0.177,0.107-0.246l1.194-1.365l-0.911-4.373c-0.049-0.236,0.101-0.468,0.337-0.519
		l4.05-0.88v-1.557c0-0.091,0.029-0.181,0.082-0.255l0.917-1.284l0.744-2.231c0.053-0.159,0.192-0.275,0.359-0.297l2.867-0.382
		c0.087-0.012,0.176,0.003,0.255,0.043l2.553,1.276l1.202-0.172c0.122-0.018,0.243,0.016,0.337,0.092l3.694,2.955l4.232-0.184
		c0.069-0.004,0.138,0.01,0.201,0.039l1.851,0.841l2.082-1.735c0.099-0.082,0.23-0.118,0.357-0.095
		c0.127,0.022,0.238,0.099,0.303,0.21l1.809,3.076l1.667,0.303l2.13-2.308l2.467-3.037c0.096-0.118,0.249-0.176,0.397-0.159
		l6.868,0.88l-3.152-18.913c-0.015-0.088-0.002-0.178,0.036-0.258l4.014-8.602l2.881-5.188l2.182-4.115l0.013-0.187l-3.021-2.238
		l-3.186-1.402l-3.058-1.019l-2.931-2.421l-2.676-1.529l-3.441-6.117v-2.803l-1.656-3.823l-3.313-5.352l-2.931-1.912l-6.244-6.116
		c0,0-3.313-3.568-5.225-4.078c-1.911-0.51-5.225-5.607-5.225-5.607l-12.106-0.892l-11.851-0.127l-0.637,4.715l-0.765,1.911
		l-8.157-0.276L113.472,33.255z"/>
	<g>
		<path class="st4" d="M187.916,243.983l1.647-5.28l-0.724-2.821v-2.153l-1.241-0.443c-0.085-0.031-0.159-0.087-0.211-0.161
			l-1.147-1.625c-0.052-0.074-0.081-0.163-0.081-0.253v-2.867l-0.088-1.657l-1.02-1.334l-1.669,0.079l-1.531,0.901
			c-0.086,0.05-0.186,0.07-0.285,0.056l-2.475-0.354l-2.333,2.063c-0.084,0.075-0.192,0.113-0.307,0.11l-2.676-0.095l-2.721-0.271
			l-1.62,1.253c1.389,0.694,2.825,1.386,4.071,2.229c0.481,0.326,0.556,0.885,0.996,1.173c0.972,0.636,2.2-0.044,3.184,0.519
			c0.71,0.406,1.627,0.988,2.286,1.475l2.931,2.166l0.637,2.549l1.911,1.019l0.765,2.803l1.698,1.181L187.916,243.983z"/>
		<path class="st1" d="M236.807,216.556c-0.049-0.019-0.095-0.047-0.134-0.082l-0.638-0.567l-3.174,1.587
			c-0.046,0.023-0.096,0.038-0.147,0.044l-3.345,0.382c-0.017,0.002-0.033,0.003-0.05,0.003c-0.01,0-0.019,0-0.029-0.001
			l-4.396-0.287c-0.166-0.011-0.312-0.115-0.376-0.268l-0.662-1.571l-1.772-0.154l-1.875,1.339c-0.112,0.08-0.255,0.103-0.386,0.062
			l-1.529-0.478c-0.149-0.047-0.262-0.169-0.297-0.321l-0.568-2.461l-0.57-1.627l-1.243-0.138l-1.572,1.485
			c-0.077,0.072-0.177,0.115-0.283,0.119l-2.198,0.096c-0.156,0.012-0.315-0.075-0.398-0.215l-1.169-1.979l-1.769-0.758l-3.422,0.37
			l-2.224,0.267l-1.037,1.123c-0.075,0.082-0.18,0.132-0.291,0.14l-3.886,0.284l-2.714,0.613l-1.557,3.524l1.055,0.527l2.852-0.092
			c0.054-0.001,0.107,0.006,0.159,0.024l2.198,0.764c0.131,0.046,0.233,0.151,0.275,0.284c0.041,0.133,0.018,0.277-0.064,0.39
			l-1.361,1.871l1.291,2.238c0.055,0.095,0.072,0.208,0.048,0.315l-0.286,1.288l0.846,0.182l1.469-0.092
			c0.165-0.014,0.323,0.074,0.407,0.217l0.669,1.147c0.068,0.116,0.079,0.258,0.029,0.384c-0.05,0.125-0.155,0.221-0.285,0.259
			l-1.39,0.409l-0.7,2.536c-0.057,0.207-0.255,0.347-0.469,0.32l-2.517-0.26l-1.285,1.799c-0.058,0.081-0.141,0.14-0.237,0.167
			l-1.319,0.377l-1.045,0.402l-0.502,1.255c-0.067,0.168-0.23,0.277-0.408,0.277c-0.016,0-0.032-0.001-0.049-0.003
			c-0.796-0.088-1.521-0.82-1.849-1.2l-0.645,0.117l-0.143,0.163v2.664l0.764,2.909l-1.71,5.481v0.72l0.254,0.177l7.518,2.294
			l2.039,1.402l3.695,0.637l3.823,1.147l0.562,0.018l-0.359-2.471c-0.006-0.042-0.006-0.084,0-0.126l0.287-2.007
			c0.027-0.187,0.171-0.336,0.357-0.37l1.997-0.363l2.386-1.855l0.325-1.056l0.093-2.142c0.009-0.209,0.164-0.383,0.37-0.415
			l1.816-0.287c0.09-0.014,0.18-0.001,0.26,0.038l2.699,1.303l3.064,0.27l3.438-1.394c0.135-0.055,0.289-0.039,0.411,0.043
			c0.121,0.082,0.194,0.218,0.194,0.365v1.854h3.192c0.091,0,0.179,0.028,0.253,0.081l1.546,1.091l0.437,0.079v-0.091l-1.346-1.794
			c-0.029-0.04-0.052-0.083-0.067-0.13l-0.765-2.389c-0.035-0.111-0.025-0.232,0.028-0.335c0,0,1.625-3.154,1.644-3.182
			c0.027-0.045,0.061-0.083,0.124-0.135c0.009-0.006,0.017-0.014,0.026-0.02l3.126-2.412v-1.313c0-0.109,0.04-0.214,0.113-0.294
			l0.809-0.899l0.619-1.505l0.374-2.527l0.285-2.564c0.007-0.063,0.028-0.125,0.061-0.18l1.603-2.64l1.459-3.95L236.807,216.556z"/>
	</g>
	<polygon class="st2" points="62.833,93.098 63.072,94.197 63.55,94.961 64.171,95.009 64.745,94.627 64.602,93.814 63.789,93.241 
		63.072,93.002 	"/>
	<polygon class="st2" points="76.452,113.837 74.78,115.461 74.398,116.513 74.684,117.468 75.21,117.707 75.975,116.99 
		76.835,116.608 76.93,115.7 	"/>
	<path class="st2" d="M78.077,120.001l-0.765,0.287l0.048,0.765l0.765,0.382C78.459,121.1,78.077,120.001,78.077,120.001z"/>
	<polygon class="st2" points="80.705,120.001 80.227,121.243 80.61,122.056 81.757,122.438 82.187,121.626 81.757,120.813 	"/>
	<polygon class="st2" points="76.548,120.909 75.688,121.721 75.831,122.342 76.596,122.725 76.787,122.151 	"/>
	<polygon class="st2" points="81.422,130.37 81.279,132.091 81.661,133.046 82.712,134.193 83.286,134.91 83.811,134.671 
		83.668,133.285 84.098,132.521 83.811,131.613 82.808,130.992 82.139,130.705 	"/>
	<polygon class="st2" points="85.818,137.108 85.054,137.634 85.149,138.303 85.484,138.972 86.487,138.876 86.774,138.159 	"/>
	<path class="st2" d="M86.965,140.071l-1.004,0.287l-0.287,0.669l0.335,0.573l0.478,0.717l0.526-0.048l0.143-0.669
		c0.334-0.335,0.43-1.529,0.43-1.529H86.965z"/>
	<polygon class="st2" points="92.604,143.177 92.413,144.037 93.13,144.993 93.321,146.331 93.703,146.761 94.993,147 
		95.184,146.474 94.802,145.757 94.085,145.184 93.751,144.085 93.13,143.559 	"/>
	<polygon class="st2" points="63.55,139.259 62.738,139.545 62.69,140.31 63.55,141.266 64.554,142.699 65.509,142.89 
		68.377,142.46 68.377,141.696 65.653,141.552 64.888,140.644 64.028,139.88 	"/>
	<polygon class="st2" points="60.014,126.404 59.154,127.312 57.625,130.418 56.86,133.046 57.72,134.05 58.724,134.814 
		58.867,136.152 59.106,137.06 60.396,138.016 60.826,137.968 60.683,137.013 59.823,136.344 59.775,135.006 59.68,134.05 
		58.389,132.807 58.485,131.326 59.441,129.749 59.775,128.077 60.588,127.121 60.349,126.5 	"/>
	<polygon class="st2" points="61.209,122.725 60.492,123.346 60.301,124.11 60.444,125.448 60.874,125.544 61.257,125.066 
		61.448,124.254 61.83,123.776 61.782,123.059 	"/>
	<polygon class="st2" points="20.113,80.052 19.779,79.383 18.966,79.335 17.915,79.24 17.819,79.765 18.441,80.339 19.205,80.434 	
		"/>
	<polygon class="st2" points="17.103,75.99 17.246,76.516 18.249,76.85 18.871,77.567 19.826,77.663 20.161,76.325 20.973,75.417 
		21.021,74.031 20.734,71.403 19.97,71.26 19.301,72.454 18.775,73.553 18.727,74.461 18.202,74.939 17.867,75.56 	"/>
</g>
</svg>