<!-- Generator: Adobe Illustrator 23.0.6, SVG Export Plug-In  -->
<svg version="1.1" xmlns="http://www.w3.org/2000/svg" xmlns:xlink="http://www.w3.org/1999/xlink" x="0px" y="0px"
	 width="1086.831px" height="625.202px" viewBox="0 0 1086.831 625.202" style="enable-background:new 0 0 1086.831 625.202;"
	 xml:space="preserve">
<style type="text/css">
	.st0{fill:url(#SVGID_1_);}
	.st1{fill:url(#SVGID_2_);}
</style>
<defs>
</defs>
<radialGradient id="SVGID_1_" cx="543.4153" cy="545.1701" r="534.8257" gradientUnits="userSpaceOnUse">
	<stop  offset="0" style="stop-color:#FFFFFF;stop-opacity:0.5"/>
	<stop  offset="0.9949" style="stop-color:#FFFFFF;stop-opacity:0"/>
</radialGradient>
<path class="st0" d="M543.415,417.33c-69.524,0-126.086,56.562-126.086,126.085c0,31.183,11.384,59.753,30.207,81.786h3.981
	c-19.387-21.76-31.187-50.419-31.187-81.786c0-67.87,55.216-123.085,123.086-123.085s123.085,55.216,123.085,123.085
	c0,31.368-11.801,60.026-31.187,81.786h3.981c18.823-22.034,30.206-50.604,30.206-81.786
	C669.501,473.892,612.939,417.33,543.415,417.33z M543.415,407.394c-75.003,0-136.022,61.019-136.022,136.022
	c0,30.675,10.211,59.007,27.406,81.786h3.779c-17.652-22.576-28.185-50.973-28.185-81.786c0-73.349,59.673-133.022,133.022-133.022
	c73.348,0,133.021,59.673,133.021,133.022c0,30.813-10.534,59.21-28.185,81.786h3.779c17.195-22.779,27.406-51.112,27.406-81.786
	C679.437,468.413,618.418,407.394,543.415,407.394z M543.415,367.648c-96.919,0-175.768,78.849-175.768,175.768
	c0,29.512,7.322,57.341,20.228,81.786h3.392c-13.148-24.361-20.62-52.216-20.62-81.786c0-95.264,77.503-172.768,172.768-172.768
	c95.264,0,172.768,77.503,172.768,172.768c0,29.57-7.472,57.426-20.62,81.786h3.392c12.906-24.445,20.228-52.274,20.228-81.786
	C719.183,446.497,640.334,367.648,543.415,367.648z M543.415,387.521c-85.961,0-155.895,69.934-155.895,155.895
	c0,29.975,8.512,57.995,23.233,81.786h3.536c-15.044-23.667-23.769-51.726-23.769-81.786c0-84.306,68.588-152.895,152.895-152.895
	c84.306,0,152.895,68.588,152.895,152.895c0,30.061-8.726,58.119-23.769,81.786h3.536c14.721-23.791,23.233-51.812,23.233-81.786
	C699.31,457.455,629.376,387.521,543.415,387.521z M543.415,397.457c-80.482,0-145.958,65.477-145.958,145.958
	c0,30.284,9.273,58.441,25.125,81.786h3.65c-16.234-23.19-25.775-51.393-25.775-81.786c0-78.828,64.131-142.958,142.958-142.958
	c78.827,0,142.958,64.131,142.958,142.958c0,30.393-9.541,58.596-25.775,81.786h3.65c15.852-23.346,25.125-51.503,25.125-81.786
	C689.373,462.934,623.897,397.457,543.415,397.457z M543.415,377.584c-91.44,0-165.832,74.392-165.832,165.831
	c0,29.721,7.866,57.637,21.615,81.786h3.463c-14.028-24.049-22.078-51.994-22.078-81.786c0-89.785,73.046-162.831,162.832-162.831
	c89.785,0,162.831,73.046,162.831,162.831c0,29.792-8.05,57.737-22.078,81.786h3.463c13.749-24.15,21.615-52.065,21.615-81.786
	C709.247,451.976,634.855,377.584,543.415,377.584z M695.806,391.025c-40.705-40.705-94.825-63.123-152.391-63.123
	s-111.686,22.417-152.391,63.122c-40.705,40.705-63.123,94.825-63.123,152.391c0,28.512,5.507,56.176,16.004,81.786h3.373
	c-10.542-25.188-16.377-52.818-16.377-81.786c0-117.18,95.333-212.513,212.514-212.513c117.18,0,212.513,95.333,212.513,212.513
	c0,28.969-5.835,56.598-16.377,81.786h3.373c10.497-25.61,16.004-53.274,16.004-81.786
	C758.929,485.85,736.511,431.729,695.806,391.025z M702.832,383.999c-42.582-42.582-99.197-66.033-159.417-66.033
	s-116.835,23.451-159.417,66.033c-42.582,42.582-66.033,99.197-66.033,159.417c0,28.432,5.234,56.059,15.234,81.786h3.232
	c-10.146-25.695-15.466-53.33-15.466-81.786c0-59.418,23.139-115.281,65.154-157.296c42.015-42.015,97.877-65.154,157.296-65.154
	s115.28,23.139,157.295,65.154c42.016,42.016,65.154,97.877,65.154,157.296c0,28.456-5.321,56.092-15.466,81.786h3.232
	c10-25.728,15.234-53.354,15.234-81.786C768.865,483.196,745.414,426.581,702.832,383.999z M543.415,337.839
	c-113.355,0-205.577,92.221-205.577,205.577c0,29.051,6.07,56.708,16.988,81.786h3.275c-11.089-25.027-17.263-52.697-17.263-81.786
	c0-111.701,90.875-202.577,202.577-202.577c111.701,0,202.577,90.875,202.577,202.577c0,29.089-6.175,56.759-17.263,81.786h3.275
	c10.918-25.078,16.988-52.735,16.988-81.786C748.992,430.06,656.771,337.839,543.415,337.839z M543.415,347.775
	c-107.876,0-195.641,87.764-195.641,195.641c0,29.182,6.433,56.887,17.939,81.786h3.311c-11.697-24.84-18.25-52.56-18.25-81.786
	c0-106.223,86.418-192.641,192.641-192.641s192.64,86.418,192.64,192.641c0,29.226-6.554,56.946-18.25,81.786h3.311
	c11.506-24.899,17.939-52.604,17.939-81.786C739.056,435.539,651.292,347.775,543.415,347.775z M543.415,357.711
	c-102.397,0-185.704,83.307-185.704,185.704c0,29.334,6.847,57.095,19.011,81.786h3.35c-12.378-24.621-19.361-52.402-19.361-81.786
	c0-100.743,81.961-182.704,182.704-182.704s182.704,81.961,182.704,182.704c0,29.385-6.983,57.165-19.361,81.786h3.35
	c12.164-24.691,19.011-52.452,19.011-81.786C729.119,441.018,645.813,357.711,543.415,357.711z M543.415,526.63
	c-9.255,0-16.785,7.53-16.785,16.785s7.53,16.785,16.785,16.785c9.255,0,16.785-7.53,16.785-16.785S552.67,526.63,543.415,526.63z
	 M543.415,557.201c-7.601,0-13.785-6.184-13.785-13.785s6.184-13.785,13.785-13.785s13.785,6.184,13.785,13.785
	S551.017,557.201,543.415,557.201z M543.415,516.694c-14.734,0-26.722,11.987-26.722,26.721s11.987,26.722,26.722,26.722
	c14.734,0,26.721-11.987,26.721-26.722S558.149,516.694,543.415,516.694z M543.415,567.137c-13.08,0-23.722-10.642-23.722-23.722
	s10.642-23.721,23.722-23.721s23.721,10.641,23.721,23.721S556.496,567.137,543.415,567.137z M543.415,506.758
	c-20.213,0-36.658,16.444-36.658,36.658c0,20.214,16.444,36.658,36.658,36.658c20.213,0,36.657-16.444,36.657-36.658
	C580.073,523.202,563.628,506.758,543.415,506.758z M543.415,577.074c-18.559,0-33.658-15.099-33.658-33.658
	c0-18.559,15.099-33.658,33.658-33.658c18.559,0,33.657,15.099,33.657,33.658C577.073,561.975,561.974,577.074,543.415,577.074z
	 M629.755,543.416c0-47.608-38.731-86.34-86.339-86.34s-86.34,38.732-86.34,86.34c0,37.954,24.626,70.242,58.731,81.786h11.631
	c-38.334-7.476-67.362-41.297-67.362-81.786c0-45.954,37.386-83.34,83.34-83.34s83.339,37.386,83.339,83.34
	c0,40.489-29.027,74.311-67.361,81.786h11.631C605.129,613.657,629.755,581.369,629.755,543.416z M709.858,376.972
	c-44.458-44.458-103.569-68.943-166.443-68.943c-62.874,0-121.985,24.484-166.443,68.943s-68.943,103.569-68.943,166.443
	c0,28.363,4.999,55.954,14.55,81.786h3.202c-9.683-25.802-14.752-53.403-14.752-81.786c0-62.073,24.172-120.43,68.064-164.322
	c43.892-43.892,102.249-68.064,164.322-68.064c62.072,0,120.43,24.172,164.321,68.064c43.892,43.892,68.064,102.249,68.064,164.322
	c0,28.383-5.069,55.984-14.752,81.786h3.202c9.551-25.832,14.55-53.423,14.55-81.786
	C778.801,480.542,754.317,421.431,709.858,376.972z M543.415,427.267c-64.045,0-116.149,52.104-116.149,116.149
	c0,31.869,12.905,60.779,33.76,81.786h4.277c-21.577-20.616-35.037-49.659-35.037-81.786c0-62.391,50.759-113.149,113.149-113.149
	s113.149,50.758,113.149,113.149c0,32.128-13.46,61.17-35.037,81.786h4.277c20.855-21.007,33.76-49.917,33.76-81.786
	C659.564,479.371,607.46,427.267,543.415,427.267z M543.415,496.821c-25.692,0-46.594,20.902-46.594,46.594
	c0,25.691,20.902,46.594,46.594,46.594c25.692,0,46.594-20.902,46.594-46.594C590.009,517.723,569.107,496.821,543.415,496.821z
	 M543.415,587.009c-24.038,0-43.594-19.556-43.594-43.594s19.556-43.594,43.594-43.594c24.038,0,43.594,19.556,43.594,43.594
	S567.453,587.009,543.415,587.009z M543.415,486.885c-31.171,0-56.531,25.359-56.531,56.53s25.359,56.53,56.531,56.53
	c31.171,0,56.53-25.359,56.53-56.53S574.586,486.885,543.415,486.885z M543.415,596.946c-29.517,0-53.531-24.014-53.531-53.53
	s24.014-53.53,53.531-53.53c29.517,0,53.53,24.014,53.53,53.53S572.932,596.946,543.415,596.946z M543.415,437.203
	c-58.566,0-106.213,47.646-106.213,106.212c0,32.864,15.005,62.289,38.522,81.786h4.809c-24.509-18.888-40.331-48.522-40.331-81.786
	c0-56.912,46.301-103.212,103.213-103.212s103.212,46.301,103.212,103.212c0,33.265-15.822,62.898-40.331,81.786h4.809
	c23.517-19.498,38.522-48.922,38.522-81.786C649.628,484.85,601.981,437.203,543.415,437.203z M639.691,543.416
	c0-53.087-43.189-96.276-96.276-96.276s-96.276,43.189-96.276,96.276c0,34.48,18.223,64.779,45.54,81.786h5.927
	c-28.862-15.877-48.467-46.584-48.467-81.786c0-51.433,41.844-93.276,93.276-93.276s93.276,41.844,93.276,93.276
	c0,35.203-19.604,65.91-48.467,81.786h5.927C621.468,608.194,639.691,577.895,639.691,543.416z M543.415,476.949
	c-36.65,0-66.467,29.817-66.467,66.467c0,36.65,29.817,66.467,66.467,66.467c36.65,0,66.467-29.816,66.467-66.467
	C609.882,506.766,580.065,476.949,543.415,476.949z M543.415,606.882c-34.996,0-63.467-28.471-63.467-63.467
	c0-34.996,28.471-63.467,63.467-63.467c34.996,0,63.467,28.471,63.467,63.467C606.882,578.412,578.411,606.882,543.415,606.882z
	 M619.819,543.416c0-42.129-34.274-76.403-76.403-76.403c-42.129,0-76.404,34.274-76.404,76.403s34.274,76.403,76.404,76.403
	C585.544,619.819,619.819,585.544,619.819,543.416z M543.415,616.819c-40.475,0-73.404-32.929-73.404-73.403
	s32.929-73.403,73.404-73.403c40.475,0,73.403,32.929,73.403,73.403S583.89,616.819,543.415,616.819z M744.989,341.842
	C691.147,288,619.56,258.347,543.415,258.347S395.684,288,341.842,341.842C288,395.684,258.347,467.271,258.347,543.416
	c0,28.105,4.052,55.586,11.857,81.786h3.125c-7.891-26.183-11.982-53.67-11.982-81.786c0-75.343,29.34-146.177,82.616-199.452
	c53.276-53.276,124.109-82.616,199.453-82.616s146.177,29.34,199.452,82.616c53.275,53.275,82.616,124.109,82.616,199.452
	c0,28.117-4.09,55.604-11.982,81.786h3.125c7.805-26.201,11.857-53.681,11.857-81.786
	C828.483,467.271,798.831,395.684,744.989,341.842z M961.726,366.703c-22.866-54.061-55.6-102.612-97.292-144.305
	s-90.244-74.427-144.305-97.292c-55.971-23.674-115.426-35.677-176.713-35.677s-120.742,12.003-176.713,35.677
	c-54.061,22.866-102.612,55.6-144.305,97.292s-74.427,90.244-97.292,144.305c-23.674,55.971-35.677,115.426-35.677,176.713
	c0,27.687,2.458,54.999,7.327,81.786h3.05c-4.902-26.783-7.377-54.095-7.377-81.786c0-60.883,11.924-119.945,35.44-175.544
	c22.714-53.703,55.232-101.934,96.651-143.352s89.649-73.937,143.352-96.651c55.599-23.517,114.661-35.44,175.544-35.44
	c60.883,0,119.945,11.924,175.544,35.44c53.703,22.714,101.934,55.232,143.352,96.651c41.418,41.418,73.937,89.649,96.651,143.352
	c23.516,55.599,35.44,114.661,35.44,175.544c0,27.691-2.475,55.003-7.377,81.786h3.05c4.869-26.787,7.327-54.099,7.327-81.786
	C997.403,482.128,985.399,422.673,961.726,366.703z M878.485,208.346c-43.518-43.518-94.194-77.685-150.622-101.552
	c-58.421-24.71-120.478-37.239-184.448-37.239s-126.027,12.529-184.448,37.239c-56.427,23.867-107.104,58.034-150.622,101.552
	S130.66,302.54,106.793,358.967c-24.709,58.421-37.239,120.478-37.239,184.448c0,27.667,2.348,54.975,7.007,81.786h3.043
	c-4.689-26.808-7.05-54.117-7.05-81.786c0-63.566,12.449-125.23,37.002-183.28c23.715-56.069,57.667-106.425,100.91-149.669
	c43.244-43.243,93.6-77.194,149.669-100.91c58.049-24.553,119.713-37.002,183.28-37.002s125.23,12.449,183.28,37.002
	c56.069,23.715,106.425,57.667,149.669,100.91c43.243,43.244,77.194,93.6,100.91,149.669
	c24.553,58.049,37.002,119.713,37.002,183.28c0,27.67-2.361,54.979-7.05,81.786h3.043c4.659-26.812,7.007-54.119,7.007-81.786
	c0-63.97-12.529-126.027-37.239-184.448C956.17,302.54,922.003,251.864,878.485,208.346z M952.57,370.57
	c-22.365-52.877-54.382-100.366-95.163-141.146c-40.78-40.78-88.269-72.798-141.146-95.163
	c-54.746-23.156-112.899-34.896-172.845-34.896s-118.1,11.741-172.845,34.896c-52.877,22.365-100.366,54.383-141.146,95.163
	c-40.78,40.781-72.798,88.269-95.163,141.146c-23.156,54.746-34.896,112.899-34.896,172.845c0,27.698,2.512,55.013,7.493,81.786
	h3.05c-5.016-26.769-7.543-54.085-7.543-81.786c0-59.542,11.661-117.302,34.659-171.676c22.214-52.52,54.016-99.688,94.521-140.194
	s87.674-72.308,140.194-94.522c54.374-22.998,112.134-34.659,171.677-34.659c59.542,0,117.302,11.661,171.676,34.659
	c52.52,22.214,99.688,54.016,140.194,94.522s72.307,87.674,94.521,140.194c22.998,54.374,34.659,112.134,34.659,171.676
	c0,27.702-2.527,55.017-7.543,81.786h3.05c4.981-26.774,7.493-54.088,7.493-81.786C987.466,483.47,975.726,425.316,952.57,370.57z
	 M970.881,362.835c-23.366-55.244-56.817-104.858-99.422-147.463c-42.606-42.606-92.22-76.056-147.463-99.422
	C666.8,91.758,606.044,79.492,543.415,79.492S420.031,91.758,362.834,115.95c-55.244,23.366-104.857,56.816-147.463,99.422
	c-42.606,42.605-76.056,92.219-99.422,147.463c-24.192,57.196-36.458,117.952-36.458,180.581c0,27.677,2.4,54.987,7.161,81.786h3.05
	c-4.793-26.796-7.211-54.106-7.211-81.786c0-62.225,12.187-122.588,36.221-179.412c23.215-54.886,56.449-104.179,98.78-146.51
	s91.624-75.565,146.511-98.78c56.824-24.035,117.187-36.221,179.412-36.221s122.588,12.187,179.412,36.221
	c54.887,23.215,104.18,56.449,146.511,98.78s75.565,91.624,98.78,146.51c24.035,56.824,36.221,117.187,36.221,179.412
	c0,27.68-2.418,54.991-7.211,81.786h3.05c4.762-26.8,7.161-54.11,7.161-81.786C1007.339,480.787,995.073,420.031,970.881,362.835z
	 M925.103,382.173c-20.864-49.328-50.732-93.628-88.775-131.671c-38.043-38.043-82.343-67.911-131.671-88.775
	c-51.071-21.601-105.321-32.554-161.242-32.554c-55.922,0-110.171,10.953-161.242,32.554
	c-49.328,20.864-93.628,50.732-131.671,88.775c-38.042,38.042-67.911,82.343-88.775,131.671
	c-21.601,51.071-32.554,105.32-32.554,161.242c0,27.735,2.698,55.058,8.049,81.786h3.057c-5.391-26.723-8.106-54.047-8.106-81.786
	c0-55.518,10.873-109.375,32.317-160.073c20.712-48.97,50.365-92.95,88.133-130.719c37.768-37.768,81.748-67.42,130.718-88.133
	c50.699-21.444,104.556-32.317,160.074-32.317s109.375,10.873,160.073,32.317c48.97,20.712,92.95,50.365,130.718,88.133
	c37.769,37.769,67.421,81.749,88.133,130.719c21.444,50.699,32.317,104.555,32.317,160.073c0,27.739-2.715,55.063-8.106,81.786
	h3.057c5.351-26.729,8.049-54.051,8.049-81.786C957.657,487.494,946.705,433.244,925.103,382.173z M716.885,369.946
	c-46.335-46.335-107.941-71.854-173.469-71.854c-65.528,0-127.134,25.518-173.469,71.854
	c-46.335,46.335-71.853,107.941-71.853,173.469c0,28.3,4.77,55.864,13.91,81.786h3.174c-9.259-25.895-14.083-53.47-14.083-81.786
	c0-64.727,25.206-125.58,70.975-171.348s106.622-70.975,171.348-70.975s125.579,25.206,171.348,70.975
	s70.975,106.622,70.975,171.348c0,28.316-4.824,55.891-14.084,81.786h3.174c9.14-25.922,13.91-53.487,13.91-81.786
	C788.738,477.887,763.22,416.281,716.885,369.946z M934.259,378.306c-21.365-50.511-51.949-95.874-90.905-134.83
	c-38.955-38.955-84.318-69.54-134.829-90.904c-52.296-22.119-107.847-33.334-165.11-33.334s-112.814,11.215-165.11,33.334
	c-50.511,21.365-95.874,51.949-134.83,90.904c-38.956,38.956-69.54,84.319-90.905,134.83
	c-22.119,52.296-33.334,107.847-33.334,165.11c0,27.722,2.637,55.042,7.859,81.786h3.057c-5.26-26.74-7.916-54.06-7.916-81.786
	c0-56.859,11.136-112.017,33.098-163.941c21.213-50.153,51.582-95.196,90.263-133.877s83.724-69.05,133.877-90.263
	c51.924-21.962,107.082-33.098,163.941-33.098s112.017,11.136,163.941,33.098c50.153,21.213,95.196,51.582,133.877,90.263
	s69.049,83.724,90.263,133.877c21.962,51.924,33.098,107.082,33.098,163.941c0,27.727-2.656,55.047-7.916,81.786h3.057
	c5.222-26.745,7.859-54.064,7.859-81.786C967.594,486.152,956.378,430.602,934.259,378.306z M1044.126,331.893
	c-27.37-64.709-66.552-122.824-116.458-172.73c-49.906-49.906-108.021-89.088-172.73-116.458C687.942,14.368,616.775,0,543.415,0
	S398.889,14.368,331.893,42.705c-64.71,27.37-122.825,66.552-172.73,116.458c-49.906,49.906-89.088,108.021-116.458,172.73
	C14.368,398.889,0,470.056,0,543.416c0,27.608,2.037,54.905,6.085,81.786h3.037C5.051,598.323,3,571.026,3,543.416
	c0-72.956,14.288-143.729,42.468-210.354c27.219-64.352,66.185-122.146,115.816-171.778
	c49.631-49.631,107.426-88.598,171.778-115.816C399.686,17.288,470.459,3,543.415,3c72.956,0,143.729,14.288,210.354,42.468
	c64.352,27.219,122.146,66.185,171.778,115.816c49.631,49.631,88.597,107.426,115.816,171.778
	c28.18,66.624,42.468,137.397,42.468,210.354c0,27.611-2.051,54.908-6.122,81.786h3.037c4.049-26.881,6.085-54.178,6.085-81.786
	C1086.831,470.056,1072.462,398.889,1044.126,331.893z M913.616,173.215c-48.081-48.081-104.07-85.83-166.414-112.199
	c-64.546-27.3-133.109-41.143-203.787-41.143S404.174,33.716,339.628,61.016c-62.343,26.369-118.333,64.118-166.414,112.199
	c-48.081,48.081-85.83,104.07-112.199,166.414c-27.3,64.546-41.143,133.109-41.143,203.787c0,27.623,2.125,54.922,6.331,81.786
	h3.037c-4.231-26.861-6.367-54.16-6.367-81.786c0-70.273,13.763-138.444,40.906-202.618
	c26.218-61.985,63.751-117.655,111.557-165.461S278.812,89.997,340.797,63.779c64.174-27.144,132.345-40.906,202.618-40.906
	s138.444,13.763,202.618,40.906c61.986,26.218,117.655,63.751,165.461,111.557s85.339,103.476,111.557,165.461
	c27.144,64.174,40.906,132.345,40.906,202.618c0,27.626-2.137,54.925-6.367,81.786h3.037c4.206-26.864,6.331-54.163,6.331-81.786
	c0-70.677-13.843-139.241-41.143-203.787C999.446,277.286,961.697,221.296,913.616,173.215z M885.511,201.319
	c-44.431-44.431-96.17-79.314-153.78-103.681c-59.646-25.228-123.004-38.02-188.316-38.02S414.745,72.411,355.1,97.638
	c-57.61,24.367-109.35,59.25-153.78,103.681s-79.314,96.17-103.681,153.78c-25.228,59.646-38.02,123.004-38.02,188.316
	c0,27.658,2.303,54.963,6.864,81.786h3.043c-4.59-26.82-6.907-54.126-6.907-81.786c0-64.908,12.712-127.874,37.783-187.147
	c24.216-57.252,58.883-108.671,103.04-152.827c44.156-44.156,95.575-78.824,152.827-103.04
	c59.274-25.071,122.24-37.783,187.147-37.783s127.873,12.712,187.147,37.783c57.253,24.216,108.671,58.883,152.827,103.04
	c44.156,44.156,78.824,95.575,103.04,152.827c25.071,59.274,37.783,122.24,37.783,187.147c0,27.661-2.317,54.967-6.907,81.786h3.043
	c4.561-26.823,6.864-54.129,6.864-81.786c0-65.312-12.792-128.67-38.02-188.316C964.825,297.489,929.942,245.75,885.511,201.319z
	 M915.948,386.041c-20.363-48.145-49.515-91.382-86.646-128.513c-37.13-37.13-80.368-66.282-128.513-86.645
	C650.944,149.8,597.996,139.11,543.415,139.11s-107.529,10.69-157.375,31.773c-48.145,20.363-91.382,49.515-128.513,86.645
	c-37.13,37.13-66.282,80.368-86.646,128.513C149.8,435.887,139.11,488.835,139.11,543.416c0,27.749,2.769,55.074,8.256,81.786h3.065
	c-5.529-26.706-8.321-54.033-8.321-81.786c0-54.177,10.61-106.732,31.536-156.206c20.212-47.787,49.148-90.705,86.003-127.56
	c36.856-36.855,79.773-65.792,127.56-86.003c49.474-20.926,102.029-31.536,156.206-31.536c54.176,0,106.731,10.61,156.206,31.536
	c47.787,20.212,90.704,49.148,127.56,86.003c36.855,36.855,65.792,79.773,86.003,127.56
	c20.926,49.474,31.536,102.029,31.536,156.206c0,27.754-2.792,55.08-8.321,81.786h3.065c5.487-26.712,8.256-54.038,8.256-81.786
	C947.721,488.835,937.031,435.887,915.948,386.041z M920.642,166.189C871.648,117.196,814.596,78.73,751.07,51.86
	C685.299,24.042,615.434,9.937,543.415,9.937S401.532,24.042,335.761,51.86c-63.526,26.87-120.579,65.335-169.572,114.329
	S78.73,272.234,51.86,335.761C24.042,401.532,9.937,471.397,9.937,543.416c0,27.616,2.082,54.913,6.208,81.786h3.037
	c-4.15-26.87-6.245-54.168-6.245-81.786c0-71.615,14.025-141.086,41.687-206.486c26.718-63.169,64.968-119.901,113.687-168.619
	c48.719-48.719,105.451-86.969,168.619-113.687c65.399-27.662,134.872-41.687,206.486-41.687s141.087,14.025,206.486,41.687
	c63.169,26.718,119.9,64.968,168.619,113.687c48.719,48.718,86.968,105.45,113.687,168.619
	c27.662,65.399,41.687,134.871,41.687,206.486c0,27.618-2.095,54.916-6.245,81.786h3.037c4.126-26.873,6.208-54.171,6.208-81.786
	c0-72.019-14.105-141.884-41.924-207.654C1008.101,272.234,969.635,215.182,920.642,166.189z M892.537,194.293
	c-45.343-45.343-98.145-80.943-156.938-105.811c-60.871-25.747-125.531-38.801-192.184-38.801S412.102,62.736,351.232,88.483
	c-58.794,24.868-111.596,60.467-156.938,105.811c-45.343,45.343-80.943,98.145-105.811,156.938
	c-25.747,60.871-38.801,125.531-38.801,192.184c0,27.648,2.254,54.952,6.72,81.786h3.043c-4.494-26.831-6.763-54.135-6.763-81.786
	c0-66.249,12.975-130.516,38.563-191.015c24.717-58.436,60.101-110.917,105.169-155.986c45.069-45.068,97.55-80.453,155.986-105.169
	c60.499-25.589,124.766-38.563,191.015-38.563S673.931,65.657,734.43,91.246c58.436,24.716,110.917,60.101,155.986,105.169
	s80.453,97.55,105.169,155.986c25.589,60.499,38.564,124.766,38.564,191.015c0,27.651-2.269,54.956-6.763,81.786h3.043
	c4.467-26.834,6.72-54.138,6.72-81.786c0-66.653-13.054-131.313-38.801-192.184C973.48,292.438,937.88,239.636,892.537,194.293z
	 M899.563,187.268c-46.255-46.256-100.12-82.572-160.097-107.94C677.371,53.063,611.41,39.746,543.415,39.746
	S409.46,53.063,347.364,79.328c-59.977,25.368-113.841,61.684-160.097,107.94c-46.256,46.255-82.572,100.12-107.94,160.097
	C53.063,409.46,39.746,475.421,39.746,543.416c0,27.639,2.201,54.942,6.577,81.786h3.043c-4.403-26.841-6.62-54.144-6.62-81.786
	c0-67.591,13.237-133.159,39.345-194.883c25.217-59.619,61.317-113.163,107.298-159.144
	c45.981-45.981,99.525-82.082,159.144-107.298c61.724-26.107,127.292-39.344,194.883-39.344c67.59,0,133.159,13.237,194.883,39.344
	c59.619,25.217,113.163,61.317,159.144,107.298c45.981,45.981,82.081,99.525,107.298,159.144
	c26.107,61.724,39.345,127.292,39.345,194.883c0,27.642-2.217,54.945-6.62,81.786h3.043c4.376-26.844,6.577-54.147,6.577-81.786
	c0-67.994-13.317-133.956-39.582-196.051C982.135,287.387,945.819,233.523,899.563,187.268z M906.59,180.241
	c-47.168-47.168-102.095-84.201-163.255-110.069C680.014,43.389,612.751,29.81,543.415,29.81
	c-69.336,0-136.598,13.58-199.919,40.362c-61.16,25.869-116.087,62.901-163.255,110.069
	C133.073,227.41,96.04,282.336,70.171,343.497C43.389,406.817,29.809,474.08,29.809,543.416c0,27.631,2.164,54.932,6.453,81.786
	h3.037c-4.315-26.851-6.49-54.153-6.49-81.786c0-68.932,13.5-135.801,40.125-198.75c25.717-60.802,62.534-115.409,109.428-162.302
	c46.894-46.894,101.5-83.71,162.303-109.428C407.614,46.31,474.483,32.81,543.415,32.81s135.801,13.5,198.75,40.125
	c60.802,25.717,115.409,62.534,162.302,109.428c46.894,46.894,83.71,101.5,109.428,162.302
	c26.626,62.949,40.126,129.818,40.126,198.75c0,27.634-2.175,54.935-6.49,81.786h3.037c4.29-26.854,6.454-54.155,6.454-81.786
	c0-69.335-13.58-136.598-40.362-199.919C990.79,282.336,953.758,227.41,906.59,180.241z M943.414,374.438
	c-21.865-51.694-53.166-98.12-93.034-137.988c-39.868-39.868-86.294-71.169-137.988-93.034
	c-53.521-22.638-110.373-34.116-168.977-34.116s-115.457,11.478-168.978,34.116c-51.694,21.865-98.12,53.166-137.988,93.034
	c-39.868,39.868-71.168,86.293-93.033,137.988c-22.638,53.521-34.116,110.373-34.116,168.978c0,27.71,2.57,55.027,7.668,81.786
	h3.057c-5.135-26.755-7.725-54.072-7.725-81.786c0-58.201,11.398-114.66,33.878-167.809c21.713-51.337,52.799-97.442,92.392-137.036
	s85.699-70.678,137.035-92.392c53.149-22.48,109.608-33.878,167.809-33.878s114.66,11.398,167.809,33.878
	c51.337,21.714,97.442,52.799,137.035,92.392s70.678,85.699,92.392,137.036c22.48,53.149,33.878,109.608,33.878,167.809
	c0,27.714-2.591,55.032-7.725,81.786h3.057c5.098-26.759,7.668-54.077,7.668-81.786C977.53,484.811,966.052,427.959,943.414,374.438
	z M759.041,327.79c-57.596-57.596-134.173-89.315-215.626-89.315s-158.03,31.719-215.626,89.315
	c-57.596,57.596-89.315,134.173-89.315,215.626c0,28.031,3.758,55.485,11.033,81.786h3.125
	c-7.351-26.288-11.157-53.744-11.157-81.786c0-80.651,31.407-156.476,88.436-213.504c57.029-57.029,132.854-88.437,213.505-88.437
	s156.476,31.407,213.504,88.437c57.029,57.029,88.437,132.853,88.437,213.504c0,28.042-3.806,55.498-11.157,81.786h3.125
	c7.275-26.302,11.033-53.755,11.033-81.786C848.356,461.963,816.637,385.385,759.041,327.79z M906.792,389.909
	c-19.863-46.961-48.298-89.137-84.516-125.354c-36.218-36.217-78.393-64.653-125.354-84.516
	c-48.621-20.565-100.268-30.992-153.506-30.992s-104.886,10.427-153.507,30.992c-46.961,19.863-89.137,48.298-125.354,84.516
	c-36.217,36.218-64.653,78.393-84.516,125.354c-20.565,48.621-30.992,100.268-30.992,153.507c0,27.763,2.842,55.092,8.472,81.786
	h3.065c-5.675-26.688-8.537-54.018-8.537-81.786c0-52.835,10.348-104.089,30.755-152.338
	c19.711-46.604,47.931-88.458,83.874-124.402s77.798-64.163,124.402-83.874c48.249-20.408,99.503-30.755,152.338-30.755
	s104.089,10.348,152.338,30.755c46.604,19.711,88.458,47.931,124.401,83.874c35.943,35.943,64.163,77.798,83.874,124.402
	c20.408,48.249,30.755,99.503,30.755,152.338c0,27.768-2.863,55.098-8.537,81.786h3.065c5.63-26.694,8.472-54.023,8.472-81.786
	C937.784,490.177,927.357,438.53,906.792,389.909z M752.015,334.815c-55.719-55.719-129.801-86.405-208.6-86.405
	s-152.881,30.686-208.6,86.405c-55.719,55.719-86.405,129.801-86.405,208.6c0,28.068,3.913,55.532,11.445,81.786h3.125
	c-7.612-26.239-11.569-53.707-11.569-81.786c0-77.997,30.374-151.326,85.526-206.479c55.153-55.152,128.481-85.526,206.479-85.526
	c77.997,0,151.326,30.374,206.479,85.526s85.526,128.481,85.526,206.479c0,28.08-3.957,55.547-11.569,81.786h3.124
	c7.531-26.255,11.445-53.718,11.445-81.786C838.42,464.617,807.734,390.535,752.015,334.815z M773.094,313.737
	c-61.35-61.349-142.917-95.136-229.678-95.136c-86.761,0-168.329,33.787-229.679,95.136
	c-61.349,61.349-95.136,142.917-95.136,229.678c0,27.972,3.532,55.398,10.347,81.786h3.103c-6.881-26.377-10.45-53.805-10.45-81.786
	c0-85.959,33.475-166.774,94.257-227.557c60.783-60.782,141.597-94.257,227.557-94.257c85.959,0,166.774,33.475,227.557,94.257
	c60.783,60.783,94.257,141.598,94.257,227.557c0,27.981-3.569,55.409-10.45,81.786h3.103c6.815-26.389,10.347-53.815,10.347-81.786
	C868.229,456.654,834.443,375.086,773.094,313.737z M723.911,362.92c-48.212-48.212-112.313-74.764-180.495-74.764
	S411.132,314.708,362.92,362.92c-48.212,48.212-74.764,112.313-74.764,180.495c0,28.244,4.57,55.782,13.334,81.786h3.174
	c-8.875-25.981-13.508-53.526-13.508-81.786c0-67.381,26.24-130.729,73.885-178.374c47.646-47.645,110.994-73.885,178.375-73.885
	s130.729,26.24,178.374,73.885c47.645,47.646,73.885,110.993,73.885,178.374c0,28.261-4.633,55.805-13.508,81.786h3.174
	c8.765-26.004,13.334-53.542,13.334-81.786C798.674,475.233,772.122,411.132,723.911,362.92z M737.963,348.868
	c-51.965-51.966-121.057-80.584-194.547-80.584c-73.491,0-142.583,28.619-194.548,80.584
	c-51.966,51.965-80.584,121.057-80.584,194.547c0,28.147,4.213,55.644,12.313,81.786h3.148
	c-8.194-26.123-12.461-53.625-12.461-81.786c0-72.689,28.307-141.027,79.706-192.426c51.399-51.399,119.738-79.706,192.427-79.706
	s141.027,28.307,192.426,79.706s79.706,119.737,79.706,192.426c0,28.161-4.267,55.663-12.461,81.786h3.148
	c8.1-26.142,12.313-53.639,12.313-81.786C818.547,469.925,789.929,400.833,737.963,348.868z M730.937,355.894
	c-50.089-50.089-116.686-77.674-187.521-77.674c-70.836,0-137.433,27.585-187.522,77.674
	c-50.089,50.089-77.674,116.685-77.674,187.521c0,28.193,4.384,55.71,12.803,81.786h3.148c-8.52-26.055-12.951-53.579-12.951-81.786
	c0-70.035,27.273-135.878,76.795-185.4c49.522-49.522,115.365-76.795,185.4-76.795c70.035,0,135.878,27.273,185.4,76.795
	c49.522,49.522,76.795,115.365,76.795,185.4c0,28.207-4.431,55.732-12.951,81.786h3.148c8.419-26.077,12.803-53.593,12.803-81.786
	C808.611,472.58,781.026,405.983,730.937,355.894z M766.067,320.764c-59.473-59.473-138.545-92.226-222.652-92.226
	c-84.107,0-163.18,32.753-222.652,92.226c-59.473,59.472-92.226,138.545-92.226,222.652c0,28.002,3.651,55.438,10.689,81.786h3.103
	c-7.108-26.335-10.792-53.776-10.792-81.786c0-83.306,32.441-161.625,91.347-220.531c58.906-58.906,137.225-91.347,220.531-91.347
	c83.305,0,161.625,32.441,220.53,91.347c58.906,58.906,91.347,137.225,91.347,220.531c0,28.01-3.684,55.452-10.792,81.786h3.103
	c7.038-26.348,10.689-53.785,10.689-81.786C858.293,459.309,825.54,380.236,766.067,320.764z M780.12,306.711
	c-63.226-63.226-147.289-98.046-236.704-98.046s-173.479,34.82-236.705,98.046c-63.226,63.226-98.046,147.29-98.046,236.705
	c0,27.942,3.4,55.362,10.005,81.786h3.103c-6.667-26.414-10.109-53.835-10.109-81.786c0-88.614,34.508-171.924,97.167-234.583
	c62.659-62.66,145.969-97.167,234.583-97.167s171.923,34.508,234.583,97.167c62.66,62.659,97.167,145.969,97.167,234.583
	c0,27.951-3.441,55.372-10.109,81.786h3.103c6.605-26.424,10.006-53.844,10.006-81.786C878.165,454,843.345,369.937,780.12,306.711z
	 M888.481,397.645c-18.862-44.595-45.865-84.645-80.257-119.038s-74.442-61.395-119.038-80.257
	c-46.17-19.528-95.215-29.43-145.771-29.43s-99.601,9.902-145.771,29.43c-44.595,18.862-84.645,45.865-119.038,80.257
	s-61.395,74.442-80.257,119.038c-19.528,46.17-29.43,95.215-29.43,145.771c0,27.795,3,55.131,8.94,81.786h3.073
	c-5.99-26.648-9.013-53.986-9.013-81.786c0-50.152,9.822-98.804,29.193-144.603c18.711-44.237,45.498-83.967,79.615-118.085
	c34.118-34.118,73.848-60.904,118.085-79.615c45.799-19.371,94.451-29.193,144.603-29.193s98.804,9.822,144.603,29.193
	c44.237,18.711,83.967,45.498,118.085,79.615c34.118,34.118,60.904,73.848,79.615,118.085
	c19.371,45.799,29.193,94.45,29.193,144.603c0,27.8-3.024,55.138-9.013,81.786h3.073c5.94-26.655,8.94-53.992,8.94-81.786
	C917.912,492.859,908.01,443.815,888.481,397.645z M897.637,393.776c-19.363-45.778-47.082-86.891-82.387-122.196
	c-35.305-35.305-76.417-63.024-122.196-82.386c-47.396-20.047-97.741-30.211-149.639-30.211s-102.243,10.165-149.639,30.211
	c-45.778,19.362-86.891,47.081-122.196,82.386s-63.024,76.418-82.387,122.196c-20.046,47.396-30.211,97.742-30.211,149.639
	c0,27.778,2.915,55.111,8.696,81.786h3.073c-5.828-26.669-8.769-54.002-8.769-81.786c0-51.494,10.085-101.446,29.974-148.47
	c19.211-45.421,46.714-86.213,81.745-121.243c35.031-35.031,75.823-62.534,121.243-81.745
	c47.024-19.889,96.977-29.974,148.471-29.974s101.446,10.085,148.47,29.974c45.42,19.211,86.212,46.714,121.243,81.745
	c35.03,35.03,62.533,75.822,81.745,121.243c19.889,47.024,29.974,96.977,29.974,148.47c0,27.784-2.942,55.118-8.769,81.786h3.073
	c5.781-26.675,8.696-54.008,8.696-81.786C927.848,491.518,917.683,441.172,897.637,393.776z M879.326,401.512
	c-18.362-43.412-44.647-82.399-78.127-115.879s-72.468-59.766-115.879-78.127c-44.945-19.01-92.689-28.649-141.903-28.649
	c-49.215,0-96.958,9.639-141.904,28.649c-43.412,18.362-82.399,44.647-115.879,78.127c-33.48,33.48-59.766,72.467-78.127,115.879
	c-19.01,44.945-28.649,92.688-28.649,141.903c0,27.812,3.083,55.153,9.191,81.786h3.086c-6.161-26.626-9.278-53.968-9.278-81.786
	c0-48.811,9.56-96.161,28.413-140.735c18.21-43.054,44.28-81.721,77.486-114.926c33.206-33.206,71.872-59.275,114.927-77.486
	c44.574-18.853,91.924-28.413,140.735-28.413s96.161,9.56,140.735,28.413c43.054,18.21,81.721,44.28,114.926,77.486
	s59.275,71.872,77.486,114.926c18.853,44.574,28.413,91.924,28.413,140.735c0,27.818-3.117,55.16-9.278,81.786h3.086
	c6.108-26.633,9.191-53.974,9.191-81.786C907.975,494.201,898.336,446.458,879.326,401.512z M787.145,299.685
	c-65.103-65.103-151.661-100.957-243.73-100.957c-92.069,0-178.628,35.854-243.73,100.957
	c-65.103,65.103-100.957,151.662-100.957,243.73c0,27.919,3.318,55.325,9.727,81.786h3.084c-6.468-26.451-9.811-53.86-9.811-81.786
	c0-91.268,35.542-177.073,100.078-241.609c64.536-64.537,150.341-100.078,241.609-100.078c91.268,0,177.073,35.542,241.609,100.078
	c64.536,64.536,100.078,150.341,100.078,241.609c0,27.926-3.344,55.336-9.811,81.786h3.084c6.41-26.461,9.727-53.867,9.727-81.786
	C888.102,451.347,852.248,364.788,787.145,299.685z M870.17,405.38c-17.861-42.229-43.431-80.153-75.998-112.721
	s-70.492-58.137-112.721-75.998c-43.721-18.492-90.163-27.869-138.036-27.869s-94.315,9.376-138.036,27.869
	c-42.229,17.861-80.153,43.431-112.721,75.998c-32.567,32.567-58.137,70.492-75.998,112.721
	c-18.492,43.721-27.869,90.163-27.869,138.036c0,27.832,3.192,55.175,9.479,81.786h3.054c-6.28-26.484-9.533-53.883-9.533-81.786
	c0-93.922,36.575-182.222,102.988-248.635c66.413-66.413,154.713-102.988,248.635-102.988c93.922,0,182.222,36.575,248.635,102.988
	c66.413,66.413,102.988,154.713,102.988,248.635c0,27.903-3.253,55.302-9.533,81.786h3.054c6.287-26.611,9.479-53.954,9.479-81.786
	C898.039,495.542,888.662,449.101,870.17,405.38z"/>
</svg>